  0
SECTION
  2
HEADER
  9
$ANGBASE
  50
0.0
  9
$ANGDIR
  70
1
  9
$MEASUREMENT
  70
1
  0
ENDSEC
  0
SECTION
  2
TABLES
  0
TABLE
  2
LTYPE
  70
4
  0
LTYPE
  5
40F
  2
CONTINUOUS
  70
0
  3
Solid line
  72
65
  73
0
  40
0.0
  0
LTYPE
  5
410
  2
DASHDOT
 70
0
  3
Dash Dot ____ _ ____ _
 72
65
 73
4
 40
2.0
 49
1.25
 49
-0.25
 49
0.25
 49
-0.25
  0
LTYPE
  5
411
  2
DASHED
 70
0
  3
Dashed __ __ __ __ __
 72
65
 73
2
 40
0.75
 49
0.5
 49
-0.25
  0
LTYPE
  5
43B
  2
DOTTED
 70
0
  3
Dotted .  .  .  .
 72
65
 73
2
 40
0.2
 49
0.0
 49
-0.2
  0
ENDTAB
  0
TABLE
  2
STYLE
  70
4
  0
STYLE
  2
KICAD
  70
0
  40
0
  41
1
  42
1
  50
0
  71
0
  3
isocp.shx
  0
STYLE
  2
KICADB
  70
0
  40
0
  41
1
  42
1
  50
0
  71
0
  3
isocp.shx
  0
STYLE
  2
KICADI
  70
0
  40
0
  41
1
  42
1
  50
15
  71
0
  3
isocp.shx
  0
STYLE
  2
KICADBI
  70
0
  40
0
  41
1
  42
1
  50
15
  71
0
  3
isocp.shx
  0
ENDTAB
  0
TABLE
  2
LAYER
  70
1
  0
LAYER
  2
BLACK
  70
0
  62
7
  6
CONTINUOUS
  0
ENDTAB
  0
ENDSEC
  0
SECTION
  2
ENTITIES
0
LINE
8
BLACK
6
CONTINUOUS
10
135.3898949999999957
20
-75.7513459999999981
11
176.4000000000000057
21
-75.7513459999999981
0
LINE
8
BLACK
6
CONTINUOUS
10
176.4000000000000057
20
-75.7513459999999981
11
176.6802459999999826
21
-75.7682980000000015
0
LINE
8
BLACK
6
CONTINUOUS
10
176.6802459999999826
20
-75.7682980000000015
11
176.9564049999999895
21
-75.8189069999999958
0
LINE
8
BLACK
6
CONTINUOUS
10
176.9564049999999895
20
-75.8189069999999958
11
177.2244499999999903
21
-75.9024339999999995
0
LINE
8
BLACK
6
CONTINUOUS
10
177.2244499999999903
20
-75.9024339999999995
11
177.4804729999999893
21
-76.0176620000000014
0
LINE
8
BLACK
6
CONTINUOUS
10
177.4804729999999893
20
-76.0176620000000014
11
177.7207389999999805
21
-76.162910999999994
0
LINE
8
BLACK
6
CONTINUOUS
10
177.7207389999999805
20
-76.162910999999994
11
177.9417459999999949
21
-76.3360610000000008
0
LINE
8
BLACK
6
CONTINUOUS
10
177.9417459999999949
20
-76.3360610000000008
11
178.1402699999999868
21
-76.5345889999999969
0
LINE
8
BLACK
6
CONTINUOUS
10
178.1402699999999868
20
-76.5345889999999969
11
178.3134159999999895
21
-76.7555989999999895
0
LINE
8
BLACK
6
CONTINUOUS
10
178.3134159999999895
20
-76.7555989999999895
11
178.4586589999999831
21
-76.995868999999999
0
LINE
8
BLACK
6
CONTINUOUS
10
178.4586589999999831
20
-76.995868999999999
11
178.5738819999999976
21
-77.2518929999999955
0
LINE
8
BLACK
6
CONTINUOUS
10
178.5738819999999976
20
-77.2518929999999955
11
178.6574039999999854
21
-77.5199399999999912
0
LINE
8
BLACK
6
CONTINUOUS
10
178.6574039999999854
20
-77.5199399999999912
11
178.7080079999999782
21
-77.7960999999999956
0
LINE
8
BLACK
6
CONTINUOUS
10
178.7080079999999782
20
-77.7960999999999956
11
178.7241750000000025
21
-78.0634730000000019
0
LINE
8
BLACK
6
CONTINUOUS
10
178.7241750000000025
20
-78.0634730000000019
11
178.7274850000000015
21
-78.0667830000000009
0
LINE
8
BLACK
6
CONTINUOUS
10
178.7274850000000015
20
-78.0667830000000009
11
178.7293880000000001
21
-78.0763499999999908
0
LINE
8
BLACK
6
CONTINUOUS
10
178.7293880000000001
20
-78.0763499999999908
11
178.7293880000000001
21
-86.8913950000000028
0
LINE
8
BLACK
6
CONTINUOUS
10
178.7293880000000001
20
-86.8913950000000028
11
178.7293809999999894
21
-86.8914269999999931
0
LINE
8
BLACK
6
CONTINUOUS
10
178.7293809999999894
20
-86.8914269999999931
11
178.7405200000000036
21
-87.5913649999999961
0
LINE
8
BLACK
6
CONTINUOUS
10
178.7405200000000036
20
-87.5913649999999961
11
178.7139709999999866
21
-88.2919899999999984
0
LINE
8
BLACK
6
CONTINUOUS
10
178.7139709999999866
20
-88.2919899999999984
11
178.6497939999999858
21
-88.9901749999999936
0
LINE
8
BLACK
6
CONTINUOUS
10
178.6497939999999858
20
-88.9901749999999936
11
178.5481749999999863
21
-89.6838999999999942
0
LINE
8
BLACK
6
CONTINUOUS
10
178.5481749999999863
20
-89.6838999999999942
11
178.4094079999999849
21
-90.3711579999999941
0
LINE
8
BLACK
6
CONTINUOUS
10
178.4094079999999849
20
-90.3711579999999941
11
178.2338939999999923
21
-91.0499629999999911
0
LINE
8
BLACK
6
CONTINUOUS
10
178.2338939999999923
20
-91.0499629999999911
11
178.0221410000000049
21
-91.7183500000000009
0
LINE
8
BLACK
6
CONTINUOUS
10
178.0221410000000049
20
-91.7183500000000009
11
177.7747609999999838
21
-92.3743860000000012
0
LINE
8
BLACK
6
CONTINUOUS
10
177.7747609999999838
20
-92.3743860000000012
11
177.4924689999999998
21
-93.0161749999999898
0
LINE
8
BLACK
6
CONTINUOUS
10
177.4924689999999998
20
-93.0161749999999898
11
177.1760830000000055
21
-93.6418589999999966
0
LINE
8
BLACK
6
CONTINUOUS
10
177.1760830000000055
20
-93.6418589999999966
11
176.8265169999999955
21
-94.2496289999999988
0
LINE
8
BLACK
6
CONTINUOUS
10
176.8265169999999955
20
-94.2496289999999988
11
176.4447820000000036
21
-94.837727000000001
0
LINE
8
BLACK
6
CONTINUOUS
10
176.4447820000000036
20
-94.837727000000001
11
176.0319829999999968
21
-95.404451999999992
0
LINE
8
BLACK
6
CONTINUOUS
10
176.0319829999999968
20
-95.404451999999992
11
175.5893130000000042
21
-95.9481649999999888
0
LINE
8
BLACK
6
CONTINUOUS
10
175.5893130000000042
20
-95.9481649999999888
11
175.1180530000000033
21
-96.4672939999999954
0
LINE
8
BLACK
6
CONTINUOUS
10
175.1180530000000033
20
-96.4672939999999954
11
174.6195649999999944
21
-96.9603369999999956
0
LINE
8
BLACK
6
CONTINUOUS
10
174.6195649999999944
20
-96.9603369999999956
11
174.0952929999999981
21
-97.4258669999999967
0
LINE
8
BLACK
6
CONTINUOUS
10
174.0952929999999981
20
-97.4258669999999967
11
173.546750000000003
21
-97.8625389999999982
0
LINE
8
BLACK
6
CONTINUOUS
10
173.546750000000003
20
-97.8625389999999982
11
172.9755260000000021
21
-98.2690889999999939
0
LINE
8
BLACK
6
CONTINUOUS
10
172.9755260000000021
20
-98.2690889999999939
11
172.3832709999999793
21
-98.6443419999999946
0
LINE
8
BLACK
6
CONTINUOUS
10
172.3832709999999793
20
-98.6443419999999946
11
171.7716979999999865
21
-98.9872119999999995
0
LINE
8
BLACK
6
CONTINUOUS
10
171.7716979999999865
20
-98.9872119999999995
11
171.1425779999999861
21
-99.2967079999999953
0
LINE
8
BLACK
6
CONTINUOUS
10
171.1425779999999861
20
-99.2967079999999953
11
170.4977279999999951
21
-99.5719339999999988
0
LINE
8
BLACK
6
CONTINUOUS
10
170.4977279999999951
20
-99.5719339999999988
11
169.8390139999999917
21
-99.8120940000000019
0
LINE
8
BLACK
6
CONTINUOUS
10
169.8390139999999917
20
-99.8120940000000019
11
169.1683419999999956
21
-100.0164939999999945
0
LINE
8
BLACK
6
CONTINUOUS
10
169.1683419999999956
20
-100.0164939999999945
11
168.4876509999999996
21
-100.1845429999999908
0
LINE
8
BLACK
6
CONTINUOUS
10
168.4876509999999996
20
-100.1845429999999908
11
167.7989089999999806
21
-100.3157539999999983
0
LINE
8
BLACK
6
CONTINUOUS
10
167.7989089999999806
20
-100.3157539999999983
11
167.1041099999999915
21
-100.4097479999999933
0
LINE
8
BLACK
6
CONTINUOUS
10
167.1041099999999915
20
-100.4097479999999933
11
166.4052629999999908
21
-100.4662529999999947
0
LINE
8
BLACK
6
CONTINUOUS
10
166.4052629999999908
20
-100.4662529999999947
11
165.7044259999999838
21
-100.4851039999999927
0
LINE
8
BLACK
6
CONTINUOUS
10
165.7044259999999838
20
-100.4851039999999927
11
165.7043879999999945
21
-100.4851120000000009
0
LINE
8
BLACK
6
CONTINUOUS
10
165.7043879999999945
20
-100.4851120000000009
11
165.7043879999999945
21
-100.4851139999999958
0
LINE
8
BLACK
6
CONTINUOUS
10
165.7043879999999945
20
-100.4851139999999958
11
165.704385000000002
21
-100.4851129999999984
0
LINE
8
BLACK
6
CONTINUOUS
10
165.704385000000002
20
-100.4851129999999984
11
165.7043809999999837
21
-100.4851139999999958
0
LINE
8
BLACK
6
CONTINUOUS
10
165.7043809999999837
20
-100.4851139999999958
11
146.6585769999999798
21
-100.4793880000000001
0
LINE
8
BLACK
6
CONTINUOUS
10
146.6585769999999798
20
-100.4793880000000001
11
146.6585460000000012
21
-100.4793809999999894
0
LINE
8
BLACK
6
CONTINUOUS
10
146.6585460000000012
20
-100.4793809999999894
11
145.9591460000000041
21
-100.490524999999991
0
LINE
8
BLACK
6
CONTINUOUS
10
145.9591460000000041
20
-100.490524999999991
11
145.2590299999999957
21
-100.4640369999999905
0
LINE
8
BLACK
6
CONTINUOUS
10
145.2590299999999957
20
-100.4640369999999905
11
144.5613479999999811
21
-100.3999749999999977
0
LINE
8
BLACK
6
CONTINUOUS
10
144.5613479999999811
20
-100.3999749999999977
11
143.8681139999999914
21
-100.2985259999999954
0
LINE
8
BLACK
6
CONTINUOUS
10
143.8681139999999914
20
-100.2985259999999954
11
143.1813319999999976
21
-100.1599810000000019
0
LINE
8
BLACK
6
CONTINUOUS
10
143.1813319999999976
20
-100.1599810000000019
11
142.5029839999999979
21
-99.9847409999999996
0
LINE
8
BLACK
6
CONTINUOUS
10
142.5029839999999979
20
-99.9847409999999996
11
141.8350299999999891
21
-99.77331199999999
0
LINE
8
BLACK
6
CONTINUOUS
10
141.8350299999999891
20
-99.77331199999999
11
141.1793989999999894
21
-99.5263049999999936
0
LINE
8
BLACK
6
CONTINUOUS
10
141.1793989999999894
20
-99.5263049999999936
11
140.5379849999999919
21
-99.2444330000000008
0
LINE
8
BLACK
6
CONTINUOUS
10
140.5379849999999919
20
-99.2444330000000008
11
139.9126389999999844
21
-98.9285099999999886
0
LINE
8
BLACK
6
CONTINUOUS
10
139.9126389999999844
20
-98.9285099999999886
11
139.3051679999999806
21
-98.5794489999999968
0
LINE
8
BLACK
6
CONTINUOUS
10
139.3051679999999806
20
-98.5794489999999968
11
138.7173269999999832
21
-98.1982569999999981
0
LINE
8
BLACK
6
CONTINUOUS
10
138.7173269999999832
20
-98.1982569999999981
11
138.1508120000000019
21
-97.7860359999999957
0
LINE
8
BLACK
6
CONTINUOUS
10
138.1508120000000019
20
-97.7860359999999957
11
137.6072609999999941
21
-97.3439769999999953
0
LINE
8
BLACK
6
CONTINUOUS
10
137.6072609999999941
20
-97.3439769999999953
11
137.0882430000000056
21
-96.8733549999999894
0
LINE
8
BLACK
6
CONTINUOUS
10
137.0882430000000056
20
-96.8733549999999894
11
136.5952570000000037
21
-96.3755299999999977
0
LINE
8
BLACK
6
CONTINUOUS
10
136.5952570000000037
20
-96.3755299999999977
11
136.1297270000000026
21
-95.851939999999999
0
LINE
8
BLACK
6
CONTINUOUS
10
136.1297270000000026
20
-95.851939999999999
11
135.6929979999999887
21
-95.3040969999999987
0
LINE
8
BLACK
6
CONTINUOUS
10
135.6929979999999887
20
-95.3040969999999987
11
135.2863299999999924
21
-94.7335839999999934
0
LINE
8
BLACK
6
CONTINUOUS
10
135.2863299999999924
20
-94.7335839999999934
11
134.9108980000000031
21
-94.1420469999999909
0
LINE
8
BLACK
6
CONTINUOUS
10
134.9108980000000031
20
-94.1420469999999909
11
134.5677859999999839
21
-93.5311959999999942
0
LINE
8
BLACK
6
CONTINUOUS
10
134.5677859999999839
20
-93.5311959999999942
11
134.2579869999999858
21
-92.9027940000000001
0
LINE
8
BLACK
6
CONTINUOUS
10
134.2579869999999858
20
-92.9027940000000001
11
133.9823930000000018
21
-92.2586569999999995
0
LINE
8
BLACK
6
CONTINUOUS
10
133.9823930000000018
20
-92.2586569999999995
11
133.7418009999999811
21
-91.6006450000000001
0
LINE
8
BLACK
6
CONTINUOUS
10
133.7418009999999811
20
-91.6006450000000001
11
133.5369059999999877
21
-90.930657999999994
0
LINE
8
BLACK
6
CONTINUOUS
10
133.5369059999999877
20
-90.930657999999994
11
133.368300000000005
21
-90.2506309999999985
0
LINE
8
BLACK
6
CONTINUOUS
10
133.368300000000005
20
-90.2506309999999985
11
133.2364699999999971
21
-89.5625280000000004
0
LINE
8
BLACK
6
CONTINUOUS
10
133.2364699999999971
20
-89.5625280000000004
11
133.1417959999999994
21
-88.8683369999999968
0
LINE
8
BLACK
6
CONTINUOUS
10
133.1417959999999994
20
-88.8683369999999968
11
133.0845520000000022
21
-88.1700620000000015
0
LINE
8
BLACK
6
CONTINUOUS
10
133.0845520000000022
20
-88.1700620000000015
11
133.0649029999999868
21
-87.4697329999999909
0
LINE
8
BLACK
6
CONTINUOUS
10
133.0649029999999868
20
-87.4697329999999909
11
133.0649009999999919
21
-87.4697199999999953
0
LINE
8
BLACK
6
CONTINUOUS
10
133.0649009999999919
20
-87.4697199999999953
11
133.064895000000007
21
-87.4697199999999953
0
LINE
8
BLACK
6
CONTINUOUS
10
133.064895000000007
20
-87.4697199999999953
11
133.0648979999999995
21
-87.4697079999999971
0
LINE
8
BLACK
6
CONTINUOUS
10
133.0648979999999995
20
-87.4697079999999971
11
133.064895000000007
21
-87.4696909999999974
0
LINE
8
BLACK
6
CONTINUOUS
10
133.064895000000007
20
-87.4696909999999974
11
133.064895000000007
21
-78.0763460000000009
0
LINE
8
BLACK
6
CONTINUOUS
10
133.064895000000007
20
-78.0763460000000009
11
133.064895000000007
21
-78.0763450000000034
0
LINE
8
BLACK
6
CONTINUOUS
10
133.064895000000007
20
-78.0763450000000034
11
133.0818419999999946
21
-77.796094999999994
0
LINE
8
BLACK
6
CONTINUOUS
10
133.0818419999999946
20
-77.796094999999994
11
133.1324459999999874
21
-77.5199289999999905
0
LINE
8
BLACK
6
CONTINUOUS
10
133.1324459999999874
20
-77.5199289999999905
11
133.2159690000000012
21
-77.2518759999999958
0
LINE
8
BLACK
6
CONTINUOUS
10
133.2159690000000012
20
-77.2518759999999958
11
133.3311950000000081
21
-76.9958460000000002
0
LINE
8
BLACK
6
CONTINUOUS
10
133.3311950000000081
20
-76.9958460000000002
11
133.4764409999999941
21
-76.7555720000000008
0
LINE
8
BLACK
6
CONTINUOUS
10
133.4764409999999941
20
-76.7555720000000008
11
133.6495909999999867
21
-76.5345569999999924
0
LINE
8
BLACK
6
CONTINUOUS
10
133.6495909999999867
20
-76.5345569999999924
11
133.8481179999999995
21
-76.3360249999999922
0
LINE
8
BLACK
6
CONTINUOUS
10
133.8481179999999995
20
-76.3360249999999922
11
134.0691290000000038
21
-76.1628699999999981
0
LINE
8
BLACK
6
CONTINUOUS
10
134.0691290000000038
20
-76.1628699999999981
11
134.3094009999999798
21
-76.0176189999999963
0
LINE
8
BLACK
6
CONTINUOUS
10
134.3094009999999798
20
-76.0176189999999963
11
134.5654279999999972
21
-75.902388000000002
0
LINE
8
BLACK
6
CONTINUOUS
10
134.5654279999999972
20
-75.902388000000002
11
134.8334789999999828
21
-75.8188579999999916
0
LINE
8
BLACK
6
CONTINUOUS
10
134.8334789999999828
20
-75.8188579999999916
11
135.1096430000000055
21
-75.7682479999999998
0
LINE
8
BLACK
6
CONTINUOUS
10
135.1096430000000055
20
-75.7682479999999998
11
135.3898949999999957
21
-75.7512949999999989
0
LINE
8
BLACK
6
CONTINUOUS
10
135.3898949999999957
20
-75.7512949999999989
11
135.3898949999999957
21
-75.7513459999999981
0
LINE
8
BLACK
6
CONTINUOUS
10
135.2522809999999822
20
-75.8012959999999936
11
134.979060000000004
21
-75.834471999999991
0
LINE
8
BLACK
6
CONTINUOUS
10
134.979060000000004
20
-75.834471999999991
11
134.711829999999992
21
-75.9003390000000024
0
LINE
8
BLACK
6
CONTINUOUS
10
134.711829999999992
20
-75.9003390000000024
11
134.4544879999999978
21
-75.9979379999999907
0
LINE
8
BLACK
6
CONTINUOUS
10
134.4544879999999978
20
-75.9979379999999907
11
134.2107869999999821
21
-76.1258449999999982
0
LINE
8
BLACK
6
CONTINUOUS
10
134.2107869999999821
20
-76.1258449999999982
11
133.9842799999999841
21
-76.2821939999999898
0
LINE
8
BLACK
6
CONTINUOUS
10
133.9842799999999841
20
-76.2821939999999898
11
133.7782709999999895
21
-76.4647059999999925
0
LINE
8
BLACK
6
CONTINUOUS
10
133.7782709999999895
20
-76.4647059999999925
11
133.5957630000000051
21
-76.6707200000000029
0
LINE
8
BLACK
6
CONTINUOUS
10
133.5957630000000051
20
-76.6707200000000029
11
133.4394189999999867
21
-76.8972299999999933
0
LINE
8
BLACK
6
CONTINUOUS
10
133.4394189999999867
20
-76.8972299999999933
11
133.3115169999999807
21
-77.1409340000000014
0
LINE
8
BLACK
6
CONTINUOUS
10
133.3115169999999807
20
-77.1409340000000014
11
133.2139239999999916
21
-77.3982779999999906
0
LINE
8
BLACK
6
CONTINUOUS
10
133.2139239999999916
20
-77.3982779999999906
11
133.1480630000000076
21
-77.6655099999999976
0
LINE
8
BLACK
6
CONTINUOUS
10
133.1480630000000076
20
-77.6655099999999976
11
133.114892999999995
21
-77.9387320000000017
0
LINE
8
BLACK
6
CONTINUOUS
10
133.114892999999995
20
-77.9387320000000017
11
133.11489499999999
21
-78.0763450000000034
0
LINE
8
BLACK
6
CONTINUOUS
10
133.11489499999999
20
-78.0763450000000034
11
133.11489499999999
21
-78.0763460000000009
0
LINE
8
BLACK
6
CONTINUOUS
10
133.11489499999999
20
-78.0763460000000009
11
133.11489499999999
21
-87.4696619999999996
0
LINE
8
BLACK
6
CONTINUOUS
10
133.11489499999999
20
-87.4696619999999996
11
133.1149029999999982
21
-87.4696619999999996
0
LINE
8
BLACK
6
CONTINUOUS
10
133.1149029999999982
20
-87.4696619999999996
11
133.1153209999999945
21
-87.8187519999999893
0
LINE
8
BLACK
6
CONTINUOUS
10
133.1153209999999945
20
-87.8187519999999893
11
133.153648000000004
21
-88.5158809999999932
0
LINE
8
BLACK
6
CONTINUOUS
10
133.153648000000004
20
-88.5158809999999932
11
133.2293699999999887
21
-89.2099449999999905
0
LINE
8
BLACK
6
CONTINUOUS
10
133.2293699999999887
20
-89.2099449999999905
11
133.342269999999985
21
-89.8989380000000011
0
LINE
8
BLACK
6
CONTINUOUS
10
133.342269999999985
20
-89.8989380000000011
11
133.4920199999999966
21
-90.5808710000000019
0
LINE
8
BLACK
6
CONTINUOUS
10
133.4920199999999966
20
-90.5808710000000019
11
133.6781880000000058
21
-91.2537749999999903
0
LINE
8
BLACK
6
CONTINUOUS
10
133.6781880000000058
20
-91.2537749999999903
11
133.9002370000000042
21
-91.9157060000000001
0
LINE
8
BLACK
6
CONTINUOUS
10
133.9002370000000042
20
-91.9157060000000001
11
134.1575259999999901
21
-92.5647519999999986
0
LINE
8
BLACK
6
CONTINUOUS
10
134.1575259999999901
20
-92.5647519999999986
11
134.449309999999997
21
-93.1990380000000016
0
LINE
8
BLACK
6
CONTINUOUS
10
134.449309999999997
20
-93.1990380000000016
11
134.7747489999999857
21
-93.8167339999999967
0
LINE
8
BLACK
6
CONTINUOUS
10
134.7747489999999857
20
-93.8167339999999967
11
135.1329010000000039
21
-94.4160540000000026
0
LINE
8
BLACK
6
CONTINUOUS
10
135.1329010000000039
20
-94.4160540000000026
11
135.5227319999999906
21
-94.9952689999999933
0
LINE
8
BLACK
6
CONTINUOUS
10
135.5227319999999906
20
-94.9952689999999933
11
135.9431170000000009
21
-95.5527049999999889
0
LINE
8
BLACK
6
CONTINUOUS
10
135.9431170000000009
20
-95.5527049999999889
11
136.3928410000000042
21
-96.0867519999999899
0
LINE
8
BLACK
6
CONTINUOUS
10
136.3928410000000042
20
-96.0867519999999899
11
136.8706049999999834
21
-96.5958679999999958
0
LINE
8
BLACK
6
CONTINUOUS
10
136.8706049999999834
20
-96.5958679999999958
11
137.375031000000007
21
-97.0785819999999973
0
LINE
8
BLACK
6
CONTINUOUS
10
137.375031000000007
20
-97.0785819999999973
11
137.9046600000000069
21
-97.5335010000000011
0
LINE
8
BLACK
6
CONTINUOUS
10
137.9046600000000069
20
-97.5335010000000011
11
138.4579630000000066
21
-97.9593100000000021
0
LINE
8
BLACK
6
CONTINUOUS
10
138.4579630000000066
20
-97.9593100000000021
11
139.0333420000000046
21
-98.354779999999991
0
LINE
8
BLACK
6
CONTINUOUS
10
139.0333420000000046
20
-98.354779999999991
11
139.6291359999999884
21
-98.7187689999999947
0
LINE
8
BLACK
6
CONTINUOUS
10
139.6291359999999884
20
-98.7187689999999947
11
140.2436239999999827
21
-99.0502249999999975
0
LINE
8
BLACK
6
CONTINUOUS
10
140.2436239999999827
20
-99.0502249999999975
11
140.8750299999999811
21
-99.3481909999999999
0
LINE
8
BLACK
6
CONTINUOUS
10
140.8750299999999811
20
-99.3481909999999999
11
141.5215320000000077
21
-99.6118060000000014
0
LINE
8
BLACK
6
CONTINUOUS
10
141.5215320000000077
20
-99.6118060000000014
11
142.1812620000000038
21
-99.8403100000000023
0
LINE
8
BLACK
6
CONTINUOUS
10
142.1812620000000038
20
-99.8403100000000023
11
142.8523150000000044
21
-100.0330419999999947
0
LINE
8
BLACK
6
CONTINUOUS
10
142.8523150000000044
20
-100.0330419999999947
11
143.5327539999999829
21
-100.1894459999999896
0
LINE
8
BLACK
6
CONTINUOUS
10
143.5327539999999829
20
-100.1894459999999896
11
144.220610999999991
21
-100.3090689999999938
0
LINE
8
BLACK
6
CONTINUOUS
10
144.220610999999991
20
-100.3090689999999938
11
144.9139020000000073
21
-100.3915669999999949
0
LINE
8
BLACK
6
CONTINUOUS
10
144.9139020000000073
20
-100.3915669999999949
11
145.6106240000000014
21
-100.4367009999999993
0
LINE
8
BLACK
6
CONTINUOUS
10
145.6106240000000014
20
-100.4367009999999993
11
146.3087639999999965
21
-100.4443399999999968
0
LINE
8
BLACK
6
CONTINUOUS
10
146.3087639999999965
20
-100.4443399999999968
11
146.6575349999999958
21
-100.4294099999999901
0
LINE
8
BLACK
6
CONTINUOUS
10
146.6575349999999958
20
-100.4294099999999901
11
146.6575349999999958
21
-100.4294110000000018
0
LINE
8
BLACK
6
CONTINUOUS
10
146.6575349999999958
20
-100.4294110000000018
11
146.6579270000000008
21
-100.4295199999999966
0
LINE
8
BLACK
6
CONTINUOUS
10
146.6579270000000008
20
-100.4295199999999966
11
146.6585929999999962
21
-100.4293879999999888
0
LINE
8
BLACK
6
CONTINUOUS
10
146.6585929999999962
20
-100.4293879999999888
11
165.7043879999999945
21
-100.4351130000000012
0
LINE
8
BLACK
6
CONTINUOUS
10
165.7043879999999945
20
-100.4351130000000012
11
165.7043879999999945
21
-100.4351059999999904
0
LINE
8
BLACK
6
CONTINUOUS
10
165.7043879999999945
20
-100.4351059999999904
11
166.0537339999999915
21
-100.4350909999999999
0
LINE
8
BLACK
6
CONTINUOUS
10
166.0537339999999915
20
-100.4350909999999999
11
166.7514139999999827
21
-100.3975299999999891
0
LINE
8
BLACK
6
CONTINUOUS
10
166.7514139999999827
20
-100.3975299999999891
11
167.4460669999999993
21
-100.3225149999999957
0
LINE
8
BLACK
6
CONTINUOUS
10
167.4460669999999993
20
-100.3225149999999957
11
168.1356810000000053
21
-100.2102629999999976
0
LINE
8
BLACK
6
CONTINUOUS
10
168.1356810000000053
20
-100.2102629999999976
11
168.8182639999999992
21
-100.0610999999999962
0
LINE
8
BLACK
6
CONTINUOUS
10
168.8182639999999992
20
-100.0610999999999962
11
169.4918409999999938
21
-99.8754550000000023
0
LINE
8
BLACK
6
CONTINUOUS
10
169.4918409999999938
20
-99.8754550000000023
11
170.1544629999999927
21
-99.6538679999999886
0
LINE
8
BLACK
6
CONTINUOUS
10
170.1544629999999927
20
-99.6538679999999886
11
170.8042140000000018
21
-99.3969769999999926
0
LINE
8
BLACK
6
CONTINUOUS
10
170.8042140000000018
20
-99.3969769999999926
11
171.4392149999999901
21
-99.105526999999995
0
LINE
8
BLACK
6
CONTINUOUS
10
171.4392149999999901
20
-99.105526999999995
11
172.0576289999999915
21
-98.7803609999999992
0
LINE
8
BLACK
6
CONTINUOUS
10
172.0576289999999915
20
-98.7803609999999992
11
172.6576670000000036
21
-98.4224179999999933
0
LINE
8
BLACK
6
CONTINUOUS
10
172.6576670000000036
20
-98.4224179999999933
11
173.2375949999999989
21
-98.0327339999999907
0
LINE
8
BLACK
6
CONTINUOUS
10
173.2375949999999989
20
-98.0327339999999907
11
173.7957339999999817
21
-97.6124369999999999
0
LINE
8
BLACK
6
CONTINUOUS
10
173.7957339999999817
20
-97.6124369999999999
11
174.3304699999999912
21
-97.1627409999999969
0
LINE
8
BLACK
6
CONTINUOUS
10
174.3304699999999912
20
-97.1627409999999969
11
174.8402569999999798
21
-96.6849479999999915
0
LINE
8
BLACK
6
CONTINUOUS
10
174.8402569999999798
20
-96.6849479999999915
11
175.3236200000000053
21
-96.1804389999999927
0
LINE
8
BLACK
6
CONTINUOUS
10
175.3236200000000053
20
-96.1804389999999927
11
175.7791609999999878
21
-95.6506729999999976
0
LINE
8
BLACK
6
CONTINUOUS
10
175.7791609999999878
20
-95.6506729999999976
11
176.2055629999999837
21
-95.0971839999999986
0
LINE
8
BLACK
6
CONTINUOUS
10
176.2055629999999837
20
-95.0971839999999986
11
176.6015919999999824
21
-94.5215709999999945
0
LINE
8
BLACK
6
CONTINUOUS
10
176.6015919999999824
20
-94.5215709999999945
11
176.9661040000000014
21
-93.9254999999999995
0
LINE
8
BLACK
6
CONTINUOUS
10
176.9661040000000014
20
-93.9254999999999995
11
177.298041999999981
21
-93.3106949999999955
0
LINE
8
BLACK
6
CONTINUOUS
10
177.298041999999981
20
-93.3106949999999955
11
177.5964489999999785
21
-92.6789330000000007
0
LINE
8
BLACK
6
CONTINUOUS
10
177.5964489999999785
20
-92.6789330000000007
11
177.8604589999999916
21
-92.0320419999999899
0
LINE
8
BLACK
6
CONTINUOUS
10
177.8604589999999916
20
-92.0320419999999899
11
178.0893109999999808
21
-91.3718939999999975
0
LINE
8
BLACK
6
CONTINUOUS
10
178.0893109999999808
20
-91.3718939999999975
11
178.2823410000000024
21
-90.7003969999999953
0
LINE
8
BLACK
6
CONTINUOUS
10
178.2823410000000024
20
-90.7003969999999953
11
178.4389919999999847
21
-90.0194929999999971
0
LINE
8
BLACK
6
CONTINUOUS
10
178.4389919999999847
20
-90.0194929999999971
11
178.5588109999999915
21
-89.3311530000000005
0
LINE
8
BLACK
6
CONTINUOUS
10
178.5588109999999915
20
-89.3311530000000005
11
178.6414499999999919
21
-88.6373660000000001
0
LINE
8
BLACK
6
CONTINUOUS
10
178.6414499999999919
20
-88.6373660000000001
11
178.6866719999999873
21
-87.9401399999999995
0
LINE
8
BLACK
6
CONTINUOUS
10
178.6866719999999873
20
-87.9401399999999995
11
178.694344000000001
21
-87.2414909999999963
0
LINE
8
BLACK
6
CONTINUOUS
10
178.694344000000001
20
-87.2414909999999963
11
178.6794099999999901
21
-86.8924650000000014
0
LINE
8
BLACK
6
CONTINUOUS
10
178.6794099999999901
20
-86.8924650000000014
11
178.6794109999999876
21
-86.8924650000000014
0
LINE
8
BLACK
6
CONTINUOUS
10
178.6794109999999876
20
-86.8924650000000014
11
178.679520999999994
21
-86.8920669999999973
0
LINE
8
BLACK
6
CONTINUOUS
10
178.679520999999994
20
-86.8920669999999973
11
178.6793879999999888
21
-86.8913950000000028
0
LINE
8
BLACK
6
CONTINUOUS
10
178.6793879999999888
20
-86.8913950000000028
11
178.6793879999999888
21
-78.0898509999999959
0
LINE
8
BLACK
6
CONTINUOUS
10
178.6793879999999888
20
-78.0898509999999959
11
178.6749999999999829
21
-78.0763460000000009
0
LINE
8
BLACK
6
CONTINUOUS
10
178.6749999999999829
20
-78.0763460000000009
11
178.6749539999999854
21
-78.0763450000000034
0
LINE
8
BLACK
6
CONTINUOUS
10
178.6749539999999854
20
-78.0763450000000034
11
178.6749569999999778
21
-77.9387339999999966
0
LINE
8
BLACK
6
CONTINUOUS
10
178.6749569999999778
20
-77.9387339999999966
11
178.6417869999999937
21
-77.6655179999999916
0
LINE
8
BLACK
6
CONTINUOUS
10
178.6417869999999937
20
-77.6655179999999916
11
178.5759269999999788
21
-77.3982919999999979
0
LINE
8
BLACK
6
CONTINUOUS
10
178.5759269999999788
20
-77.3982919999999979
11
178.4783359999999846
21
-77.1409539999999936
0
LINE
8
BLACK
6
CONTINUOUS
10
178.4783359999999846
20
-77.1409539999999936
11
178.3504369999999994
21
-76.8972550000000012
0
LINE
8
BLACK
6
CONTINUOUS
10
178.3504369999999994
20
-76.8972550000000012
11
178.1940960000000018
21
-76.6707490000000007
0
LINE
8
BLACK
6
CONTINUOUS
10
178.1940960000000018
20
-76.6707490000000007
11
178.011591999999979
21
-76.4647410000000036
0
LINE
8
BLACK
6
CONTINUOUS
10
178.011591999999979
20
-76.4647410000000036
11
177.8055870000000027
21
-76.2822329999999909
0
LINE
8
BLACK
6
CONTINUOUS
10
177.8055870000000027
20
-76.2822329999999909
11
177.5790839999999946
21
-76.1258869999999916
0
LINE
8
BLACK
6
CONTINUOUS
10
177.5790839999999946
20
-76.1258869999999916
11
177.3353879999999947
21
-75.9979829999999907
0
LINE
8
BLACK
6
CONTINUOUS
10
177.3353879999999947
20
-75.9979829999999907
11
177.0780509999999879
21
-75.9003869999999949
0
LINE
8
BLACK
6
CONTINUOUS
10
177.0780509999999879
20
-75.9003869999999949
11
176.8108269999999891
21
-75.8345209999999952
0
LINE
8
BLACK
6
CONTINUOUS
10
176.8108269999999891
20
-75.8345209999999952
11
176.5376109999999983
21
-75.8013459999999952
0
LINE
8
BLACK
6
CONTINUOUS
10
176.5376109999999983
20
-75.8013459999999952
11
176.4000000000000057
21
-75.8013459999999952
0
LINE
8
BLACK
6
CONTINUOUS
10
176.4000000000000057
20
-75.8013459999999952
11
135.3898949999999957
21
-75.8013459999999952
0
LINE
8
BLACK
6
CONTINUOUS
10
135.3898949999999957
20
-75.8013459999999952
11
135.3896379999999908
21
-75.8012949999999961
0
LINE
8
BLACK
6
CONTINUOUS
10
135.3896379999999908
20
-75.8012949999999961
11
135.2522809999999822
21
-75.8012959999999936
  0
ENDSEC
  0
EOF
