  0
SECTION
  2
HEADER
  9
$ANGBASE
  50
0.0
  9
$ANGDIR
  70
1
  9
$MEASUREMENT
  70
1
  0
ENDSEC
  0
SECTION
  2
TABLES
  0
TABLE
  2
LTYPE
  70
4
  0
LTYPE
  5
40F
  2
CONTINUOUS
  70
0
  3
Solid line
  72
65
  73
0
  40
0.0
  0
LTYPE
  5
410
  2
DASHDOT
 70
0
  3
Dash Dot ____ _ ____ _
 72
65
 73
4
 40
2.0
 49
1.25
 49
-0.25
 49
0.25
 49
-0.25
  0
LTYPE
  5
411
  2
DASHED
 70
0
  3
Dashed __ __ __ __ __
 72
65
 73
2
 40
0.75
 49
0.5
 49
-0.25
  0
LTYPE
  5
43B
  2
DOTTED
 70
0
  3
Dotted .  .  .  .
 72
65
 73
2
 40
0.2
 49
0.0
 49
-0.2
  0
ENDTAB
  0
TABLE
  2
STYLE
  70
4
  0
STYLE
  2
KICAD
  70
0
  40
0
  41
1
  42
1
  50
0
  71
0
  3
isocp.shx
  0
STYLE
  2
KICADB
  70
0
  40
0
  41
1
  42
1
  50
0
  71
0
  3
isocp.shx
  0
STYLE
  2
KICADI
  70
0
  40
0
  41
1
  42
1
  50
15
  71
0
  3
isocp.shx
  0
STYLE
  2
KICADBI
  70
0
  40
0
  41
1
  42
1
  50
15
  71
0
  3
isocp.shx
  0
ENDTAB
  0
TABLE
  2
LAYER
  70
1
  0
LAYER
  2
BLACK
  70
0
  62
7
  6
CONTINUOUS
  0
ENDTAB
  0
ENDSEC
  0
SECTION
  2
ENTITIES
0
LINE
8
BLACK
6
CONTINUOUS
10
136.1629609999999957
20
-91.3195669999999922
11
136.19543299999998
21
-91.3520389999999907
0
LINE
8
BLACK
6
CONTINUOUS
10
136.19543299999998
20
-91.3520389999999907
11
136.19543299999998
21
-91.3979609999999951
0
LINE
8
BLACK
6
CONTINUOUS
10
136.19543299999998
20
-91.3979609999999951
11
136.1629609999999957
21
-91.4304329999999936
0
LINE
8
BLACK
6
CONTINUOUS
10
136.1629609999999957
20
-91.4304329999999936
11
136.1399999999999864
21
-91.4350000000000023
0
LINE
8
BLACK
6
CONTINUOUS
10
136.1399999999999864
20
-91.4350000000000023
11
135.6299999999999955
21
-91.4350000000000023
0
LINE
8
BLACK
6
CONTINUOUS
10
135.6299999999999955
20
-91.4350000000000023
11
135.6299999999999955
21
-96.5150000000000006
0
LINE
8
BLACK
6
CONTINUOUS
10
135.6299999999999955
20
-96.5150000000000006
11
136.1399999999999864
21
-96.5150000000000006
0
LINE
8
BLACK
6
CONTINUOUS
10
136.1399999999999864
20
-96.5150000000000006
11
136.1629609999999957
21
-96.519566999999995
0
LINE
8
BLACK
6
CONTINUOUS
10
136.1629609999999957
20
-96.519566999999995
11
136.19543299999998
21
-96.5520389999999935
0
LINE
8
BLACK
6
CONTINUOUS
10
136.19543299999998
20
-96.5520389999999935
11
136.19543299999998
21
-96.597960999999998
0
LINE
8
BLACK
6
CONTINUOUS
10
136.19543299999998
20
-96.597960999999998
11
136.1629609999999957
21
-96.6304329999999965
0
LINE
8
BLACK
6
CONTINUOUS
10
136.1629609999999957
20
-96.6304329999999965
11
136.1399999999999864
21
-96.6349999999999909
0
LINE
8
BLACK
6
CONTINUOUS
10
136.1399999999999864
20
-96.6349999999999909
11
135.5699999999999932
21
-96.6349999999999909
0
LINE
8
BLACK
6
CONTINUOUS
10
135.5699999999999932
20
-96.6349999999999909
11
135.5470389999999838
21
-96.6304329999999965
0
LINE
8
BLACK
6
CONTINUOUS
10
135.5470389999999838
20
-96.6304329999999965
11
135.5145669999999996
21
-96.597960999999998
0
LINE
8
BLACK
6
CONTINUOUS
10
135.5145669999999996
20
-96.597960999999998
11
135.5099999999999909
21
-96.5749999999999886
0
LINE
8
BLACK
6
CONTINUOUS
10
135.5099999999999909
20
-96.5749999999999886
11
135.5099999999999909
21
-91.375
0
LINE
8
BLACK
6
CONTINUOUS
10
135.5099999999999909
20
-91.375
11
135.5145669999999996
21
-91.3520389999999907
0
LINE
8
BLACK
6
CONTINUOUS
10
135.5145669999999996
20
-91.3520389999999907
11
135.5470389999999838
21
-91.3195669999999922
0
LINE
8
BLACK
6
CONTINUOUS
10
135.5470389999999838
20
-91.3195669999999922
11
135.5699999999999932
21
-91.3149999999999977
0
LINE
8
BLACK
6
CONTINUOUS
10
135.5699999999999932
20
-91.3149999999999977
11
136.1399999999999864
21
-91.3149999999999977
0
LINE
8
BLACK
6
CONTINUOUS
10
136.1399999999999864
20
-91.3149999999999977
11
136.1629609999999957
21
-91.3195669999999922
0
LINE
8
BLACK
6
CONTINUOUS
10
138.7029609999999877
20
-96.519566999999995
11
138.7354330000000004
21
-96.5520389999999935
0
LINE
8
BLACK
6
CONTINUOUS
10
138.7354330000000004
20
-96.5520389999999935
11
138.7354330000000004
21
-96.597960999999998
0
LINE
8
BLACK
6
CONTINUOUS
10
138.7354330000000004
20
-96.597960999999998
11
138.7029609999999877
21
-96.6304329999999965
0
LINE
8
BLACK
6
CONTINUOUS
10
138.7029609999999877
20
-96.6304329999999965
11
138.6800000000000068
21
-96.6349999999999909
0
LINE
8
BLACK
6
CONTINUOUS
10
138.6800000000000068
20
-96.6349999999999909
11
137.6599999999999966
21
-96.6349999999999909
0
LINE
8
BLACK
6
CONTINUOUS
10
137.6599999999999966
20
-96.6349999999999909
11
137.6370389999999873
21
-96.6304329999999965
0
LINE
8
BLACK
6
CONTINUOUS
10
137.6370389999999873
20
-96.6304329999999965
11
137.604567000000003
21
-96.597960999999998
0
LINE
8
BLACK
6
CONTINUOUS
10
137.604567000000003
20
-96.597960999999998
11
137.604567000000003
21
-96.5520389999999935
0
LINE
8
BLACK
6
CONTINUOUS
10
137.604567000000003
20
-96.5520389999999935
11
137.6370389999999873
21
-96.519566999999995
0
LINE
8
BLACK
6
CONTINUOUS
10
137.6370389999999873
20
-96.519566999999995
11
137.6599999999999966
21
-96.5150000000000006
0
LINE
8
BLACK
6
CONTINUOUS
10
137.6599999999999966
20
-96.5150000000000006
11
138.6800000000000068
21
-96.5150000000000006
0
LINE
8
BLACK
6
CONTINUOUS
10
138.6800000000000068
20
-96.5150000000000006
11
138.7029609999999877
21
-96.519566999999995
0
LINE
8
BLACK
6
CONTINUOUS
10
141.2429609999999798
20
-96.519566999999995
11
141.2754329999999925
21
-96.5520389999999935
0
LINE
8
BLACK
6
CONTINUOUS
10
141.2754329999999925
20
-96.5520389999999935
11
141.2754329999999925
21
-96.597960999999998
0
LINE
8
BLACK
6
CONTINUOUS
10
141.2754329999999925
20
-96.597960999999998
11
141.2429609999999798
21
-96.6304329999999965
0
LINE
8
BLACK
6
CONTINUOUS
10
141.2429609999999798
20
-96.6304329999999965
11
141.2199999999999989
21
-96.6349999999999909
0
LINE
8
BLACK
6
CONTINUOUS
10
141.2199999999999989
20
-96.6349999999999909
11
140.1999999999999886
21
-96.6349999999999909
0
LINE
8
BLACK
6
CONTINUOUS
10
140.1999999999999886
20
-96.6349999999999909
11
140.1770390000000077
21
-96.6304329999999965
0
LINE
8
BLACK
6
CONTINUOUS
10
140.1770390000000077
20
-96.6304329999999965
11
140.144566999999995
21
-96.597960999999998
0
LINE
8
BLACK
6
CONTINUOUS
10
140.144566999999995
20
-96.597960999999998
11
140.144566999999995
21
-96.5520389999999935
0
LINE
8
BLACK
6
CONTINUOUS
10
140.144566999999995
20
-96.5520389999999935
11
140.1770390000000077
21
-96.519566999999995
0
LINE
8
BLACK
6
CONTINUOUS
10
140.1770390000000077
20
-96.519566999999995
11
140.1999999999999886
21
-96.5150000000000006
0
LINE
8
BLACK
6
CONTINUOUS
10
140.1999999999999886
20
-96.5150000000000006
11
141.2199999999999989
21
-96.5150000000000006
0
LINE
8
BLACK
6
CONTINUOUS
10
141.2199999999999989
20
-96.5150000000000006
11
141.2429609999999798
21
-96.519566999999995
0
LINE
8
BLACK
6
CONTINUOUS
10
143.7829610000000002
20
-96.519566999999995
11
143.8154329999999845
21
-96.5520389999999935
0
LINE
8
BLACK
6
CONTINUOUS
10
143.8154329999999845
20
-96.5520389999999935
11
143.8154329999999845
21
-96.597960999999998
0
LINE
8
BLACK
6
CONTINUOUS
10
143.8154329999999845
20
-96.597960999999998
11
143.7829610000000002
21
-96.6304329999999965
0
LINE
8
BLACK
6
CONTINUOUS
10
143.7829610000000002
20
-96.6304329999999965
11
143.7599999999999909
21
-96.6349999999999909
0
LINE
8
BLACK
6
CONTINUOUS
10
143.7599999999999909
20
-96.6349999999999909
11
142.7399999999999807
21
-96.6349999999999909
0
LINE
8
BLACK
6
CONTINUOUS
10
142.7399999999999807
20
-96.6349999999999909
11
142.7170389999999998
21
-96.6304329999999965
0
LINE
8
BLACK
6
CONTINUOUS
10
142.7170389999999998
20
-96.6304329999999965
11
142.684566999999987
21
-96.597960999999998
0
LINE
8
BLACK
6
CONTINUOUS
10
142.684566999999987
20
-96.597960999999998
11
142.684566999999987
21
-96.5520389999999935
0
LINE
8
BLACK
6
CONTINUOUS
10
142.684566999999987
20
-96.5520389999999935
11
142.7170389999999998
21
-96.519566999999995
0
LINE
8
BLACK
6
CONTINUOUS
10
142.7170389999999998
20
-96.519566999999995
11
142.7399999999999807
21
-96.5150000000000006
0
LINE
8
BLACK
6
CONTINUOUS
10
142.7399999999999807
20
-96.5150000000000006
11
143.7599999999999909
21
-96.5150000000000006
0
LINE
8
BLACK
6
CONTINUOUS
10
143.7599999999999909
20
-96.5150000000000006
11
143.7829610000000002
21
-96.519566999999995
0
LINE
8
BLACK
6
CONTINUOUS
10
146.3229609999999923
20
-96.519566999999995
11
146.355433000000005
21
-96.5520389999999935
0
LINE
8
BLACK
6
CONTINUOUS
10
146.355433000000005
20
-96.5520389999999935
11
146.355433000000005
21
-96.597960999999998
0
LINE
8
BLACK
6
CONTINUOUS
10
146.355433000000005
20
-96.597960999999998
11
146.3229609999999923
21
-96.6304329999999965
0
LINE
8
BLACK
6
CONTINUOUS
10
146.3229609999999923
20
-96.6304329999999965
11
146.2999999999999829
21
-96.6349999999999909
0
LINE
8
BLACK
6
CONTINUOUS
10
146.2999999999999829
20
-96.6349999999999909
11
145.2800000000000011
21
-96.6349999999999909
0
LINE
8
BLACK
6
CONTINUOUS
10
145.2800000000000011
20
-96.6349999999999909
11
145.2570389999999918
21
-96.6304329999999965
0
LINE
8
BLACK
6
CONTINUOUS
10
145.2570389999999918
20
-96.6304329999999965
11
145.2245670000000075
21
-96.597960999999998
0
LINE
8
BLACK
6
CONTINUOUS
10
145.2245670000000075
20
-96.597960999999998
11
145.2245670000000075
21
-96.5520389999999935
0
LINE
8
BLACK
6
CONTINUOUS
10
145.2245670000000075
20
-96.5520389999999935
11
145.2570389999999918
21
-96.519566999999995
0
LINE
8
BLACK
6
CONTINUOUS
10
145.2570389999999918
20
-96.519566999999995
11
145.2800000000000011
21
-96.5150000000000006
0
LINE
8
BLACK
6
CONTINUOUS
10
145.2800000000000011
20
-96.5150000000000006
11
146.2999999999999829
21
-96.5150000000000006
0
LINE
8
BLACK
6
CONTINUOUS
10
146.2999999999999829
20
-96.5150000000000006
11
146.3229609999999923
21
-96.519566999999995
0
LINE
8
BLACK
6
CONTINUOUS
10
148.8629609999999843
20
-96.519566999999995
11
148.895432999999997
21
-96.5520389999999935
0
LINE
8
BLACK
6
CONTINUOUS
10
148.895432999999997
20
-96.5520389999999935
11
148.895432999999997
21
-96.597960999999998
0
LINE
8
BLACK
6
CONTINUOUS
10
148.895432999999997
20
-96.597960999999998
11
148.8629609999999843
21
-96.6304329999999965
0
LINE
8
BLACK
6
CONTINUOUS
10
148.8629609999999843
20
-96.6304329999999965
11
148.8400000000000034
21
-96.6349999999999909
0
LINE
8
BLACK
6
CONTINUOUS
10
148.8400000000000034
20
-96.6349999999999909
11
147.8199999999999932
21
-96.6349999999999909
0
LINE
8
BLACK
6
CONTINUOUS
10
147.8199999999999932
20
-96.6349999999999909
11
147.7970389999999838
21
-96.6304329999999965
0
LINE
8
BLACK
6
CONTINUOUS
10
147.7970389999999838
20
-96.6304329999999965
11
147.7645669999999996
21
-96.597960999999998
0
LINE
8
BLACK
6
CONTINUOUS
10
147.7645669999999996
20
-96.597960999999998
11
147.7645669999999996
21
-96.5520389999999935
0
LINE
8
BLACK
6
CONTINUOUS
10
147.7645669999999996
20
-96.5520389999999935
11
147.7970389999999838
21
-96.519566999999995
0
LINE
8
BLACK
6
CONTINUOUS
10
147.7970389999999838
20
-96.519566999999995
11
147.8199999999999932
21
-96.5150000000000006
0
LINE
8
BLACK
6
CONTINUOUS
10
147.8199999999999932
20
-96.5150000000000006
11
148.8400000000000034
21
-96.5150000000000006
0
LINE
8
BLACK
6
CONTINUOUS
10
148.8400000000000034
20
-96.5150000000000006
11
148.8629609999999843
21
-96.519566999999995
0
LINE
8
BLACK
6
CONTINUOUS
10
151.4029610000000048
20
-96.519566999999995
11
151.4354329999999891
21
-96.5520389999999935
0
LINE
8
BLACK
6
CONTINUOUS
10
151.4354329999999891
20
-96.5520389999999935
11
151.4354329999999891
21
-96.597960999999998
0
LINE
8
BLACK
6
CONTINUOUS
10
151.4354329999999891
20
-96.597960999999998
11
151.4029610000000048
21
-96.6304329999999965
0
LINE
8
BLACK
6
CONTINUOUS
10
151.4029610000000048
20
-96.6304329999999965
11
151.3799999999999955
21
-96.6349999999999909
0
LINE
8
BLACK
6
CONTINUOUS
10
151.3799999999999955
20
-96.6349999999999909
11
150.3599999999999852
21
-96.6349999999999909
0
LINE
8
BLACK
6
CONTINUOUS
10
150.3599999999999852
20
-96.6349999999999909
11
150.3370390000000043
21
-96.6304329999999965
0
LINE
8
BLACK
6
CONTINUOUS
10
150.3370390000000043
20
-96.6304329999999965
11
150.3045669999999916
21
-96.597960999999998
0
LINE
8
BLACK
6
CONTINUOUS
10
150.3045669999999916
20
-96.597960999999998
11
150.3045669999999916
21
-96.5520389999999935
0
LINE
8
BLACK
6
CONTINUOUS
10
150.3045669999999916
20
-96.5520389999999935
11
150.3370390000000043
21
-96.519566999999995
0
LINE
8
BLACK
6
CONTINUOUS
10
150.3370390000000043
20
-96.519566999999995
11
150.3599999999999852
21
-96.5150000000000006
0
LINE
8
BLACK
6
CONTINUOUS
10
150.3599999999999852
20
-96.5150000000000006
11
151.3799999999999955
21
-96.5150000000000006
0
LINE
8
BLACK
6
CONTINUOUS
10
151.3799999999999955
20
-96.5150000000000006
11
151.4029610000000048
21
-96.519566999999995
0
LINE
8
BLACK
6
CONTINUOUS
10
153.9429609999999968
20
-96.519566999999995
11
153.9754329999999811
21
-96.5520389999999935
0
LINE
8
BLACK
6
CONTINUOUS
10
153.9754329999999811
20
-96.5520389999999935
11
153.9754329999999811
21
-96.597960999999998
0
LINE
8
BLACK
6
CONTINUOUS
10
153.9754329999999811
20
-96.597960999999998
11
153.9429609999999968
21
-96.6304329999999965
0
LINE
8
BLACK
6
CONTINUOUS
10
153.9429609999999968
20
-96.6304329999999965
11
153.9199999999999875
21
-96.6349999999999909
0
LINE
8
BLACK
6
CONTINUOUS
10
153.9199999999999875
20
-96.6349999999999909
11
152.9000000000000057
21
-96.6349999999999909
0
LINE
8
BLACK
6
CONTINUOUS
10
152.9000000000000057
20
-96.6349999999999909
11
152.8770389999999963
21
-96.6304329999999965
0
LINE
8
BLACK
6
CONTINUOUS
10
152.8770389999999963
20
-96.6304329999999965
11
152.8445669999999836
21
-96.597960999999998
0
LINE
8
BLACK
6
CONTINUOUS
10
152.8445669999999836
20
-96.597960999999998
11
152.8445669999999836
21
-96.5520389999999935
0
LINE
8
BLACK
6
CONTINUOUS
10
152.8445669999999836
20
-96.5520389999999935
11
152.8770389999999963
21
-96.519566999999995
0
LINE
8
BLACK
6
CONTINUOUS
10
152.8770389999999963
20
-96.519566999999995
11
152.9000000000000057
21
-96.5150000000000006
0
LINE
8
BLACK
6
CONTINUOUS
10
152.9000000000000057
20
-96.5150000000000006
11
153.9199999999999875
21
-96.5150000000000006
0
LINE
8
BLACK
6
CONTINUOUS
10
153.9199999999999875
20
-96.5150000000000006
11
153.9429609999999968
21
-96.519566999999995
0
LINE
8
BLACK
6
CONTINUOUS
10
156.4829609999999889
20
-96.519566999999995
11
156.5154330000000016
21
-96.5520389999999935
0
LINE
8
BLACK
6
CONTINUOUS
10
156.5154330000000016
20
-96.5520389999999935
11
156.5154330000000016
21
-96.597960999999998
0
LINE
8
BLACK
6
CONTINUOUS
10
156.5154330000000016
20
-96.597960999999998
11
156.4829609999999889
21
-96.6304329999999965
0
LINE
8
BLACK
6
CONTINUOUS
10
156.4829609999999889
20
-96.6304329999999965
11
156.4599999999999795
21
-96.6349999999999909
0
LINE
8
BLACK
6
CONTINUOUS
10
156.4599999999999795
20
-96.6349999999999909
11
155.4399999999999977
21
-96.6349999999999909
0
LINE
8
BLACK
6
CONTINUOUS
10
155.4399999999999977
20
-96.6349999999999909
11
155.4170389999999884
21
-96.6304329999999965
0
LINE
8
BLACK
6
CONTINUOUS
10
155.4170389999999884
20
-96.6304329999999965
11
155.3845670000000041
21
-96.597960999999998
0
LINE
8
BLACK
6
CONTINUOUS
10
155.3845670000000041
20
-96.597960999999998
11
155.3845670000000041
21
-96.5520389999999935
0
LINE
8
BLACK
6
CONTINUOUS
10
155.3845670000000041
20
-96.5520389999999935
11
155.4170389999999884
21
-96.519566999999995
0
LINE
8
BLACK
6
CONTINUOUS
10
155.4170389999999884
20
-96.519566999999995
11
155.4399999999999977
21
-96.5150000000000006
0
LINE
8
BLACK
6
CONTINUOUS
10
155.4399999999999977
20
-96.5150000000000006
11
156.4599999999999795
21
-96.5150000000000006
0
LINE
8
BLACK
6
CONTINUOUS
10
156.4599999999999795
20
-96.5150000000000006
11
156.4829609999999889
21
-96.519566999999995
0
LINE
8
BLACK
6
CONTINUOUS
10
159.0229609999999809
20
-96.519566999999995
11
159.0554329999999936
21
-96.5520389999999935
0
LINE
8
BLACK
6
CONTINUOUS
10
159.0554329999999936
20
-96.5520389999999935
11
159.0554329999999936
21
-96.597960999999998
0
LINE
8
BLACK
6
CONTINUOUS
10
159.0554329999999936
20
-96.597960999999998
11
159.0229609999999809
21
-96.6304329999999965
0
LINE
8
BLACK
6
CONTINUOUS
10
159.0229609999999809
20
-96.6304329999999965
11
159.
21
-96.6349999999999909
0
LINE
8
BLACK
6
CONTINUOUS
10
159.
20
-96.6349999999999909
11
157.9799999999999898
21
-96.6349999999999909
0
LINE
8
BLACK
6
CONTINUOUS
10
157.9799999999999898
20
-96.6349999999999909
11
157.9570389999999804
21
-96.6304329999999965
0
LINE
8
BLACK
6
CONTINUOUS
10
157.9570389999999804
20
-96.6304329999999965
11
157.9245669999999961
21
-96.597960999999998
0
LINE
8
BLACK
6
CONTINUOUS
10
157.9245669999999961
20
-96.597960999999998
11
157.9245669999999961
21
-96.5520389999999935
0
LINE
8
BLACK
6
CONTINUOUS
10
157.9245669999999961
20
-96.5520389999999935
11
157.9570389999999804
21
-96.519566999999995
0
LINE
8
BLACK
6
CONTINUOUS
10
157.9570389999999804
20
-96.519566999999995
11
157.9799999999999898
21
-96.5150000000000006
0
LINE
8
BLACK
6
CONTINUOUS
10
157.9799999999999898
20
-96.5150000000000006
11
159.
21
-96.5150000000000006
0
LINE
8
BLACK
6
CONTINUOUS
10
159.
20
-96.5150000000000006
11
159.0229609999999809
21
-96.519566999999995
0
LINE
8
BLACK
6
CONTINUOUS
10
161.5629610000000014
20
-96.519566999999995
11
161.5954329999999857
21
-96.5520389999999935
0
LINE
8
BLACK
6
CONTINUOUS
10
161.5954329999999857
20
-96.5520389999999935
11
161.5954329999999857
21
-96.597960999999998
0
LINE
8
BLACK
6
CONTINUOUS
10
161.5954329999999857
20
-96.597960999999998
11
161.5629610000000014
21
-96.6304329999999965
0
LINE
8
BLACK
6
CONTINUOUS
10
161.5629610000000014
20
-96.6304329999999965
11
161.539999999999992
21
-96.6349999999999909
0
LINE
8
BLACK
6
CONTINUOUS
10
161.539999999999992
20
-96.6349999999999909
11
160.5199999999999818
21
-96.6349999999999909
0
LINE
8
BLACK
6
CONTINUOUS
10
160.5199999999999818
20
-96.6349999999999909
11
160.4970390000000009
21
-96.6304329999999965
0
LINE
8
BLACK
6
CONTINUOUS
10
160.4970390000000009
20
-96.6304329999999965
11
160.4645669999999882
21
-96.597960999999998
0
LINE
8
BLACK
6
CONTINUOUS
10
160.4645669999999882
20
-96.597960999999998
11
160.4645669999999882
21
-96.5520389999999935
0
LINE
8
BLACK
6
CONTINUOUS
10
160.4645669999999882
20
-96.5520389999999935
11
160.4970390000000009
21
-96.519566999999995
0
LINE
8
BLACK
6
CONTINUOUS
10
160.4970390000000009
20
-96.519566999999995
11
160.5199999999999818
21
-96.5150000000000006
0
LINE
8
BLACK
6
CONTINUOUS
10
160.5199999999999818
20
-96.5150000000000006
11
161.539999999999992
21
-96.5150000000000006
0
LINE
8
BLACK
6
CONTINUOUS
10
161.539999999999992
20
-96.5150000000000006
11
161.5629610000000014
21
-96.519566999999995
0
LINE
8
BLACK
6
CONTINUOUS
10
164.1029609999999934
20
-96.519566999999995
11
164.1354330000000061
21
-96.5520389999999935
0
LINE
8
BLACK
6
CONTINUOUS
10
164.1354330000000061
20
-96.5520389999999935
11
164.1354330000000061
21
-96.597960999999998
0
LINE
8
BLACK
6
CONTINUOUS
10
164.1354330000000061
20
-96.597960999999998
11
164.1029609999999934
21
-96.6304329999999965
0
LINE
8
BLACK
6
CONTINUOUS
10
164.1029609999999934
20
-96.6304329999999965
11
164.0799999999999841
21
-96.6349999999999909
0
LINE
8
BLACK
6
CONTINUOUS
10
164.0799999999999841
20
-96.6349999999999909
11
163.0600000000000023
21
-96.6349999999999909
0
LINE
8
BLACK
6
CONTINUOUS
10
163.0600000000000023
20
-96.6349999999999909
11
163.0370389999999929
21
-96.6304329999999965
0
LINE
8
BLACK
6
CONTINUOUS
10
163.0370389999999929
20
-96.6304329999999965
11
163.0045669999999802
21
-96.597960999999998
0
LINE
8
BLACK
6
CONTINUOUS
10
163.0045669999999802
20
-96.597960999999998
11
163.0045669999999802
21
-96.5520389999999935
0
LINE
8
BLACK
6
CONTINUOUS
10
163.0045669999999802
20
-96.5520389999999935
11
163.0370389999999929
21
-96.519566999999995
0
LINE
8
BLACK
6
CONTINUOUS
10
163.0370389999999929
20
-96.519566999999995
11
163.0600000000000023
21
-96.5150000000000006
0
LINE
8
BLACK
6
CONTINUOUS
10
163.0600000000000023
20
-96.5150000000000006
11
164.0799999999999841
21
-96.5150000000000006
0
LINE
8
BLACK
6
CONTINUOUS
10
164.0799999999999841
20
-96.5150000000000006
11
164.1029609999999934
21
-96.519566999999995
0
LINE
8
BLACK
6
CONTINUOUS
10
166.6429609999999855
20
-96.519566999999995
11
166.6754329999999982
21
-96.5520389999999935
0
LINE
8
BLACK
6
CONTINUOUS
10
166.6754329999999982
20
-96.5520389999999935
11
166.6754329999999982
21
-96.597960999999998
0
LINE
8
BLACK
6
CONTINUOUS
10
166.6754329999999982
20
-96.597960999999998
11
166.6429609999999855
21
-96.6304329999999965
0
LINE
8
BLACK
6
CONTINUOUS
10
166.6429609999999855
20
-96.6304329999999965
11
166.6200000000000045
21
-96.6349999999999909
0
LINE
8
BLACK
6
CONTINUOUS
10
166.6200000000000045
20
-96.6349999999999909
11
165.5999999999999943
21
-96.6349999999999909
0
LINE
8
BLACK
6
CONTINUOUS
10
165.5999999999999943
20
-96.6349999999999909
11
165.577038999999985
21
-96.6304329999999965
0
LINE
8
BLACK
6
CONTINUOUS
10
165.577038999999985
20
-96.6304329999999965
11
165.5445670000000007
21
-96.597960999999998
0
LINE
8
BLACK
6
CONTINUOUS
10
165.5445670000000007
20
-96.597960999999998
11
165.5445670000000007
21
-96.5520389999999935
0
LINE
8
BLACK
6
CONTINUOUS
10
165.5445670000000007
20
-96.5520389999999935
11
165.577038999999985
21
-96.519566999999995
0
LINE
8
BLACK
6
CONTINUOUS
10
165.577038999999985
20
-96.519566999999995
11
165.5999999999999943
21
-96.5150000000000006
0
LINE
8
BLACK
6
CONTINUOUS
10
165.5999999999999943
20
-96.5150000000000006
11
166.6200000000000045
21
-96.5150000000000006
0
LINE
8
BLACK
6
CONTINUOUS
10
166.6200000000000045
20
-96.5150000000000006
11
166.6429609999999855
21
-96.519566999999995
0
LINE
8
BLACK
6
CONTINUOUS
10
169.1829610000000059
20
-96.519566999999995
11
169.2154329999999902
21
-96.5520389999999935
0
LINE
8
BLACK
6
CONTINUOUS
10
169.2154329999999902
20
-96.5520389999999935
11
169.2154329999999902
21
-96.597960999999998
0
LINE
8
BLACK
6
CONTINUOUS
10
169.2154329999999902
20
-96.597960999999998
11
169.1829610000000059
21
-96.6304329999999965
0
LINE
8
BLACK
6
CONTINUOUS
10
169.1829610000000059
20
-96.6304329999999965
11
169.1599999999999966
21
-96.6349999999999909
0
LINE
8
BLACK
6
CONTINUOUS
10
169.1599999999999966
20
-96.6349999999999909
11
168.1399999999999864
21
-96.6349999999999909
0
LINE
8
BLACK
6
CONTINUOUS
10
168.1399999999999864
20
-96.6349999999999909
11
168.1170390000000054
21
-96.6304329999999965
0
LINE
8
BLACK
6
CONTINUOUS
10
168.1170390000000054
20
-96.6304329999999965
11
168.0845669999999927
21
-96.597960999999998
0
LINE
8
BLACK
6
CONTINUOUS
10
168.0845669999999927
20
-96.597960999999998
11
168.0845669999999927
21
-96.5520389999999935
0
LINE
8
BLACK
6
CONTINUOUS
10
168.0845669999999927
20
-96.5520389999999935
11
168.1170390000000054
21
-96.519566999999995
0
LINE
8
BLACK
6
CONTINUOUS
10
168.1170390000000054
20
-96.519566999999995
11
168.1399999999999864
21
-96.5150000000000006
0
LINE
8
BLACK
6
CONTINUOUS
10
168.1399999999999864
20
-96.5150000000000006
11
169.1599999999999966
21
-96.5150000000000006
0
LINE
8
BLACK
6
CONTINUOUS
10
169.1599999999999966
20
-96.5150000000000006
11
169.1829610000000059
21
-96.519566999999995
0
LINE
8
BLACK
6
CONTINUOUS
10
171.722960999999998
20
-96.519566999999995
11
171.7554329999999823
21
-96.5520389999999935
0
LINE
8
BLACK
6
CONTINUOUS
10
171.7554329999999823
20
-96.5520389999999935
11
171.7554329999999823
21
-96.597960999999998
0
LINE
8
BLACK
6
CONTINUOUS
10
171.7554329999999823
20
-96.597960999999998
11
171.722960999999998
21
-96.6304329999999965
0
LINE
8
BLACK
6
CONTINUOUS
10
171.722960999999998
20
-96.6304329999999965
11
171.6999999999999886
21
-96.6349999999999909
0
LINE
8
BLACK
6
CONTINUOUS
10
171.6999999999999886
20
-96.6349999999999909
11
170.6799999999999784
21
-96.6349999999999909
0
LINE
8
BLACK
6
CONTINUOUS
10
170.6799999999999784
20
-96.6349999999999909
11
170.6570389999999975
21
-96.6304329999999965
0
LINE
8
BLACK
6
CONTINUOUS
10
170.6570389999999975
20
-96.6304329999999965
11
170.6245669999999848
21
-96.597960999999998
0
LINE
8
BLACK
6
CONTINUOUS
10
170.6245669999999848
20
-96.597960999999998
11
170.6245669999999848
21
-96.5520389999999935
0
LINE
8
BLACK
6
CONTINUOUS
10
170.6245669999999848
20
-96.5520389999999935
11
170.6570389999999975
21
-96.519566999999995
0
LINE
8
BLACK
6
CONTINUOUS
10
170.6570389999999975
20
-96.519566999999995
11
170.6799999999999784
21
-96.5150000000000006
0
LINE
8
BLACK
6
CONTINUOUS
10
170.6799999999999784
20
-96.5150000000000006
11
171.6999999999999886
21
-96.5150000000000006
0
LINE
8
BLACK
6
CONTINUOUS
10
171.6999999999999886
20
-96.5150000000000006
11
171.722960999999998
21
-96.519566999999995
0
LINE
8
BLACK
6
CONTINUOUS
10
174.26296099999999
20
-96.519566999999995
11
174.2954330000000027
21
-96.5520389999999935
0
LINE
8
BLACK
6
CONTINUOUS
10
174.2954330000000027
20
-96.5520389999999935
11
174.2954330000000027
21
-96.597960999999998
0
LINE
8
BLACK
6
CONTINUOUS
10
174.2954330000000027
20
-96.597960999999998
11
174.26296099999999
21
-96.6304329999999965
0
LINE
8
BLACK
6
CONTINUOUS
10
174.26296099999999
20
-96.6304329999999965
11
174.2399999999999807
21
-96.6349999999999909
0
LINE
8
BLACK
6
CONTINUOUS
10
174.2399999999999807
20
-96.6349999999999909
11
173.2199999999999989
21
-96.6349999999999909
0
LINE
8
BLACK
6
CONTINUOUS
10
173.2199999999999989
20
-96.6349999999999909
11
173.1970389999999895
21
-96.6304329999999965
0
LINE
8
BLACK
6
CONTINUOUS
10
173.1970389999999895
20
-96.6304329999999965
11
173.1645670000000052
21
-96.597960999999998
0
LINE
8
BLACK
6
CONTINUOUS
10
173.1645670000000052
20
-96.597960999999998
11
173.1645670000000052
21
-96.5520389999999935
0
LINE
8
BLACK
6
CONTINUOUS
10
173.1645670000000052
20
-96.5520389999999935
11
173.1970389999999895
21
-96.519566999999995
0
LINE
8
BLACK
6
CONTINUOUS
10
173.1970389999999895
20
-96.519566999999995
11
173.2199999999999989
21
-96.5150000000000006
0
LINE
8
BLACK
6
CONTINUOUS
10
173.2199999999999989
20
-96.5150000000000006
11
174.2399999999999807
21
-96.5150000000000006
0
LINE
8
BLACK
6
CONTINUOUS
10
174.2399999999999807
20
-96.5150000000000006
11
174.26296099999999
21
-96.519566999999995
0
LINE
8
BLACK
6
CONTINUOUS
10
175.8154329999999845
20
-89.9120389999999929
11
175.8199999999999932
21
-89.9350000000000023
0
LINE
8
BLACK
6
CONTINUOUS
10
175.8199999999999932
20
-89.9350000000000023
11
175.8199999999999932
21
-91.3149999999999977
0
LINE
8
BLACK
6
CONTINUOUS
10
175.8199999999999932
20
-91.3149999999999977
11
176.3299999999999841
21
-91.3149999999999977
0
LINE
8
BLACK
6
CONTINUOUS
10
176.3299999999999841
20
-91.3149999999999977
11
176.3529609999999934
21
-91.3195669999999922
0
LINE
8
BLACK
6
CONTINUOUS
10
176.3529609999999934
20
-91.3195669999999922
11
176.3854330000000061
21
-91.3520389999999907
0
LINE
8
BLACK
6
CONTINUOUS
10
176.3854330000000061
20
-91.3520389999999907
11
176.3899999999999864
21
-91.375
0
LINE
8
BLACK
6
CONTINUOUS
10
176.3899999999999864
20
-91.375
11
176.3899999999999864
21
-96.5749999999999886
0
LINE
8
BLACK
6
CONTINUOUS
10
176.3899999999999864
20
-96.5749999999999886
11
176.3854330000000061
21
-96.597960999999998
0
LINE
8
BLACK
6
CONTINUOUS
10
176.3854330000000061
20
-96.597960999999998
11
176.3529609999999934
21
-96.6304329999999965
0
LINE
8
BLACK
6
CONTINUOUS
10
176.3529609999999934
20
-96.6304329999999965
11
176.3299999999999841
21
-96.6349999999999909
0
LINE
8
BLACK
6
CONTINUOUS
10
176.3299999999999841
20
-96.6349999999999909
11
175.7599999999999909
21
-96.6349999999999909
0
LINE
8
BLACK
6
CONTINUOUS
10
175.7599999999999909
20
-96.6349999999999909
11
175.7370389999999816
21
-96.6304329999999965
0
LINE
8
BLACK
6
CONTINUOUS
10
175.7370389999999816
20
-96.6304329999999965
11
175.7045669999999973
21
-96.597960999999998
0
LINE
8
BLACK
6
CONTINUOUS
10
175.7045669999999973
20
-96.597960999999998
11
175.7045669999999973
21
-96.5520389999999935
0
LINE
8
BLACK
6
CONTINUOUS
10
175.7045669999999973
20
-96.5520389999999935
11
175.7370389999999816
21
-96.519566999999995
0
LINE
8
BLACK
6
CONTINUOUS
10
175.7370389999999816
20
-96.519566999999995
11
175.7599999999999909
21
-96.5150000000000006
0
LINE
8
BLACK
6
CONTINUOUS
10
175.7599999999999909
20
-96.5150000000000006
11
176.2699999999999818
21
-96.5150000000000006
0
LINE
8
BLACK
6
CONTINUOUS
10
176.2699999999999818
20
-96.5150000000000006
11
176.2699999999999818
21
-91.4350000000000023
0
LINE
8
BLACK
6
CONTINUOUS
10
176.2699999999999818
20
-91.4350000000000023
11
175.7599999999999909
21
-91.4350000000000023
0
LINE
8
BLACK
6
CONTINUOUS
10
175.7599999999999909
20
-91.4350000000000023
11
175.7370389999999816
21
-91.4304329999999936
0
LINE
8
BLACK
6
CONTINUOUS
10
175.7370389999999816
20
-91.4304329999999936
11
175.7045669999999973
21
-91.3979609999999951
0
LINE
8
BLACK
6
CONTINUOUS
10
175.7045669999999973
20
-91.3979609999999951
11
175.6999999999999886
21
-91.375
0
LINE
8
BLACK
6
CONTINUOUS
10
175.6999999999999886
20
-91.375
11
175.6999999999999886
21
-89.9350000000000023
0
LINE
8
BLACK
6
CONTINUOUS
10
175.6999999999999886
20
-89.9350000000000023
11
175.7045669999999973
21
-89.9120389999999929
0
LINE
8
BLACK
6
CONTINUOUS
10
175.7045669999999973
20
-89.9120389999999929
11
175.7370389999999816
21
-89.8795669999999944
0
LINE
8
BLACK
6
CONTINUOUS
10
175.7370389999999816
20
-89.8795669999999944
11
175.7829610000000002
21
-89.8795669999999944
0
LINE
8
BLACK
6
CONTINUOUS
10
175.7829610000000002
20
-89.8795669999999944
11
175.8154329999999845
21
-89.9120389999999929
0
LINE
8
BLACK
6
CONTINUOUS
10
138.7029609999999877
20
-91.3195669999999922
11
138.7354330000000004
21
-91.3520389999999907
0
LINE
8
BLACK
6
CONTINUOUS
10
138.7354330000000004
20
-91.3520389999999907
11
138.7354330000000004
21
-91.3979609999999951
0
LINE
8
BLACK
6
CONTINUOUS
10
138.7354330000000004
20
-91.3979609999999951
11
138.7029609999999877
21
-91.4304329999999936
0
LINE
8
BLACK
6
CONTINUOUS
10
138.7029609999999877
20
-91.4304329999999936
11
138.6800000000000068
21
-91.4350000000000023
0
LINE
8
BLACK
6
CONTINUOUS
10
138.6800000000000068
20
-91.4350000000000023
11
137.6599999999999966
21
-91.4350000000000023
0
LINE
8
BLACK
6
CONTINUOUS
10
137.6599999999999966
20
-91.4350000000000023
11
137.6370389999999873
21
-91.4304329999999936
0
LINE
8
BLACK
6
CONTINUOUS
10
137.6370389999999873
20
-91.4304329999999936
11
137.604567000000003
21
-91.3979609999999951
0
LINE
8
BLACK
6
CONTINUOUS
10
137.604567000000003
20
-91.3979609999999951
11
137.604567000000003
21
-91.3520389999999907
0
LINE
8
BLACK
6
CONTINUOUS
10
137.604567000000003
20
-91.3520389999999907
11
137.6370389999999873
21
-91.3195669999999922
0
LINE
8
BLACK
6
CONTINUOUS
10
137.6370389999999873
20
-91.3195669999999922
11
137.6599999999999966
21
-91.3149999999999977
0
LINE
8
BLACK
6
CONTINUOUS
10
137.6599999999999966
20
-91.3149999999999977
11
138.6800000000000068
21
-91.3149999999999977
0
LINE
8
BLACK
6
CONTINUOUS
10
138.6800000000000068
20
-91.3149999999999977
11
138.7029609999999877
21
-91.3195669999999922
0
LINE
8
BLACK
6
CONTINUOUS
10
141.2429609999999798
20
-91.3195669999999922
11
141.2754329999999925
21
-91.3520389999999907
0
LINE
8
BLACK
6
CONTINUOUS
10
141.2754329999999925
20
-91.3520389999999907
11
141.2754329999999925
21
-91.3979609999999951
0
LINE
8
BLACK
6
CONTINUOUS
10
141.2754329999999925
20
-91.3979609999999951
11
141.2429609999999798
21
-91.4304329999999936
0
LINE
8
BLACK
6
CONTINUOUS
10
141.2429609999999798
20
-91.4304329999999936
11
141.2199999999999989
21
-91.4350000000000023
0
LINE
8
BLACK
6
CONTINUOUS
10
141.2199999999999989
20
-91.4350000000000023
11
140.1999999999999886
21
-91.4350000000000023
0
LINE
8
BLACK
6
CONTINUOUS
10
140.1999999999999886
20
-91.4350000000000023
11
140.1770390000000077
21
-91.4304329999999936
0
LINE
8
BLACK
6
CONTINUOUS
10
140.1770390000000077
20
-91.4304329999999936
11
140.144566999999995
21
-91.3979609999999951
0
LINE
8
BLACK
6
CONTINUOUS
10
140.144566999999995
20
-91.3979609999999951
11
140.144566999999995
21
-91.3520389999999907
0
LINE
8
BLACK
6
CONTINUOUS
10
140.144566999999995
20
-91.3520389999999907
11
140.1770390000000077
21
-91.3195669999999922
0
LINE
8
BLACK
6
CONTINUOUS
10
140.1770390000000077
20
-91.3195669999999922
11
140.1999999999999886
21
-91.3149999999999977
0
LINE
8
BLACK
6
CONTINUOUS
10
140.1999999999999886
20
-91.3149999999999977
11
141.2199999999999989
21
-91.3149999999999977
0
LINE
8
BLACK
6
CONTINUOUS
10
141.2199999999999989
20
-91.3149999999999977
11
141.2429609999999798
21
-91.3195669999999922
0
LINE
8
BLACK
6
CONTINUOUS
10
143.7829610000000002
20
-91.3195669999999922
11
143.8154329999999845
21
-91.3520389999999907
0
LINE
8
BLACK
6
CONTINUOUS
10
143.8154329999999845
20
-91.3520389999999907
11
143.8154329999999845
21
-91.3979609999999951
0
LINE
8
BLACK
6
CONTINUOUS
10
143.8154329999999845
20
-91.3979609999999951
11
143.7829610000000002
21
-91.4304329999999936
0
LINE
8
BLACK
6
CONTINUOUS
10
143.7829610000000002
20
-91.4304329999999936
11
143.7599999999999909
21
-91.4350000000000023
0
LINE
8
BLACK
6
CONTINUOUS
10
143.7599999999999909
20
-91.4350000000000023
11
142.7399999999999807
21
-91.4350000000000023
0
LINE
8
BLACK
6
CONTINUOUS
10
142.7399999999999807
20
-91.4350000000000023
11
142.7170389999999998
21
-91.4304329999999936
0
LINE
8
BLACK
6
CONTINUOUS
10
142.7170389999999998
20
-91.4304329999999936
11
142.684566999999987
21
-91.3979609999999951
0
LINE
8
BLACK
6
CONTINUOUS
10
142.684566999999987
20
-91.3979609999999951
11
142.684566999999987
21
-91.3520389999999907
0
LINE
8
BLACK
6
CONTINUOUS
10
142.684566999999987
20
-91.3520389999999907
11
142.7170389999999998
21
-91.3195669999999922
0
LINE
8
BLACK
6
CONTINUOUS
10
142.7170389999999998
20
-91.3195669999999922
11
142.7399999999999807
21
-91.3149999999999977
0
LINE
8
BLACK
6
CONTINUOUS
10
142.7399999999999807
20
-91.3149999999999977
11
143.7599999999999909
21
-91.3149999999999977
0
LINE
8
BLACK
6
CONTINUOUS
10
143.7599999999999909
20
-91.3149999999999977
11
143.7829610000000002
21
-91.3195669999999922
0
LINE
8
BLACK
6
CONTINUOUS
10
146.3229609999999923
20
-91.3195669999999922
11
146.355433000000005
21
-91.3520389999999907
0
LINE
8
BLACK
6
CONTINUOUS
10
146.355433000000005
20
-91.3520389999999907
11
146.355433000000005
21
-91.3979609999999951
0
LINE
8
BLACK
6
CONTINUOUS
10
146.355433000000005
20
-91.3979609999999951
11
146.3229609999999923
21
-91.4304329999999936
0
LINE
8
BLACK
6
CONTINUOUS
10
146.3229609999999923
20
-91.4304329999999936
11
146.2999999999999829
21
-91.4350000000000023
0
LINE
8
BLACK
6
CONTINUOUS
10
146.2999999999999829
20
-91.4350000000000023
11
145.2800000000000011
21
-91.4350000000000023
0
LINE
8
BLACK
6
CONTINUOUS
10
145.2800000000000011
20
-91.4350000000000023
11
145.2570389999999918
21
-91.4304329999999936
0
LINE
8
BLACK
6
CONTINUOUS
10
145.2570389999999918
20
-91.4304329999999936
11
145.2245670000000075
21
-91.3979609999999951
0
LINE
8
BLACK
6
CONTINUOUS
10
145.2245670000000075
20
-91.3979609999999951
11
145.2245670000000075
21
-91.3520389999999907
0
LINE
8
BLACK
6
CONTINUOUS
10
145.2245670000000075
20
-91.3520389999999907
11
145.2570389999999918
21
-91.3195669999999922
0
LINE
8
BLACK
6
CONTINUOUS
10
145.2570389999999918
20
-91.3195669999999922
11
145.2800000000000011
21
-91.3149999999999977
0
LINE
8
BLACK
6
CONTINUOUS
10
145.2800000000000011
20
-91.3149999999999977
11
146.2999999999999829
21
-91.3149999999999977
0
LINE
8
BLACK
6
CONTINUOUS
10
146.2999999999999829
20
-91.3149999999999977
11
146.3229609999999923
21
-91.3195669999999922
0
LINE
8
BLACK
6
CONTINUOUS
10
148.8629609999999843
20
-91.3195669999999922
11
148.895432999999997
21
-91.3520389999999907
0
LINE
8
BLACK
6
CONTINUOUS
10
148.895432999999997
20
-91.3520389999999907
11
148.895432999999997
21
-91.3979609999999951
0
LINE
8
BLACK
6
CONTINUOUS
10
148.895432999999997
20
-91.3979609999999951
11
148.8629609999999843
21
-91.4304329999999936
0
LINE
8
BLACK
6
CONTINUOUS
10
148.8629609999999843
20
-91.4304329999999936
11
148.8400000000000034
21
-91.4350000000000023
0
LINE
8
BLACK
6
CONTINUOUS
10
148.8400000000000034
20
-91.4350000000000023
11
147.8199999999999932
21
-91.4350000000000023
0
LINE
8
BLACK
6
CONTINUOUS
10
147.8199999999999932
20
-91.4350000000000023
11
147.7970389999999838
21
-91.4304329999999936
0
LINE
8
BLACK
6
CONTINUOUS
10
147.7970389999999838
20
-91.4304329999999936
11
147.7645669999999996
21
-91.3979609999999951
0
LINE
8
BLACK
6
CONTINUOUS
10
147.7645669999999996
20
-91.3979609999999951
11
147.7645669999999996
21
-91.3520389999999907
0
LINE
8
BLACK
6
CONTINUOUS
10
147.7645669999999996
20
-91.3520389999999907
11
147.7970389999999838
21
-91.3195669999999922
0
LINE
8
BLACK
6
CONTINUOUS
10
147.7970389999999838
20
-91.3195669999999922
11
147.8199999999999932
21
-91.3149999999999977
0
LINE
8
BLACK
6
CONTINUOUS
10
147.8199999999999932
20
-91.3149999999999977
11
148.8400000000000034
21
-91.3149999999999977
0
LINE
8
BLACK
6
CONTINUOUS
10
148.8400000000000034
20
-91.3149999999999977
11
148.8629609999999843
21
-91.3195669999999922
0
LINE
8
BLACK
6
CONTINUOUS
10
151.4029610000000048
20
-91.3195669999999922
11
151.4354329999999891
21
-91.3520389999999907
0
LINE
8
BLACK
6
CONTINUOUS
10
151.4354329999999891
20
-91.3520389999999907
11
151.4354329999999891
21
-91.3979609999999951
0
LINE
8
BLACK
6
CONTINUOUS
10
151.4354329999999891
20
-91.3979609999999951
11
151.4029610000000048
21
-91.4304329999999936
0
LINE
8
BLACK
6
CONTINUOUS
10
151.4029610000000048
20
-91.4304329999999936
11
151.3799999999999955
21
-91.4350000000000023
0
LINE
8
BLACK
6
CONTINUOUS
10
151.3799999999999955
20
-91.4350000000000023
11
150.3599999999999852
21
-91.4350000000000023
0
LINE
8
BLACK
6
CONTINUOUS
10
150.3599999999999852
20
-91.4350000000000023
11
150.3370390000000043
21
-91.4304329999999936
0
LINE
8
BLACK
6
CONTINUOUS
10
150.3370390000000043
20
-91.4304329999999936
11
150.3045669999999916
21
-91.3979609999999951
0
LINE
8
BLACK
6
CONTINUOUS
10
150.3045669999999916
20
-91.3979609999999951
11
150.3045669999999916
21
-91.3520389999999907
0
LINE
8
BLACK
6
CONTINUOUS
10
150.3045669999999916
20
-91.3520389999999907
11
150.3370390000000043
21
-91.3195669999999922
0
LINE
8
BLACK
6
CONTINUOUS
10
150.3370390000000043
20
-91.3195669999999922
11
150.3599999999999852
21
-91.3149999999999977
0
LINE
8
BLACK
6
CONTINUOUS
10
150.3599999999999852
20
-91.3149999999999977
11
151.3799999999999955
21
-91.3149999999999977
0
LINE
8
BLACK
6
CONTINUOUS
10
151.3799999999999955
20
-91.3149999999999977
11
151.4029610000000048
21
-91.3195669999999922
0
LINE
8
BLACK
6
CONTINUOUS
10
153.9429609999999968
20
-91.3195669999999922
11
153.9754329999999811
21
-91.3520389999999907
0
LINE
8
BLACK
6
CONTINUOUS
10
153.9754329999999811
20
-91.3520389999999907
11
153.9754329999999811
21
-91.3979609999999951
0
LINE
8
BLACK
6
CONTINUOUS
10
153.9754329999999811
20
-91.3979609999999951
11
153.9429609999999968
21
-91.4304329999999936
0
LINE
8
BLACK
6
CONTINUOUS
10
153.9429609999999968
20
-91.4304329999999936
11
153.9199999999999875
21
-91.4350000000000023
0
LINE
8
BLACK
6
CONTINUOUS
10
153.9199999999999875
20
-91.4350000000000023
11
152.9000000000000057
21
-91.4350000000000023
0
LINE
8
BLACK
6
CONTINUOUS
10
152.9000000000000057
20
-91.4350000000000023
11
152.8770389999999963
21
-91.4304329999999936
0
LINE
8
BLACK
6
CONTINUOUS
10
152.8770389999999963
20
-91.4304329999999936
11
152.8445669999999836
21
-91.3979609999999951
0
LINE
8
BLACK
6
CONTINUOUS
10
152.8445669999999836
20
-91.3979609999999951
11
152.8445669999999836
21
-91.3520389999999907
0
LINE
8
BLACK
6
CONTINUOUS
10
152.8445669999999836
20
-91.3520389999999907
11
152.8770389999999963
21
-91.3195669999999922
0
LINE
8
BLACK
6
CONTINUOUS
10
152.8770389999999963
20
-91.3195669999999922
11
152.9000000000000057
21
-91.3149999999999977
0
LINE
8
BLACK
6
CONTINUOUS
10
152.9000000000000057
20
-91.3149999999999977
11
153.9199999999999875
21
-91.3149999999999977
0
LINE
8
BLACK
6
CONTINUOUS
10
153.9199999999999875
20
-91.3149999999999977
11
153.9429609999999968
21
-91.3195669999999922
0
LINE
8
BLACK
6
CONTINUOUS
10
156.4829609999999889
20
-91.3195669999999922
11
156.5154330000000016
21
-91.3520389999999907
0
LINE
8
BLACK
6
CONTINUOUS
10
156.5154330000000016
20
-91.3520389999999907
11
156.5154330000000016
21
-91.3979609999999951
0
LINE
8
BLACK
6
CONTINUOUS
10
156.5154330000000016
20
-91.3979609999999951
11
156.4829609999999889
21
-91.4304329999999936
0
LINE
8
BLACK
6
CONTINUOUS
10
156.4829609999999889
20
-91.4304329999999936
11
156.4599999999999795
21
-91.4350000000000023
0
LINE
8
BLACK
6
CONTINUOUS
10
156.4599999999999795
20
-91.4350000000000023
11
155.4399999999999977
21
-91.4350000000000023
0
LINE
8
BLACK
6
CONTINUOUS
10
155.4399999999999977
20
-91.4350000000000023
11
155.4170389999999884
21
-91.4304329999999936
0
LINE
8
BLACK
6
CONTINUOUS
10
155.4170389999999884
20
-91.4304329999999936
11
155.3845670000000041
21
-91.3979609999999951
0
LINE
8
BLACK
6
CONTINUOUS
10
155.3845670000000041
20
-91.3979609999999951
11
155.3845670000000041
21
-91.3520389999999907
0
LINE
8
BLACK
6
CONTINUOUS
10
155.3845670000000041
20
-91.3520389999999907
11
155.4170389999999884
21
-91.3195669999999922
0
LINE
8
BLACK
6
CONTINUOUS
10
155.4170389999999884
20
-91.3195669999999922
11
155.4399999999999977
21
-91.3149999999999977
0
LINE
8
BLACK
6
CONTINUOUS
10
155.4399999999999977
20
-91.3149999999999977
11
156.4599999999999795
21
-91.3149999999999977
0
LINE
8
BLACK
6
CONTINUOUS
10
156.4599999999999795
20
-91.3149999999999977
11
156.4829609999999889
21
-91.3195669999999922
0
LINE
8
BLACK
6
CONTINUOUS
10
159.0229609999999809
20
-91.3195669999999922
11
159.0554329999999936
21
-91.3520389999999907
0
LINE
8
BLACK
6
CONTINUOUS
10
159.0554329999999936
20
-91.3520389999999907
11
159.0554329999999936
21
-91.3979609999999951
0
LINE
8
BLACK
6
CONTINUOUS
10
159.0554329999999936
20
-91.3979609999999951
11
159.0229609999999809
21
-91.4304329999999936
0
LINE
8
BLACK
6
CONTINUOUS
10
159.0229609999999809
20
-91.4304329999999936
11
159.
21
-91.4350000000000023
0
LINE
8
BLACK
6
CONTINUOUS
10
159.
20
-91.4350000000000023
11
157.9799999999999898
21
-91.4350000000000023
0
LINE
8
BLACK
6
CONTINUOUS
10
157.9799999999999898
20
-91.4350000000000023
11
157.9570389999999804
21
-91.4304329999999936
0
LINE
8
BLACK
6
CONTINUOUS
10
157.9570389999999804
20
-91.4304329999999936
11
157.9245669999999961
21
-91.3979609999999951
0
LINE
8
BLACK
6
CONTINUOUS
10
157.9245669999999961
20
-91.3979609999999951
11
157.9245669999999961
21
-91.3520389999999907
0
LINE
8
BLACK
6
CONTINUOUS
10
157.9245669999999961
20
-91.3520389999999907
11
157.9570389999999804
21
-91.3195669999999922
0
LINE
8
BLACK
6
CONTINUOUS
10
157.9570389999999804
20
-91.3195669999999922
11
157.9799999999999898
21
-91.3149999999999977
0
LINE
8
BLACK
6
CONTINUOUS
10
157.9799999999999898
20
-91.3149999999999977
11
159.
21
-91.3149999999999977
0
LINE
8
BLACK
6
CONTINUOUS
10
159.
20
-91.3149999999999977
11
159.0229609999999809
21
-91.3195669999999922
0
LINE
8
BLACK
6
CONTINUOUS
10
161.5629610000000014
20
-91.3195669999999922
11
161.5954329999999857
21
-91.3520389999999907
0
LINE
8
BLACK
6
CONTINUOUS
10
161.5954329999999857
20
-91.3520389999999907
11
161.5954329999999857
21
-91.3979609999999951
0
LINE
8
BLACK
6
CONTINUOUS
10
161.5954329999999857
20
-91.3979609999999951
11
161.5629610000000014
21
-91.4304329999999936
0
LINE
8
BLACK
6
CONTINUOUS
10
161.5629610000000014
20
-91.4304329999999936
11
161.539999999999992
21
-91.4350000000000023
0
LINE
8
BLACK
6
CONTINUOUS
10
161.539999999999992
20
-91.4350000000000023
11
160.5199999999999818
21
-91.4350000000000023
0
LINE
8
BLACK
6
CONTINUOUS
10
160.5199999999999818
20
-91.4350000000000023
11
160.4970390000000009
21
-91.4304329999999936
0
LINE
8
BLACK
6
CONTINUOUS
10
160.4970390000000009
20
-91.4304329999999936
11
160.4645669999999882
21
-91.3979609999999951
0
LINE
8
BLACK
6
CONTINUOUS
10
160.4645669999999882
20
-91.3979609999999951
11
160.4645669999999882
21
-91.3520389999999907
0
LINE
8
BLACK
6
CONTINUOUS
10
160.4645669999999882
20
-91.3520389999999907
11
160.4970390000000009
21
-91.3195669999999922
0
LINE
8
BLACK
6
CONTINUOUS
10
160.4970390000000009
20
-91.3195669999999922
11
160.5199999999999818
21
-91.3149999999999977
0
LINE
8
BLACK
6
CONTINUOUS
10
160.5199999999999818
20
-91.3149999999999977
11
161.539999999999992
21
-91.3149999999999977
0
LINE
8
BLACK
6
CONTINUOUS
10
161.539999999999992
20
-91.3149999999999977
11
161.5629610000000014
21
-91.3195669999999922
0
LINE
8
BLACK
6
CONTINUOUS
10
164.1029609999999934
20
-91.3195669999999922
11
164.1354330000000061
21
-91.3520389999999907
0
LINE
8
BLACK
6
CONTINUOUS
10
164.1354330000000061
20
-91.3520389999999907
11
164.1354330000000061
21
-91.3979609999999951
0
LINE
8
BLACK
6
CONTINUOUS
10
164.1354330000000061
20
-91.3979609999999951
11
164.1029609999999934
21
-91.4304329999999936
0
LINE
8
BLACK
6
CONTINUOUS
10
164.1029609999999934
20
-91.4304329999999936
11
164.0799999999999841
21
-91.4350000000000023
0
LINE
8
BLACK
6
CONTINUOUS
10
164.0799999999999841
20
-91.4350000000000023
11
163.0600000000000023
21
-91.4350000000000023
0
LINE
8
BLACK
6
CONTINUOUS
10
163.0600000000000023
20
-91.4350000000000023
11
163.0370389999999929
21
-91.4304329999999936
0
LINE
8
BLACK
6
CONTINUOUS
10
163.0370389999999929
20
-91.4304329999999936
11
163.0045669999999802
21
-91.3979609999999951
0
LINE
8
BLACK
6
CONTINUOUS
10
163.0045669999999802
20
-91.3979609999999951
11
163.0045669999999802
21
-91.3520389999999907
0
LINE
8
BLACK
6
CONTINUOUS
10
163.0045669999999802
20
-91.3520389999999907
11
163.0370389999999929
21
-91.3195669999999922
0
LINE
8
BLACK
6
CONTINUOUS
10
163.0370389999999929
20
-91.3195669999999922
11
163.0600000000000023
21
-91.3149999999999977
0
LINE
8
BLACK
6
CONTINUOUS
10
163.0600000000000023
20
-91.3149999999999977
11
164.0799999999999841
21
-91.3149999999999977
0
LINE
8
BLACK
6
CONTINUOUS
10
164.0799999999999841
20
-91.3149999999999977
11
164.1029609999999934
21
-91.3195669999999922
0
LINE
8
BLACK
6
CONTINUOUS
10
166.6429609999999855
20
-91.3195669999999922
11
166.6754329999999982
21
-91.3520389999999907
0
LINE
8
BLACK
6
CONTINUOUS
10
166.6754329999999982
20
-91.3520389999999907
11
166.6754329999999982
21
-91.3979609999999951
0
LINE
8
BLACK
6
CONTINUOUS
10
166.6754329999999982
20
-91.3979609999999951
11
166.6429609999999855
21
-91.4304329999999936
0
LINE
8
BLACK
6
CONTINUOUS
10
166.6429609999999855
20
-91.4304329999999936
11
166.6200000000000045
21
-91.4350000000000023
0
LINE
8
BLACK
6
CONTINUOUS
10
166.6200000000000045
20
-91.4350000000000023
11
165.5999999999999943
21
-91.4350000000000023
0
LINE
8
BLACK
6
CONTINUOUS
10
165.5999999999999943
20
-91.4350000000000023
11
165.577038999999985
21
-91.4304329999999936
0
LINE
8
BLACK
6
CONTINUOUS
10
165.577038999999985
20
-91.4304329999999936
11
165.5445670000000007
21
-91.3979609999999951
0
LINE
8
BLACK
6
CONTINUOUS
10
165.5445670000000007
20
-91.3979609999999951
11
165.5445670000000007
21
-91.3520389999999907
0
LINE
8
BLACK
6
CONTINUOUS
10
165.5445670000000007
20
-91.3520389999999907
11
165.577038999999985
21
-91.3195669999999922
0
LINE
8
BLACK
6
CONTINUOUS
10
165.577038999999985
20
-91.3195669999999922
11
165.5999999999999943
21
-91.3149999999999977
0
LINE
8
BLACK
6
CONTINUOUS
10
165.5999999999999943
20
-91.3149999999999977
11
166.6200000000000045
21
-91.3149999999999977
0
LINE
8
BLACK
6
CONTINUOUS
10
166.6200000000000045
20
-91.3149999999999977
11
166.6429609999999855
21
-91.3195669999999922
0
LINE
8
BLACK
6
CONTINUOUS
10
169.1829610000000059
20
-91.3195669999999922
11
169.2154329999999902
21
-91.3520389999999907
0
LINE
8
BLACK
6
CONTINUOUS
10
169.2154329999999902
20
-91.3520389999999907
11
169.2154329999999902
21
-91.3979609999999951
0
LINE
8
BLACK
6
CONTINUOUS
10
169.2154329999999902
20
-91.3979609999999951
11
169.1829610000000059
21
-91.4304329999999936
0
LINE
8
BLACK
6
CONTINUOUS
10
169.1829610000000059
20
-91.4304329999999936
11
169.1599999999999966
21
-91.4350000000000023
0
LINE
8
BLACK
6
CONTINUOUS
10
169.1599999999999966
20
-91.4350000000000023
11
168.1399999999999864
21
-91.4350000000000023
0
LINE
8
BLACK
6
CONTINUOUS
10
168.1399999999999864
20
-91.4350000000000023
11
168.1170390000000054
21
-91.4304329999999936
0
LINE
8
BLACK
6
CONTINUOUS
10
168.1170390000000054
20
-91.4304329999999936
11
168.0845669999999927
21
-91.3979609999999951
0
LINE
8
BLACK
6
CONTINUOUS
10
168.0845669999999927
20
-91.3979609999999951
11
168.0845669999999927
21
-91.3520389999999907
0
LINE
8
BLACK
6
CONTINUOUS
10
168.0845669999999927
20
-91.3520389999999907
11
168.1170390000000054
21
-91.3195669999999922
0
LINE
8
BLACK
6
CONTINUOUS
10
168.1170390000000054
20
-91.3195669999999922
11
168.1399999999999864
21
-91.3149999999999977
0
LINE
8
BLACK
6
CONTINUOUS
10
168.1399999999999864
20
-91.3149999999999977
11
169.1599999999999966
21
-91.3149999999999977
0
LINE
8
BLACK
6
CONTINUOUS
10
169.1599999999999966
20
-91.3149999999999977
11
169.1829610000000059
21
-91.3195669999999922
0
LINE
8
BLACK
6
CONTINUOUS
10
171.722960999999998
20
-91.3195669999999922
11
171.7554329999999823
21
-91.3520389999999907
0
LINE
8
BLACK
6
CONTINUOUS
10
171.7554329999999823
20
-91.3520389999999907
11
171.7554329999999823
21
-91.3979609999999951
0
LINE
8
BLACK
6
CONTINUOUS
10
171.7554329999999823
20
-91.3979609999999951
11
171.722960999999998
21
-91.4304329999999936
0
LINE
8
BLACK
6
CONTINUOUS
10
171.722960999999998
20
-91.4304329999999936
11
171.6999999999999886
21
-91.4350000000000023
0
LINE
8
BLACK
6
CONTINUOUS
10
171.6999999999999886
20
-91.4350000000000023
11
170.6799999999999784
21
-91.4350000000000023
0
LINE
8
BLACK
6
CONTINUOUS
10
170.6799999999999784
20
-91.4350000000000023
11
170.6570389999999975
21
-91.4304329999999936
0
LINE
8
BLACK
6
CONTINUOUS
10
170.6570389999999975
20
-91.4304329999999936
11
170.6245669999999848
21
-91.3979609999999951
0
LINE
8
BLACK
6
CONTINUOUS
10
170.6245669999999848
20
-91.3979609999999951
11
170.6245669999999848
21
-91.3520389999999907
0
LINE
8
BLACK
6
CONTINUOUS
10
170.6245669999999848
20
-91.3520389999999907
11
170.6570389999999975
21
-91.3195669999999922
0
LINE
8
BLACK
6
CONTINUOUS
10
170.6570389999999975
20
-91.3195669999999922
11
170.6799999999999784
21
-91.3149999999999977
0
LINE
8
BLACK
6
CONTINUOUS
10
170.6799999999999784
20
-91.3149999999999977
11
171.6999999999999886
21
-91.3149999999999977
0
LINE
8
BLACK
6
CONTINUOUS
10
171.6999999999999886
20
-91.3149999999999977
11
171.722960999999998
21
-91.3195669999999922
0
LINE
8
BLACK
6
CONTINUOUS
10
174.26296099999999
20
-91.3195669999999922
11
174.2954330000000027
21
-91.3520389999999907
0
LINE
8
BLACK
6
CONTINUOUS
10
174.2954330000000027
20
-91.3520389999999907
11
174.2954330000000027
21
-91.3979609999999951
0
LINE
8
BLACK
6
CONTINUOUS
10
174.2954330000000027
20
-91.3979609999999951
11
174.26296099999999
21
-91.4304329999999936
0
LINE
8
BLACK
6
CONTINUOUS
10
174.26296099999999
20
-91.4304329999999936
11
174.2399999999999807
21
-91.4350000000000023
0
LINE
8
BLACK
6
CONTINUOUS
10
174.2399999999999807
20
-91.4350000000000023
11
173.2199999999999989
21
-91.4350000000000023
0
LINE
8
BLACK
6
CONTINUOUS
10
173.2199999999999989
20
-91.4350000000000023
11
173.1970389999999895
21
-91.4304329999999936
0
LINE
8
BLACK
6
CONTINUOUS
10
173.1970389999999895
20
-91.4304329999999936
11
173.1645670000000052
21
-91.3979609999999951
0
LINE
8
BLACK
6
CONTINUOUS
10
173.1645670000000052
20
-91.3979609999999951
11
173.1645670000000052
21
-91.3520389999999907
0
LINE
8
BLACK
6
CONTINUOUS
10
173.1645670000000052
20
-91.3520389999999907
11
173.1970389999999895
21
-91.3195669999999922
0
LINE
8
BLACK
6
CONTINUOUS
10
173.1970389999999895
20
-91.3195669999999922
11
173.2199999999999989
21
-91.3149999999999977
0
LINE
8
BLACK
6
CONTINUOUS
10
173.2199999999999989
20
-91.3149999999999977
11
174.2399999999999807
21
-91.3149999999999977
0
LINE
8
BLACK
6
CONTINUOUS
10
174.2399999999999807
20
-91.3149999999999977
11
174.26296099999999
21
-91.3195669999999922
0
LINE
8
BLACK
6
CONTINUOUS
10
154.4083339999999964
20
-86.3924590000000023
11
154.4290259999999932
21
-86.4131509999999992
0
LINE
8
BLACK
6
CONTINUOUS
10
154.4290259999999932
20
-86.4131509999999992
11
154.4402249999999981
21
-86.4401869999999946
0
LINE
8
BLACK
6
CONTINUOUS
10
154.4402249999999981
20
-86.4401869999999946
11
154.4416659999999979
21
-86.4548190000000005
0
LINE
8
BLACK
6
CONTINUOUS
10
154.4416659999999979
20
-86.4548190000000005
11
154.4416659999999979
21
-87.1691039999999902
0
LINE
8
BLACK
6
CONTINUOUS
10
154.4416659999999979
20
-87.1691039999999902
11
154.4409359999999936
21
-87.1765099999999933
0
LINE
8
BLACK
6
CONTINUOUS
10
154.4409359999999936
20
-87.1765099999999933
11
154.441077000000007
21
-87.1784849999999949
0
LINE
8
BLACK
6
CONTINUOUS
10
154.441077000000007
20
-87.1784849999999949
11
154.4404859999999928
21
-87.1810819999999893
0
LINE
8
BLACK
6
CONTINUOUS
10
154.4404859999999928
20
-87.1810819999999893
11
154.4402249999999981
21
-87.1837359999999961
0
LINE
8
BLACK
6
CONTINUOUS
10
154.4402249999999981
20
-87.1837359999999961
11
154.4394659999999817
21
-87.1855659999999943
0
LINE
8
BLACK
6
CONTINUOUS
10
154.4394659999999817
20
-87.1855659999999943
11
154.4378169999999955
21
-87.1928219999999925
0
LINE
8
BLACK
6
CONTINUOUS
10
154.4378169999999955
20
-87.1928219999999925
11
154.390197999999998
21
-87.3356780000000015
0
LINE
8
BLACK
6
CONTINUOUS
10
154.390197999999998
20
-87.3356780000000015
11
154.3842039999999827
21
-87.349103999999997
0
LINE
8
BLACK
6
CONTINUOUS
10
154.3842039999999827
20
-87.349103999999997
11
154.3824379999999792
21
-87.3511389999999892
0
LINE
8
BLACK
6
CONTINUOUS
10
154.3824379999999792
20
-87.3511389999999892
11
154.3814079999999933
21
-87.3536280000000005
0
LINE
8
BLACK
6
CONTINUOUS
10
154.3814079999999933
20
-87.3536280000000005
11
154.3720809999999801
21
-87.3649929999999983
0
LINE
8
BLACK
6
CONTINUOUS
10
154.3720809999999801
20
-87.3649929999999983
11
154.2768419999999878
21
-87.4602330000000023
0
LINE
8
BLACK
6
CONTINUOUS
10
154.2768419999999878
20
-87.4602330000000023
11
154.2654770000000042
21
-87.4695600000000013
0
LINE
8
BLACK
6
CONTINUOUS
10
154.2654770000000042
20
-87.4695600000000013
11
154.2629859999999837
21
-87.4705909999999989
0
LINE
8
BLACK
6
CONTINUOUS
10
154.2629859999999837
20
-87.4705909999999989
11
154.2609510000000057
21
-87.4723570000000024
0
LINE
8
BLACK
6
CONTINUOUS
10
154.2609510000000057
20
-87.4723570000000024
11
154.2475259999999935
21
-87.4783509999999893
0
LINE
8
BLACK
6
CONTINUOUS
10
154.2475259999999935
20
-87.4783509999999893
11
154.1046690000000012
21
-87.5259700000000009
0
LINE
8
BLACK
6
CONTINUOUS
10
154.1046690000000012
20
-87.5259700000000009
11
154.0974149999999838
21
-87.5276190000000014
0
LINE
8
BLACK
6
CONTINUOUS
10
154.0974149999999838
20
-87.5276190000000014
11
154.0955840000000023
21
-87.5283779999999894
0
LINE
8
BLACK
6
CONTINUOUS
10
154.0955840000000023
20
-87.5283779999999894
11
154.092928999999998
21
-87.5286389999999983
0
LINE
8
BLACK
6
CONTINUOUS
10
154.092928999999998
20
-87.5286389999999983
11
154.0903319999999894
21
-87.5292299999999983
0
LINE
8
BLACK
6
CONTINUOUS
10
154.0903319999999894
20
-87.5292299999999983
11
154.088357000000002
21
-87.529088999999999
0
LINE
8
BLACK
6
CONTINUOUS
10
154.088357000000002
20
-87.529088999999999
11
154.0809519999999964
21
-87.5298189999999892
0
LINE
8
BLACK
6
CONTINUOUS
10
154.0809519999999964
20
-87.5298189999999892
11
153.9857140000000015
21
-87.5298189999999892
0
LINE
8
BLACK
6
CONTINUOUS
10
153.9857140000000015
20
-87.5298189999999892
11
153.9710819999999956
21
-87.5283779999999894
0
LINE
8
BLACK
6
CONTINUOUS
10
153.9710819999999956
20
-87.5283779999999894
11
153.944045999999986
21
-87.5171789999999987
0
LINE
8
BLACK
6
CONTINUOUS
10
153.944045999999986
20
-87.5171789999999987
11
153.9233539999999891
21
-87.4964870000000019
0
LINE
8
BLACK
6
CONTINUOUS
10
153.9233539999999891
20
-87.4964870000000019
11
153.9121549999999843
21
-87.4694509999999923
0
LINE
8
BLACK
6
CONTINUOUS
10
153.9121549999999843
20
-87.4694509999999923
11
153.9121549999999843
21
-87.4401869999999946
0
LINE
8
BLACK
6
CONTINUOUS
10
153.9121549999999843
20
-87.4401869999999946
11
153.9233539999999891
21
-87.4131509999999992
0
LINE
8
BLACK
6
CONTINUOUS
10
153.9233539999999891
20
-87.4131509999999992
11
153.944045999999986
21
-87.3924590000000023
0
LINE
8
BLACK
6
CONTINUOUS
10
153.944045999999986
20
-87.3924590000000023
11
153.9710819999999956
21
-87.3812599999999975
0
LINE
8
BLACK
6
CONTINUOUS
10
153.9710819999999956
20
-87.3812599999999975
11
153.9857140000000015
21
-87.3798189999999977
0
LINE
8
BLACK
6
CONTINUOUS
10
153.9857140000000015
20
-87.3798189999999977
11
154.0687819999999988
21
-87.3798189999999977
0
LINE
8
BLACK
6
CONTINUOUS
10
154.0687819999999988
20
-87.3798189999999977
11
154.1832949999999869
21
-87.3416469999999947
0
LINE
8
BLACK
6
CONTINUOUS
10
154.1832949999999869
20
-87.3416469999999947
11
154.2534939999999892
21
-87.2714469999999949
0
LINE
8
BLACK
6
CONTINUOUS
10
154.2534939999999892
20
-87.2714469999999949
11
154.2916659999999922
21
-87.1569339999999926
0
LINE
8
BLACK
6
CONTINUOUS
10
154.2916659999999922
20
-87.1569339999999926
11
154.2916659999999922
21
-86.4548190000000005
0
LINE
8
BLACK
6
CONTINUOUS
10
154.2916659999999922
20
-86.4548190000000005
11
154.293106999999992
21
-86.4401869999999946
0
LINE
8
BLACK
6
CONTINUOUS
10
154.293106999999992
20
-86.4401869999999946
11
154.3043059999999969
21
-86.4131509999999992
0
LINE
8
BLACK
6
CONTINUOUS
10
154.3043059999999969
20
-86.4131509999999992
11
154.3249979999999937
21
-86.3924590000000023
0
LINE
8
BLACK
6
CONTINUOUS
10
154.3249979999999937
20
-86.3924590000000023
11
154.3520340000000033
21
-86.3812599999999975
0
LINE
8
BLACK
6
CONTINUOUS
10
154.3520340000000033
20
-86.3812599999999975
11
154.3812979999999868
21
-86.3812599999999975
0
LINE
8
BLACK
6
CONTINUOUS
10
154.3812979999999868
20
-86.3812599999999975
11
154.4083339999999964
21
-86.3924590000000023
0
LINE
8
BLACK
6
CONTINUOUS
10
155.1908219999999972
20
-86.3812599999999975
11
155.1933109999999942
21
-86.3822909999999951
0
LINE
8
BLACK
6
CONTINUOUS
10
155.1933109999999942
20
-86.3822909999999951
11
155.1959990000000005
21
-86.382481999999996
0
LINE
8
BLACK
6
CONTINUOUS
10
155.1959990000000005
20
-86.382481999999996
11
155.209731000000005
21
-86.3877370000000013
0
LINE
8
BLACK
6
CONTINUOUS
10
155.209731000000005
20
-86.3877370000000013
11
155.3049689999999998
21
-86.4353559999999987
0
LINE
8
BLACK
6
CONTINUOUS
10
155.3049689999999998
20
-86.4353559999999987
11
155.3112679999999841
21
-86.439319999999995
0
LINE
8
BLACK
6
CONTINUOUS
10
155.3112679999999841
20
-86.439319999999995
11
155.3130960000000016
21
-86.4400779999999997
0
LINE
8
BLACK
6
CONTINUOUS
10
155.3130960000000016
20
-86.4400779999999997
11
155.3151519999999834
21
-86.4417660000000012
0
LINE
8
BLACK
6
CONTINUOUS
10
155.3151519999999834
20
-86.4417660000000012
11
155.3174119999999903
21
-86.4431879999999921
0
LINE
8
BLACK
6
CONTINUOUS
10
155.3174119999999903
20
-86.4431879999999921
11
155.3187109999999791
21
-86.4446859999999901
0
LINE
8
BLACK
6
CONTINUOUS
10
155.3187109999999791
20
-86.4446859999999901
11
155.3244609999999852
21
-86.4494049999999987
0
LINE
8
BLACK
6
CONTINUOUS
10
155.3244609999999852
20
-86.4494049999999987
11
155.3720799999999826
21
-86.4970239999999961
0
LINE
8
BLACK
6
CONTINUOUS
10
155.3720799999999826
20
-86.4970239999999961
11
155.3767979999999795
21
-86.5027729999999906
0
LINE
8
BLACK
6
CONTINUOUS
10
155.3767979999999795
20
-86.5027729999999906
11
155.3782970000000034
21
-86.5040729999999911
0
LINE
8
BLACK
6
CONTINUOUS
10
155.3782970000000034
20
-86.5040729999999911
11
155.3797179999999969
21
-86.5063320000000004
0
LINE
8
BLACK
6
CONTINUOUS
10
155.3797179999999969
20
-86.5063320000000004
11
155.3814069999999958
21
-86.508388999999994
0
LINE
8
BLACK
6
CONTINUOUS
10
155.3814069999999958
20
-86.508388999999994
11
155.3821639999999888
21
-86.5102159999999998
0
LINE
8
BLACK
6
CONTINUOUS
10
155.3821639999999888
20
-86.5102159999999998
11
155.3861289999999826
21
-86.5165159999999958
0
LINE
8
BLACK
6
CONTINUOUS
10
155.3861289999999826
20
-86.5165159999999958
11
155.43374799999998
21
-86.6117539999999906
0
LINE
8
BLACK
6
CONTINUOUS
10
155.43374799999998
20
-86.6117539999999906
11
155.4390029999999854
21
-86.6254849999999976
0
LINE
8
BLACK
6
CONTINUOUS
10
155.4390029999999854
20
-86.6254849999999976
11
155.4391939999999863
21
-86.6281740000000013
0
LINE
8
BLACK
6
CONTINUOUS
10
155.4391939999999863
20
-86.6281740000000013
11
155.4402249999999981
21
-86.6306629999999984
0
LINE
8
BLACK
6
CONTINUOUS
10
155.4402249999999981
20
-86.6306629999999984
11
155.4416659999999979
21
-86.6452949999999902
0
LINE
8
BLACK
6
CONTINUOUS
10
155.4416659999999979
20
-86.6452949999999902
11
155.4416659999999979
21
-86.7405329999999992
0
LINE
8
BLACK
6
CONTINUOUS
10
155.4416659999999979
20
-86.7405329999999992
11
155.4409359999999936
21
-86.7479390000000024
0
LINE
8
BLACK
6
CONTINUOUS
10
155.4409359999999936
20
-86.7479390000000024
11
155.441077000000007
21
-86.7499139999999898
0
LINE
8
BLACK
6
CONTINUOUS
10
155.441077000000007
20
-86.7499139999999898
11
155.4404859999999928
21
-86.7525109999999984
0
LINE
8
BLACK
6
CONTINUOUS
10
155.4404859999999928
20
-86.7525109999999984
11
155.4402249999999981
21
-86.755164999999991
0
LINE
8
BLACK
6
CONTINUOUS
10
155.4402249999999981
20
-86.755164999999991
11
155.4394659999999817
21
-86.7569949999999892
0
LINE
8
BLACK
6
CONTINUOUS
10
155.4394659999999817
20
-86.7569949999999892
11
155.4378169999999955
21
-86.7642510000000016
0
LINE
8
BLACK
6
CONTINUOUS
10
155.4378169999999955
20
-86.7642510000000016
11
155.390197999999998
21
-86.9071069999999963
0
LINE
8
BLACK
6
CONTINUOUS
10
155.390197999999998
20
-86.9071069999999963
11
155.3842039999999827
21
-86.9205329999999918
0
LINE
8
BLACK
6
CONTINUOUS
10
155.3842039999999827
20
-86.9205329999999918
11
155.3824390000000051
21
-86.9225670000000008
0
LINE
8
BLACK
6
CONTINUOUS
10
155.3824390000000051
20
-86.9225670000000008
11
155.3814079999999933
21
-86.9250579999999928
0
LINE
8
BLACK
6
CONTINUOUS
10
155.3814079999999933
20
-86.9250579999999928
11
155.3720799999999826
21
-86.9364229999999907
0
LINE
8
BLACK
6
CONTINUOUS
10
155.3720799999999826
20
-86.9364229999999907
11
154.9286850000000015
21
-87.3798189999999977
0
LINE
8
BLACK
6
CONTINUOUS
10
154.9286850000000015
20
-87.3798189999999977
11
155.3666659999999808
21
-87.3798189999999977
0
LINE
8
BLACK
6
CONTINUOUS
10
155.3666659999999808
20
-87.3798189999999977
11
155.3812979999999868
21
-87.3812599999999975
0
LINE
8
BLACK
6
CONTINUOUS
10
155.3812979999999868
20
-87.3812599999999975
11
155.4083339999999964
21
-87.3924590000000023
0
LINE
8
BLACK
6
CONTINUOUS
10
155.4083339999999964
20
-87.3924590000000023
11
155.4290259999999932
21
-87.4131509999999992
0
LINE
8
BLACK
6
CONTINUOUS
10
155.4290259999999932
20
-87.4131509999999992
11
155.4402249999999981
21
-87.4401869999999946
0
LINE
8
BLACK
6
CONTINUOUS
10
155.4402249999999981
20
-87.4401869999999946
11
155.4402249999999981
21
-87.4694509999999923
0
LINE
8
BLACK
6
CONTINUOUS
10
155.4402249999999981
20
-87.4694509999999923
11
155.4290259999999932
21
-87.4964870000000019
0
LINE
8
BLACK
6
CONTINUOUS
10
155.4290259999999932
20
-87.4964870000000019
11
155.4083339999999964
21
-87.5171789999999987
0
LINE
8
BLACK
6
CONTINUOUS
10
155.4083339999999964
20
-87.5171789999999987
11
155.3812979999999868
21
-87.5283779999999894
0
LINE
8
BLACK
6
CONTINUOUS
10
155.3812979999999868
20
-87.5283779999999894
11
155.3666659999999808
21
-87.5298189999999892
0
LINE
8
BLACK
6
CONTINUOUS
10
155.3666659999999808
20
-87.5298189999999892
11
154.747618999999986
21
-87.5298189999999892
0
LINE
8
BLACK
6
CONTINUOUS
10
154.747618999999986
20
-87.5298189999999892
11
154.7329869999999801
21
-87.5283779999999894
0
LINE
8
BLACK
6
CONTINUOUS
10
154.7329869999999801
20
-87.5283779999999894
11
154.7059509999999989
21
-87.5171789999999987
0
LINE
8
BLACK
6
CONTINUOUS
10
154.7059509999999989
20
-87.5171789999999987
11
154.6852590000000021
21
-87.4964870000000019
0
LINE
8
BLACK
6
CONTINUOUS
10
154.6852590000000021
20
-87.4964870000000019
11
154.6740599999999972
21
-87.4694509999999923
0
LINE
8
BLACK
6
CONTINUOUS
10
154.6740599999999972
20
-87.4694509999999923
11
154.6740599999999972
21
-87.4401869999999946
0
LINE
8
BLACK
6
CONTINUOUS
10
154.6740599999999972
20
-87.4401869999999946
11
154.6852590000000021
21
-87.4131509999999992
0
LINE
8
BLACK
6
CONTINUOUS
10
154.6852590000000021
20
-87.4131509999999992
11
154.6945859999999868
21
-87.4017860000000013
0
LINE
8
BLACK
6
CONTINUOUS
10
154.6945859999999868
20
-87.4017860000000013
11
155.2534939999999892
21
-86.8428759999999897
0
LINE
8
BLACK
6
CONTINUOUS
10
155.2534939999999892
20
-86.8428759999999897
11
155.2916659999999922
21
-86.7283630000000016
0
LINE
8
BLACK
6
CONTINUOUS
10
155.2916659999999922
20
-86.7283630000000016
11
155.2916659999999922
21
-86.6629999999999967
0
LINE
8
BLACK
6
CONTINUOUS
10
155.2916659999999922
20
-86.6629999999999967
11
155.2574079999999981
21
-86.5944839999999942
0
LINE
8
BLACK
6
CONTINUOUS
10
155.2574079999999981
20
-86.5944839999999942
11
155.2270010000000013
21
-86.5640769999999975
0
LINE
8
BLACK
6
CONTINUOUS
10
155.2270010000000013
20
-86.5640769999999975
11
155.1584849999999847
21
-86.5298189999999892
0
LINE
8
BLACK
6
CONTINUOUS
10
155.1584849999999847
20
-86.5298189999999892
11
154.9557999999999822
21
-86.5298189999999892
0
LINE
8
BLACK
6
CONTINUOUS
10
154.9557999999999822
20
-86.5298189999999892
11
154.887283999999994
21
-86.5640769999999975
0
LINE
8
BLACK
6
CONTINUOUS
10
154.887283999999994
20
-86.5640769999999975
11
154.8482709999999827
21
-86.6030899999999946
0
LINE
8
BLACK
6
CONTINUOUS
10
154.8482709999999827
20
-86.6030899999999946
11
154.836905999999999
21
-86.6124169999999935
0
LINE
8
BLACK
6
CONTINUOUS
10
154.836905999999999
20
-86.6124169999999935
11
154.809868999999992
21
-86.6236159999999984
0
LINE
8
BLACK
6
CONTINUOUS
10
154.809868999999992
20
-86.6236159999999984
11
154.7806070000000034
21
-86.6236159999999984
0
LINE
8
BLACK
6
CONTINUOUS
10
154.7806070000000034
20
-86.6236159999999984
11
154.7535699999999963
21
-86.6124169999999935
0
LINE
8
BLACK
6
CONTINUOUS
10
154.7535699999999963
20
-86.6124169999999935
11
154.7328779999999995
21
-86.5917249999999967
0
LINE
8
BLACK
6
CONTINUOUS
10
154.7328779999999995
20
-86.5917249999999967
11
154.7216789999999946
21
-86.5646879999999896
0
LINE
8
BLACK
6
CONTINUOUS
10
154.7216789999999946
20
-86.5646879999999896
11
154.7216789999999946
21
-86.5354260000000011
0
LINE
8
BLACK
6
CONTINUOUS
10
154.7216789999999946
20
-86.5354260000000011
11
154.7328779999999995
21
-86.508388999999994
0
LINE
8
BLACK
6
CONTINUOUS
10
154.7328779999999995
20
-86.508388999999994
11
154.7422049999999842
21
-86.4970239999999961
0
LINE
8
BLACK
6
CONTINUOUS
10
154.7422049999999842
20
-86.4970239999999961
11
154.7898239999999817
21
-86.4494049999999987
0
LINE
8
BLACK
6
CONTINUOUS
10
154.7898239999999817
20
-86.4494049999999987
11
154.7955729999999903
21
-86.4446859999999901
0
LINE
8
BLACK
6
CONTINUOUS
10
154.7955729999999903
20
-86.4446859999999901
11
154.796873000000005
21
-86.4431879999999921
0
LINE
8
BLACK
6
CONTINUOUS
10
154.796873000000005
20
-86.4431879999999921
11
154.799131999999986
21
-86.4417660000000012
0
LINE
8
BLACK
6
CONTINUOUS
10
154.799131999999986
20
-86.4417660000000012
11
154.8011889999999937
21
-86.4400779999999997
0
LINE
8
BLACK
6
CONTINUOUS
10
154.8011889999999937
20
-86.4400779999999997
11
154.8030159999999853
21
-86.439319999999995
0
LINE
8
BLACK
6
CONTINUOUS
10
154.8030159999999853
20
-86.439319999999995
11
154.8093159999999955
21
-86.4353559999999987
0
LINE
8
BLACK
6
CONTINUOUS
10
154.8093159999999955
20
-86.4353559999999987
11
154.9045539999999903
21
-86.3877370000000013
0
LINE
8
BLACK
6
CONTINUOUS
10
154.9045539999999903
20
-86.3877370000000013
11
154.9182849999999974
21
-86.382481999999996
0
LINE
8
BLACK
6
CONTINUOUS
10
154.9182849999999974
20
-86.382481999999996
11
154.9209740000000011
21
-86.3822899999999976
0
LINE
8
BLACK
6
CONTINUOUS
10
154.9209740000000011
20
-86.3822899999999976
11
154.9234629999999981
21
-86.3812599999999975
0
LINE
8
BLACK
6
CONTINUOUS
10
154.9234629999999981
20
-86.3812599999999975
11
154.9380950000000041
21
-86.3798189999999977
0
LINE
8
BLACK
6
CONTINUOUS
10
154.9380950000000041
20
-86.3798189999999977
11
155.1761899999999912
21
-86.3798189999999977
0
LINE
8
BLACK
6
CONTINUOUS
10
155.1761899999999912
20
-86.3798189999999977
11
155.1908219999999972
21
-86.3812599999999975
0
LINE
8
BLACK
6
CONTINUOUS
10
162.1554329999999879
20
-81.3870390000000015
11
162.1599999999999966
21
-81.4099999999999966
0
LINE
8
BLACK
6
CONTINUOUS
10
162.1599999999999966
20
-81.4099999999999966
11
162.1599999999999966
21
-82.75
0
LINE
8
BLACK
6
CONTINUOUS
10
162.1599999999999966
20
-82.75
11
162.1554329999999879
21
-82.7729609999999951
0
LINE
8
BLACK
6
CONTINUOUS
10
162.1554329999999879
20
-82.7729609999999951
11
162.1229610000000037
21
-82.8054329999999936
0
LINE
8
BLACK
6
CONTINUOUS
10
162.1229610000000037
20
-82.8054329999999936
11
162.0999999999999943
21
-82.8100000000000023
0
LINE
8
BLACK
6
CONTINUOUS
10
162.0999999999999943
20
-82.8100000000000023
11
160.6699999999999875
21
-82.8100000000000023
0
LINE
8
BLACK
6
CONTINUOUS
10
160.6699999999999875
20
-82.8100000000000023
11
160.6699999999999875
21
-83.9500000000000028
0
LINE
8
BLACK
6
CONTINUOUS
10
160.6699999999999875
20
-83.9500000000000028
11
160.6654329999999788
21
-83.972960999999998
0
LINE
8
BLACK
6
CONTINUOUS
10
160.6654329999999788
20
-83.972960999999998
11
160.6329609999999946
21
-84.0054329999999965
0
LINE
8
BLACK
6
CONTINUOUS
10
160.6329609999999946
20
-84.0054329999999965
11
160.5870390000000043
21
-84.0054329999999965
0
LINE
8
BLACK
6
CONTINUOUS
10
160.5870390000000043
20
-84.0054329999999965
11
160.5545669999999916
21
-83.972960999999998
0
LINE
8
BLACK
6
CONTINUOUS
10
160.5545669999999916
20
-83.972960999999998
11
160.5499999999999829
21
-83.9500000000000028
0
LINE
8
BLACK
6
CONTINUOUS
10
160.5499999999999829
20
-83.9500000000000028
11
160.5499999999999829
21
-82.75
0
LINE
8
BLACK
6
CONTINUOUS
10
160.5499999999999829
20
-82.75
11
160.5545669999999916
21
-82.7270389999999907
0
LINE
8
BLACK
6
CONTINUOUS
10
160.5545669999999916
20
-82.7270389999999907
11
160.5870390000000043
21
-82.6945669999999922
0
LINE
8
BLACK
6
CONTINUOUS
10
160.5870390000000043
20
-82.6945669999999922
11
160.6099999999999852
21
-82.6899999999999977
0
LINE
8
BLACK
6
CONTINUOUS
10
160.6099999999999852
20
-82.6899999999999977
11
162.039999999999992
21
-82.6899999999999977
0
LINE
8
BLACK
6
CONTINUOUS
10
162.039999999999992
20
-82.6899999999999977
11
162.039999999999992
21
-81.4099999999999966
0
LINE
8
BLACK
6
CONTINUOUS
10
162.039999999999992
20
-81.4099999999999966
11
162.0445670000000007
21
-81.3870390000000015
0
LINE
8
BLACK
6
CONTINUOUS
10
162.0445670000000007
20
-81.3870390000000015
11
162.077038999999985
21
-81.354567000000003
0
LINE
8
BLACK
6
CONTINUOUS
10
162.077038999999985
20
-81.354567000000003
11
162.1229610000000037
21
-81.354567000000003
0
LINE
8
BLACK
6
CONTINUOUS
10
162.1229610000000037
20
-81.354567000000003
11
162.1554329999999879
21
-81.3870390000000015
0
LINE
8
BLACK
6
CONTINUOUS
10
149.855433000000005
20
-81.3870390000000015
11
149.8599999999999852
21
-81.4099999999999966
0
LINE
8
BLACK
6
CONTINUOUS
10
149.8599999999999852
20
-81.4099999999999966
11
149.8599999999999852
21
-82.6899999999999977
0
LINE
8
BLACK
6
CONTINUOUS
10
149.8599999999999852
20
-82.6899999999999977
11
151.289999999999992
21
-82.6899999999999977
0
LINE
8
BLACK
6
CONTINUOUS
10
151.289999999999992
20
-82.6899999999999977
11
151.3129610000000014
21
-82.6945669999999922
0
LINE
8
BLACK
6
CONTINUOUS
10
151.3129610000000014
20
-82.6945669999999922
11
151.3454329999999857
21
-82.7270389999999907
0
LINE
8
BLACK
6
CONTINUOUS
10
151.3454329999999857
20
-82.7270389999999907
11
151.3454329999999857
21
-82.7729609999999951
0
LINE
8
BLACK
6
CONTINUOUS
10
151.3454329999999857
20
-82.7729609999999951
11
151.3129610000000014
21
-82.8054329999999936
0
LINE
8
BLACK
6
CONTINUOUS
10
151.3129610000000014
20
-82.8054329999999936
11
151.289999999999992
21
-82.8100000000000023
0
LINE
8
BLACK
6
CONTINUOUS
10
151.289999999999992
20
-82.8100000000000023
11
149.7999999999999829
21
-82.8100000000000023
0
LINE
8
BLACK
6
CONTINUOUS
10
149.7999999999999829
20
-82.8100000000000023
11
149.777039000000002
21
-82.8054329999999936
0
LINE
8
BLACK
6
CONTINUOUS
10
149.777039000000002
20
-82.8054329999999936
11
149.7445669999999893
21
-82.7729609999999951
0
LINE
8
BLACK
6
CONTINUOUS
10
149.7445669999999893
20
-82.7729609999999951
11
149.7399999999999807
21
-82.75
0
LINE
8
BLACK
6
CONTINUOUS
10
149.7399999999999807
20
-82.75
11
149.7399999999999807
21
-81.4099999999999966
0
LINE
8
BLACK
6
CONTINUOUS
10
149.7399999999999807
20
-81.4099999999999966
11
149.7445669999999893
21
-81.3870390000000015
0
LINE
8
BLACK
6
CONTINUOUS
10
149.7445669999999893
20
-81.3870390000000015
11
149.777039000000002
21
-81.354567000000003
0
LINE
8
BLACK
6
CONTINUOUS
10
149.777039000000002
20
-81.354567000000003
11
149.8229609999999923
21
-81.354567000000003
0
LINE
8
BLACK
6
CONTINUOUS
10
149.8229609999999923
20
-81.354567000000003
11
149.855433000000005
21
-81.3870390000000015
0
LINE
8
BLACK
6
CONTINUOUS
10
162.1229610000000037
20
-76.894566999999995
11
162.1554329999999879
21
-76.9270389999999935
0
LINE
8
BLACK
6
CONTINUOUS
10
162.1554329999999879
20
-76.9270389999999935
11
162.1599999999999966
21
-76.9500000000000028
0
LINE
8
BLACK
6
CONTINUOUS
10
162.1599999999999966
20
-76.9500000000000028
11
162.1599999999999966
21
-78.6899999999999977
0
LINE
8
BLACK
6
CONTINUOUS
10
162.1599999999999966
20
-78.6899999999999977
11
162.1554329999999879
21
-78.7129609999999929
0
LINE
8
BLACK
6
CONTINUOUS
10
162.1554329999999879
20
-78.7129609999999929
11
162.1229610000000037
21
-78.7454329999999914
0
LINE
8
BLACK
6
CONTINUOUS
10
162.1229610000000037
20
-78.7454329999999914
11
162.077038999999985
21
-78.7454329999999914
0
LINE
8
BLACK
6
CONTINUOUS
10
162.077038999999985
20
-78.7454329999999914
11
162.0445670000000007
21
-78.7129609999999929
0
LINE
8
BLACK
6
CONTINUOUS
10
162.0445670000000007
20
-78.7129609999999929
11
162.039999999999992
21
-78.6899999999999977
0
LINE
8
BLACK
6
CONTINUOUS
10
162.039999999999992
20
-78.6899999999999977
11
162.039999999999992
21
-77.0099999999999909
0
LINE
8
BLACK
6
CONTINUOUS
10
162.039999999999992
20
-77.0099999999999909
11
149.8599999999999852
21
-77.0099999999999909
0
LINE
8
BLACK
6
CONTINUOUS
10
149.8599999999999852
20
-77.0099999999999909
11
149.8599999999999852
21
-78.6899999999999977
0
LINE
8
BLACK
6
CONTINUOUS
10
149.8599999999999852
20
-78.6899999999999977
11
149.855433000000005
21
-78.7129609999999929
0
LINE
8
BLACK
6
CONTINUOUS
10
149.855433000000005
20
-78.7129609999999929
11
149.8229609999999923
21
-78.7454329999999914
0
LINE
8
BLACK
6
CONTINUOUS
10
149.8229609999999923
20
-78.7454329999999914
11
149.777039000000002
21
-78.7454329999999914
0
LINE
8
BLACK
6
CONTINUOUS
10
149.777039000000002
20
-78.7454329999999914
11
149.7445669999999893
21
-78.7129609999999929
0
LINE
8
BLACK
6
CONTINUOUS
10
149.7445669999999893
20
-78.7129609999999929
11
149.7399999999999807
21
-78.6899999999999977
0
LINE
8
BLACK
6
CONTINUOUS
10
149.7399999999999807
20
-78.6899999999999977
11
149.7399999999999807
21
-76.9500000000000028
0
LINE
8
BLACK
6
CONTINUOUS
10
149.7399999999999807
20
-76.9500000000000028
11
149.7445669999999893
21
-76.9270389999999935
0
LINE
8
BLACK
6
CONTINUOUS
10
149.7445669999999893
20
-76.9270389999999935
11
149.777039000000002
21
-76.894566999999995
0
LINE
8
BLACK
6
CONTINUOUS
10
149.777039000000002
20
-76.894566999999995
11
149.7999999999999829
21
-76.8900000000000006
0
LINE
8
BLACK
6
CONTINUOUS
10
149.7999999999999829
20
-76.8900000000000006
11
162.0999999999999943
21
-76.8900000000000006
0
LINE
8
BLACK
6
CONTINUOUS
10
162.0999999999999943
20
-76.8900000000000006
11
162.1229610000000037
21
-76.894566999999995
0
LINE
8
BLACK
6
CONTINUOUS
10
147.0833339999999794
20
-76.2674590000000023
11
147.1040260000000046
21
-76.2881509999999992
0
LINE
8
BLACK
6
CONTINUOUS
10
147.1040260000000046
20
-76.2881509999999992
11
147.115224999999981
21
-76.3151869999999946
0
LINE
8
BLACK
6
CONTINUOUS
10
147.115224999999981
20
-76.3151869999999946
11
147.1166659999999808
21
-76.3298190000000005
0
LINE
8
BLACK
6
CONTINUOUS
10
147.1166659999999808
20
-76.3298190000000005
11
147.1166659999999808
21
-77.0441039999999902
0
LINE
8
BLACK
6
CONTINUOUS
10
147.1166659999999808
20
-77.0441039999999902
11
147.1159360000000049
21
-77.0515099999999933
0
LINE
8
BLACK
6
CONTINUOUS
10
147.1159360000000049
20
-77.0515099999999933
11
147.11607699999999
21
-77.0534849999999949
0
LINE
8
BLACK
6
CONTINUOUS
10
147.11607699999999
20
-77.0534849999999949
11
147.1154860000000042
21
-77.0560820000000035
0
LINE
8
BLACK
6
CONTINUOUS
10
147.1154860000000042
20
-77.0560820000000035
11
147.115224999999981
21
-77.0587359999999961
0
LINE
8
BLACK
6
CONTINUOUS
10
147.115224999999981
20
-77.0587359999999961
11
147.1144659999999931
21
-77.0605659999999943
0
LINE
8
BLACK
6
CONTINUOUS
10
147.1144659999999931
20
-77.0605659999999943
11
147.1128170000000068
21
-77.0678219999999925
0
LINE
8
BLACK
6
CONTINUOUS
10
147.1128170000000068
20
-77.0678219999999925
11
147.065197999999981
21
-77.2106780000000015
0
LINE
8
BLACK
6
CONTINUOUS
10
147.065197999999981
20
-77.2106780000000015
11
147.059203999999994
21
-77.224103999999997
0
LINE
8
BLACK
6
CONTINUOUS
10
147.059203999999994
20
-77.224103999999997
11
147.0574379999999906
21
-77.2261390000000034
0
LINE
8
BLACK
6
CONTINUOUS
10
147.0574379999999906
20
-77.2261390000000034
11
147.0564080000000047
21
-77.2286280000000005
0
LINE
8
BLACK
6
CONTINUOUS
10
147.0564080000000047
20
-77.2286280000000005
11
147.0470809999999915
21
-77.2399929999999983
0
LINE
8
BLACK
6
CONTINUOUS
10
147.0470809999999915
20
-77.2399929999999983
11
146.9518419999999992
21
-77.3352330000000023
0
LINE
8
BLACK
6
CONTINUOUS
10
146.9518419999999992
20
-77.3352330000000023
11
146.9404769999999871
21
-77.3445600000000013
0
LINE
8
BLACK
6
CONTINUOUS
10
146.9404769999999871
20
-77.3445600000000013
11
146.9379859999999951
21
-77.3455909999999989
0
LINE
8
BLACK
6
CONTINUOUS
10
146.9379859999999951
20
-77.3455909999999989
11
146.9359509999999887
21
-77.3473570000000024
0
LINE
8
BLACK
6
CONTINUOUS
10
146.9359509999999887
20
-77.3473570000000024
11
146.9225260000000048
21
-77.3533510000000035
0
LINE
8
BLACK
6
CONTINUOUS
10
146.9225260000000048
20
-77.3533510000000035
11
146.7796689999999842
21
-77.4009700000000009
0
LINE
8
BLACK
6
CONTINUOUS
10
146.7796689999999842
20
-77.4009700000000009
11
146.7724149999999952
21
-77.4026190000000014
0
LINE
8
BLACK
6
CONTINUOUS
10
146.7724149999999952
20
-77.4026190000000014
11
146.7705839999999853
21
-77.4033780000000036
0
LINE
8
BLACK
6
CONTINUOUS
10
146.7705839999999853
20
-77.4033780000000036
11
146.767928999999981
21
-77.4036389999999983
0
LINE
8
BLACK
6
CONTINUOUS
10
146.767928999999981
20
-77.4036389999999983
11
146.7653320000000008
21
-77.4042299999999983
0
LINE
8
BLACK
6
CONTINUOUS
10
146.7653320000000008
20
-77.4042299999999983
11
146.763356999999985
21
-77.404088999999999
0
LINE
8
BLACK
6
CONTINUOUS
10
146.763356999999985
20
-77.404088999999999
11
146.7559519999999793
21
-77.4048190000000034
0
LINE
8
BLACK
6
CONTINUOUS
10
146.7559519999999793
20
-77.4048190000000034
11
146.6607139999999845
21
-77.4048190000000034
0
LINE
8
BLACK
6
CONTINUOUS
10
146.6607139999999845
20
-77.4048190000000034
11
146.6460820000000069
21
-77.4033780000000036
0
LINE
8
BLACK
6
CONTINUOUS
10
146.6460820000000069
20
-77.4033780000000036
11
146.6190459999999973
21
-77.3921789999999987
0
LINE
8
BLACK
6
CONTINUOUS
10
146.6190459999999973
20
-77.3921789999999987
11
146.5983540000000005
21
-77.3714870000000019
0
LINE
8
BLACK
6
CONTINUOUS
10
146.5983540000000005
20
-77.3714870000000019
11
146.5871549999999957
21
-77.3444509999999923
0
LINE
8
BLACK
6
CONTINUOUS
10
146.5871549999999957
20
-77.3444509999999923
11
146.5871549999999957
21
-77.3151869999999946
0
LINE
8
BLACK
6
CONTINUOUS
10
146.5871549999999957
20
-77.3151869999999946
11
146.5983540000000005
21
-77.2881509999999992
0
LINE
8
BLACK
6
CONTINUOUS
10
146.5983540000000005
20
-77.2881509999999992
11
146.6190459999999973
21
-77.2674590000000023
0
LINE
8
BLACK
6
CONTINUOUS
10
146.6190459999999973
20
-77.2674590000000023
11
146.6460820000000069
21
-77.2562599999999975
0
LINE
8
BLACK
6
CONTINUOUS
10
146.6460820000000069
20
-77.2562599999999975
11
146.6607139999999845
21
-77.2548189999999977
0
LINE
8
BLACK
6
CONTINUOUS
10
146.6607139999999845
20
-77.2548189999999977
11
146.7437819999999817
21
-77.2548189999999977
0
LINE
8
BLACK
6
CONTINUOUS
10
146.7437819999999817
20
-77.2548189999999977
11
146.8582949999999983
21
-77.2166469999999947
0
LINE
8
BLACK
6
CONTINUOUS
10
146.8582949999999983
20
-77.2166469999999947
11
146.9284940000000006
21
-77.1464469999999949
0
LINE
8
BLACK
6
CONTINUOUS
10
146.9284940000000006
20
-77.1464469999999949
11
146.9666660000000036
21
-77.0319339999999926
0
LINE
8
BLACK
6
CONTINUOUS
10
146.9666660000000036
20
-77.0319339999999926
11
146.9666660000000036
21
-76.3298190000000005
0
LINE
8
BLACK
6
CONTINUOUS
10
146.9666660000000036
20
-76.3298190000000005
11
146.9681070000000034
21
-76.3151869999999946
0
LINE
8
BLACK
6
CONTINUOUS
10
146.9681070000000034
20
-76.3151869999999946
11
146.9793059999999798
21
-76.2881509999999992
0
LINE
8
BLACK
6
CONTINUOUS
10
146.9793059999999798
20
-76.2881509999999992
11
146.999998000000005
21
-76.2674590000000023
0
LINE
8
BLACK
6
CONTINUOUS
10
146.999998000000005
20
-76.2674590000000023
11
147.0270339999999862
21
-76.2562599999999975
0
LINE
8
BLACK
6
CONTINUOUS
10
147.0270339999999862
20
-76.2562599999999975
11
147.0562979999999982
21
-76.2562599999999975
0
LINE
8
BLACK
6
CONTINUOUS
10
147.0562979999999982
20
-76.2562599999999975
11
147.0833339999999794
21
-76.2674590000000023
0
LINE
8
BLACK
6
CONTINUOUS
10
147.7631570000000067
20
-76.2562599999999975
11
147.7705839999999853
21
-76.2562599999999975
0
LINE
8
BLACK
6
CONTINUOUS
10
147.7705839999999853
20
-76.2562599999999975
11
147.7773719999999855
21
-76.2590720000000033
0
LINE
8
BLACK
6
CONTINUOUS
10
147.7773719999999855
20
-76.2590720000000033
11
147.7845810000000029
21
-76.2604979999999983
0
LINE
8
BLACK
6
CONTINUOUS
10
147.7845810000000029
20
-76.2604979999999983
11
147.7907600000000059
21
-76.2646170000000012
0
LINE
8
BLACK
6
CONTINUOUS
10
147.7907600000000059
20
-76.2646170000000012
11
147.7976199999999949
21
-76.2674590000000023
0
LINE
8
BLACK
6
CONTINUOUS
10
147.7976199999999949
20
-76.2674590000000023
11
147.8028129999999862
21
-76.2726519999999937
0
LINE
8
BLACK
6
CONTINUOUS
10
147.8028129999999862
20
-76.2726519999999937
11
147.8089300000000037
21
-76.2767300000000006
0
LINE
8
BLACK
6
CONTINUOUS
10
147.8089300000000037
20
-76.2767300000000006
11
147.8130629999999996
21
-76.2829019999999929
0
LINE
8
BLACK
6
CONTINUOUS
10
147.8130629999999996
20
-76.2829019999999929
11
147.8183119999999917
21
-76.2881509999999992
0
LINE
8
BLACK
6
CONTINUOUS
10
147.8183119999999917
20
-76.2881509999999992
11
147.821123
21
-76.2949380000000019
0
LINE
8
BLACK
6
CONTINUOUS
10
147.821123
20
-76.2949380000000019
11
147.8252129999999909
21
-76.301045000000002
0
LINE
8
BLACK
6
CONTINUOUS
10
147.8252129999999909
20
-76.301045000000002
11
147.8266689999999812
21
-76.3083259999999939
0
LINE
8
BLACK
6
CONTINUOUS
10
147.8266689999999812
20
-76.3083259999999939
11
147.8295109999999966
21
-76.3151869999999946
0
LINE
8
BLACK
6
CONTINUOUS
10
147.8295109999999966
20
-76.3151869999999946
11
147.8309359999999799
21
-76.3296629999999965
0
LINE
8
BLACK
6
CONTINUOUS
10
147.8309359999999799
20
-76.3296629999999965
11
147.8309519999999964
21
-76.329740000000001
0
LINE
8
BLACK
6
CONTINUOUS
10
147.8309519999999964
20
-76.329740000000001
11
147.8309459999999831
21
-76.3297659999999922
0
LINE
8
BLACK
6
CONTINUOUS
10
147.8309459999999831
20
-76.3297659999999922
11
147.8309519999999964
21
-76.3298190000000005
0
LINE
8
BLACK
6
CONTINUOUS
10
147.8309519999999964
20
-76.3298190000000005
11
147.8309519999999964
21
-77.2548189999999977
0
LINE
8
BLACK
6
CONTINUOUS
10
147.8309519999999964
20
-77.2548189999999977
11
148.0416659999999922
21
-77.2548189999999977
0
LINE
8
BLACK
6
CONTINUOUS
10
148.0416659999999922
20
-77.2548189999999977
11
148.0562979999999982
21
-77.2562599999999975
0
LINE
8
BLACK
6
CONTINUOUS
10
148.0562979999999982
20
-77.2562599999999975
11
148.0833339999999794
21
-77.2674590000000023
0
LINE
8
BLACK
6
CONTINUOUS
10
148.0833339999999794
20
-77.2674590000000023
11
148.1040260000000046
21
-77.2881509999999992
0
LINE
8
BLACK
6
CONTINUOUS
10
148.1040260000000046
20
-77.2881509999999992
11
148.115224999999981
21
-77.3151869999999946
0
LINE
8
BLACK
6
CONTINUOUS
10
148.115224999999981
20
-77.3151869999999946
11
148.115224999999981
21
-77.3444509999999923
0
LINE
8
BLACK
6
CONTINUOUS
10
148.115224999999981
20
-77.3444509999999923
11
148.1040260000000046
21
-77.3714870000000019
0
LINE
8
BLACK
6
CONTINUOUS
10
148.1040260000000046
20
-77.3714870000000019
11
148.0833339999999794
21
-77.3921789999999987
0
LINE
8
BLACK
6
CONTINUOUS
10
148.0833339999999794
20
-77.3921789999999987
11
148.0562979999999982
21
-77.4033780000000036
0
LINE
8
BLACK
6
CONTINUOUS
10
148.0562979999999982
20
-77.4033780000000036
11
148.0416659999999922
21
-77.4048190000000034
0
LINE
8
BLACK
6
CONTINUOUS
10
148.0416659999999922
20
-77.4048190000000034
11
147.4702379999999948
21
-77.4048190000000034
0
LINE
8
BLACK
6
CONTINUOUS
10
147.4702379999999948
20
-77.4048190000000034
11
147.4556059999999889
21
-77.4033780000000036
0
LINE
8
BLACK
6
CONTINUOUS
10
147.4556059999999889
20
-77.4033780000000036
11
147.4285699999999792
21
-77.3921789999999987
0
LINE
8
BLACK
6
CONTINUOUS
10
147.4285699999999792
20
-77.3921789999999987
11
147.4078779999999824
21
-77.3714870000000019
0
LINE
8
BLACK
6
CONTINUOUS
10
147.4078779999999824
20
-77.3714870000000019
11
147.396679000000006
21
-77.3444509999999923
0
LINE
8
BLACK
6
CONTINUOUS
10
147.396679000000006
20
-77.3444509999999923
11
147.396679000000006
21
-77.3151869999999946
0
LINE
8
BLACK
6
CONTINUOUS
10
147.396679000000006
20
-77.3151869999999946
11
147.4078779999999824
21
-77.2881509999999992
0
LINE
8
BLACK
6
CONTINUOUS
10
147.4078779999999824
20
-77.2881509999999992
11
147.4285699999999792
21
-77.2674590000000023
0
LINE
8
BLACK
6
CONTINUOUS
10
147.4285699999999792
20
-77.2674590000000023
11
147.4556059999999889
21
-77.2562599999999975
0
LINE
8
BLACK
6
CONTINUOUS
10
147.4556059999999889
20
-77.2562599999999975
11
147.4702379999999948
21
-77.2548189999999977
0
LINE
8
BLACK
6
CONTINUOUS
10
147.4702379999999948
20
-77.2548189999999977
11
147.6809519999999907
21
-77.2548189999999977
0
LINE
8
BLACK
6
CONTINUOUS
10
147.6809519999999907
20
-77.2548189999999977
11
147.6809519999999907
21
-76.5585039999999992
0
LINE
8
BLACK
6
CONTINUOUS
10
147.6809519999999907
20
-76.5585039999999992
11
147.6185089999999889
21
-76.620947000000001
0
LINE
8
BLACK
6
CONTINUOUS
10
147.6185089999999889
20
-76.620947000000001
11
147.6127589999999827
21
-76.6256649999999979
0
LINE
8
BLACK
6
CONTINUOUS
10
147.6127589999999827
20
-76.6256649999999979
11
147.6114599999999939
21
-76.6271639999999934
0
LINE
8
BLACK
6
CONTINUOUS
10
147.6114599999999939
20
-76.6271639999999934
11
147.6091999999999871
21
-76.6285850000000011
0
LINE
8
BLACK
6
CONTINUOUS
10
147.6091999999999871
20
-76.6285850000000011
11
147.6071440000000052
21
-76.630274
0
LINE
8
BLACK
6
CONTINUOUS
10
147.6071440000000052
20
-76.630274
11
147.6053159999999878
21
-76.631030999999993
0
LINE
8
BLACK
6
CONTINUOUS
10
147.6053159999999878
20
-76.631030999999993
11
147.5990170000000035
21
-76.634996000000001
0
LINE
8
BLACK
6
CONTINUOUS
10
147.5990170000000035
20
-76.634996000000001
11
147.5037789999999802
21
-76.6826149999999984
0
LINE
8
BLACK
6
CONTINUOUS
10
147.5037789999999802
20
-76.6826149999999984
11
147.4900470000000041
21
-76.6878699999999895
0
LINE
8
BLACK
6
CONTINUOUS
10
147.4900470000000041
20
-76.6878699999999895
11
147.4608570000000043
21
-76.689943999999997
0
LINE
8
BLACK
6
CONTINUOUS
10
147.4608570000000043
20
-76.689943999999997
11
147.4330960000000061
21
-76.6806899999999985
0
LINE
8
BLACK
6
CONTINUOUS
10
147.4330960000000061
20
-76.6806899999999985
11
147.4109880000000032
21
-76.6615170000000035
0
LINE
8
BLACK
6
CONTINUOUS
10
147.4109880000000032
20
-76.6615170000000035
11
147.3979009999999903
21
-76.6353419999999943
0
LINE
8
BLACK
6
CONTINUOUS
10
147.3979009999999903
20
-76.6353419999999943
11
147.395826999999997
21
-76.6061519999999945
0
LINE
8
BLACK
6
CONTINUOUS
10
147.395826999999997
20
-76.6061519999999945
11
147.4050809999999956
21
-76.5783909999999963
0
LINE
8
BLACK
6
CONTINUOUS
10
147.4050809999999956
20
-76.5783909999999963
11
147.4242539999999906
21
-76.5562829999999934
0
LINE
8
BLACK
6
CONTINUOUS
10
147.4242539999999906
20
-76.5562829999999934
11
147.436696999999981
21
-76.548451
0
LINE
8
BLACK
6
CONTINUOUS
10
147.436696999999981
20
-76.548451
11
147.521049000000005
21
-76.5062750000000023
0
LINE
8
BLACK
6
CONTINUOUS
10
147.521049000000005
20
-76.5062750000000023
11
147.6024280000000033
21
-76.4248959999999897
0
LINE
8
BLACK
6
CONTINUOUS
10
147.6024280000000033
20
-76.4248959999999897
11
147.6935479999999927
21
-76.2882159999999914
0
LINE
8
BLACK
6
CONTINUOUS
10
147.6935479999999927
20
-76.2882159999999914
11
147.6935819999999921
21
-76.2881730000000005
0
LINE
8
BLACK
6
CONTINUOUS
10
147.6935819999999921
20
-76.2881730000000005
11
147.6935919999999953
21
-76.2881509999999992
0
LINE
8
BLACK
6
CONTINUOUS
10
147.6935919999999953
20
-76.2881509999999992
11
147.6936429999999802
21
-76.2880990000000025
0
LINE
8
BLACK
6
CONTINUOUS
10
147.6936429999999802
20
-76.2880990000000025
11
147.7028640000000053
21
-76.2768409999999903
0
LINE
8
BLACK
6
CONTINUOUS
10
147.7028640000000053
20
-76.2768409999999903
11
147.7090330000000051
21
-76.2727089999999919
0
LINE
8
BLACK
6
CONTINUOUS
10
147.7090330000000051
20
-76.2727089999999919
11
147.7142839999999921
21
-76.2674590000000023
0
LINE
8
BLACK
6
CONTINUOUS
10
147.7142839999999921
20
-76.2674590000000023
11
147.7210729999999899
21
-76.264645999999999
0
LINE
8
BLACK
6
CONTINUOUS
10
147.7210729999999899
20
-76.264645999999999
11
147.7271790000000067
21
-76.2605580000000032
0
LINE
8
BLACK
6
CONTINUOUS
10
147.7271790000000067
20
-76.2605580000000032
11
147.7344589999999869
21
-76.2591010000000011
0
LINE
8
BLACK
6
CONTINUOUS
10
147.7344589999999869
20
-76.2591010000000011
11
147.7413200000000018
21
-76.2562599999999975
0
LINE
8
BLACK
6
CONTINUOUS
10
147.7413200000000018
20
-76.2562599999999975
11
147.7486679999999808
21
-76.2562599999999975
0
LINE
8
BLACK
6
CONTINUOUS
10
147.7486679999999808
20
-76.2562599999999975
11
147.7558729999999798
21
-76.2548189999999977
0
LINE
8
BLACK
6
CONTINUOUS
10
147.7558729999999798
20
-76.2548189999999977
11
147.7631570000000067
21
-76.2562599999999975
  0
ENDSEC
  0
EOF
