%TF.GenerationSoftware,KiCad,Pcbnew,9.0.0*%
%TF.CreationDate,2025-10-10T19:38:29-07:00*%
%TF.ProjectId,fj-eyespi-min,666a2d65-7965-4737-9069-2d6d696e2e6b,rev?*%
%TF.SameCoordinates,Original*%
%TF.FileFunction,Soldermask,Top*%
%TF.FilePolarity,Negative*%
%FSLAX46Y46*%
G04 Gerber Fmt 4.6, Leading zero omitted, Abs format (unit mm)*
G04 Created by KiCad (PCBNEW 9.0.0) date 2025-10-10 19:38:29*
%MOMM*%
%LPD*%
G01*
G04 APERTURE LIST*
%ADD10R,0.300000X1.300000*%
%ADD11R,1.800000X2.200000*%
%ADD12R,1.000000X3.150000*%
G04 APERTURE END LIST*
D10*
%TO.C,J1*%
X151700000Y-92850000D03*
X152200000Y-92850000D03*
X152700000Y-92850000D03*
X153200000Y-92850000D03*
X153700000Y-92850000D03*
X154200000Y-92850000D03*
X154700000Y-92850000D03*
X155200000Y-92850000D03*
X155700000Y-92850000D03*
X156200000Y-92850000D03*
X156700000Y-92850000D03*
X157200000Y-92850000D03*
X157700000Y-92850000D03*
X158200000Y-92850000D03*
X158700000Y-92850000D03*
X159200000Y-92850000D03*
X159700000Y-92850000D03*
X160200000Y-92850000D03*
D11*
X149800000Y-96100000D03*
X162100000Y-96100000D03*
%TD*%
D12*
%TO.C,J2*%
X136900000Y-84700000D03*
X136900000Y-79650000D03*
X139440000Y-84700000D03*
X139440000Y-79650000D03*
X141980000Y-84700000D03*
X141980000Y-79650000D03*
X144520000Y-84700000D03*
X144520000Y-79650000D03*
X147060000Y-84700000D03*
X147060000Y-79650000D03*
X149600000Y-84700000D03*
X149600000Y-79650000D03*
X152140000Y-84700000D03*
X152140000Y-79650000D03*
X154680000Y-84700000D03*
X154680000Y-79650000D03*
X157220000Y-84700000D03*
X157220000Y-79650000D03*
X159760000Y-84700000D03*
X159760000Y-79650000D03*
X162300000Y-84700000D03*
X162300000Y-79650000D03*
X164840000Y-84700000D03*
X164840000Y-79650000D03*
X167380000Y-84700000D03*
X167380000Y-79650000D03*
X169920000Y-84700000D03*
X169920000Y-79650000D03*
X172460000Y-84700000D03*
X172460000Y-79650000D03*
X175000000Y-84700000D03*
X175000000Y-79650000D03*
%TD*%
M02*
