  0
SECTION
  2
HEADER
  9
$ANGBASE
  50
0.0
  9
$ANGDIR
  70
1
  9
$MEASUREMENT
  70
1
  0
ENDSEC
  0
SECTION
  2
TABLES
  0
TABLE
  2
LTYPE
  70
4
  0
LTYPE
  5
40F
  2
CONTINUOUS
  70
0
  3
Solid line
  72
65
  73
0
  40
0.0
  0
LTYPE
  5
410
  2
DASHDOT
 70
0
  3
Dash Dot ____ _ ____ _
 72
65
 73
4
 40
2.0
 49
1.25
 49
-0.25
 49
0.25
 49
-0.25
  0
LTYPE
  5
411
  2
DASHED
 70
0
  3
Dashed __ __ __ __ __
 72
65
 73
2
 40
0.75
 49
0.5
 49
-0.25
  0
LTYPE
  5
43B
  2
DOTTED
 70
0
  3
Dotted .  .  .  .
 72
65
 73
2
 40
0.2
 49
0.0
 49
-0.2
  0
ENDTAB
  0
TABLE
  2
STYLE
  70
4
  0
STYLE
  2
KICAD
  70
0
  40
0
  41
1
  42
1
  50
0
  71
0
  3
isocp.shx
  0
STYLE
  2
KICADB
  70
0
  40
0
  41
1
  42
1
  50
0
  71
0
  3
isocp.shx
  0
STYLE
  2
KICADI
  70
0
  40
0
  41
1
  42
1
  50
15
  71
0
  3
isocp.shx
  0
STYLE
  2
KICADBI
  70
0
  40
0
  41
1
  42
1
  50
15
  71
0
  3
isocp.shx
  0
ENDTAB
  0
TABLE
  2
LAYER
  70
1
  0
LAYER
  2
BLACK
  70
0
  62
7
  6
CONTINUOUS
  0
ENDTAB
  0
ENDSEC
  0
SECTION
  2
ENTITIES
0
LINE
8
BLACK
6
CONTINUOUS
10
166.6409699999999816
20
-75.685963000000001
11
167.3386519999999962
21
-75.7500249999999937
0
LINE
8
BLACK
6
CONTINUOUS
10
167.3386519999999962
20
-75.7500249999999937
11
168.0318859999999859
21
-75.8514739999999961
0
LINE
8
BLACK
6
CONTINUOUS
10
168.0318859999999859
20
-75.8514739999999961
11
168.7186679999999797
21
-75.9900189999999895
0
LINE
8
BLACK
6
CONTINUOUS
10
168.7186679999999797
20
-75.9900189999999895
11
169.3970159999999794
21
-76.1652589999999918
0
LINE
8
BLACK
6
CONTINUOUS
10
169.3970159999999794
20
-76.1652589999999918
11
170.0649699999999882
21
-76.3766880000000015
0
LINE
8
BLACK
6
CONTINUOUS
10
170.0649699999999882
20
-76.3766880000000015
11
170.7206009999999878
21
-76.6236949999999979
0
LINE
8
BLACK
6
CONTINUOUS
10
170.7206009999999878
20
-76.6236949999999979
11
171.3620149999999853
21
-76.9055669999999907
0
LINE
8
BLACK
6
CONTINUOUS
10
171.3620149999999853
20
-76.9055669999999907
11
171.9873609999999928
21
-77.2214900000000029
0
LINE
8
BLACK
6
CONTINUOUS
10
171.9873609999999928
20
-77.2214900000000029
11
172.5948319999999967
21
-77.5705509999999947
0
LINE
8
BLACK
6
CONTINUOUS
10
172.5948319999999967
20
-77.5705509999999947
11
173.1826729999999941
21
-77.9517429999999933
0
LINE
8
BLACK
6
CONTINUOUS
10
173.1826729999999941
20
-77.9517429999999933
11
173.7491880000000037
21
-78.3639639999999957
0
LINE
8
BLACK
6
CONTINUOUS
10
173.7491880000000037
20
-78.3639639999999957
11
174.2927389999999832
21
-78.8060229999999962
0
LINE
8
BLACK
6
CONTINUOUS
10
174.2927389999999832
20
-78.8060229999999962
11
174.8117570000000001
21
-79.276645000000002
0
LINE
8
BLACK
6
CONTINUOUS
10
174.8117570000000001
20
-79.276645000000002
11
175.304743000000002
21
-79.7744699999999938
0
LINE
8
BLACK
6
CONTINUOUS
10
175.304743000000002
20
-79.7744699999999938
11
175.7702730000000031
21
-80.2980599999999924
0
LINE
8
BLACK
6
CONTINUOUS
10
175.7702730000000031
20
-80.2980599999999924
11
176.2070019999999886
21
-80.8459029999999927
0
LINE
8
BLACK
6
CONTINUOUS
10
176.2070019999999886
20
-80.8459029999999927
11
176.6136699999999848
21
-81.4164159999999981
0
LINE
8
BLACK
6
CONTINUOUS
10
176.6136699999999848
20
-81.4164159999999981
11
176.9891020000000026
21
-82.0079530000000005
0
LINE
8
BLACK
6
CONTINUOUS
10
176.9891020000000026
20
-82.0079530000000005
11
177.3322139999999933
21
-82.6188039999999972
0
LINE
8
BLACK
6
CONTINUOUS
10
177.3322139999999933
20
-82.6188039999999972
11
177.6420129999999915
21
-83.2472059999999914
0
LINE
8
BLACK
6
CONTINUOUS
10
177.6420129999999915
20
-83.2472059999999914
11
177.9176070000000038
21
-83.891342999999992
0
LINE
8
BLACK
6
CONTINUOUS
10
177.9176070000000038
20
-83.891342999999992
11
178.1581989999999962
21
-84.5493549999999914
0
LINE
8
BLACK
6
CONTINUOUS
10
178.1581989999999962
20
-84.5493549999999914
11
178.3630939999999896
21
-85.2193419999999975
0
LINE
8
BLACK
6
CONTINUOUS
10
178.3630939999999896
20
-85.2193419999999975
11
178.5317000000000007
21
-85.899368999999993
0
LINE
8
BLACK
6
CONTINUOUS
10
178.5317000000000007
20
-85.899368999999993
11
178.6635299999999802
21
-86.5874719999999911
0
LINE
8
BLACK
6
CONTINUOUS
10
178.6635299999999802
20
-86.5874719999999911
11
178.7582039999999779
21
-87.2816629999999947
0
LINE
8
BLACK
6
CONTINUOUS
10
178.7582039999999779
20
-87.2816629999999947
11
178.8154480000000035
21
-87.97993799999999
0
LINE
8
BLACK
6
CONTINUOUS
10
178.8154480000000035
20
-87.97993799999999
11
178.835095999999993
21
-88.6802659999999889
0
LINE
8
BLACK
6
CONTINUOUS
10
178.835095999999993
20
-88.6802659999999889
11
178.8350989999999854
21
-88.6802799999999962
0
LINE
8
BLACK
6
CONTINUOUS
10
178.8350989999999854
20
-88.6802799999999962
11
178.8351049999999987
21
-88.6802799999999962
0
LINE
8
BLACK
6
CONTINUOUS
10
178.8351049999999987
20
-88.6802799999999962
11
178.8351009999999803
21
-88.6802909999999969
0
LINE
8
BLACK
6
CONTINUOUS
10
178.8351009999999803
20
-88.6802909999999969
11
178.8351049999999987
21
-88.6803089999999941
0
LINE
8
BLACK
6
CONTINUOUS
10
178.8351049999999987
20
-88.6803089999999941
11
178.8351049999999987
21
-98.0736539999999906
0
LINE
8
BLACK
6
CONTINUOUS
10
178.8351049999999987
20
-98.0736539999999906
11
178.8181579999999826
21
-98.3539049999999975
0
LINE
8
BLACK
6
CONTINUOUS
10
178.8181579999999826
20
-98.3539049999999975
11
178.7675539999999899
21
-98.6300710000000009
0
LINE
8
BLACK
6
CONTINUOUS
10
178.7675539999999899
20
-98.6300710000000009
11
178.6840310000000045
21
-98.8981239999999957
0
LINE
8
BLACK
6
CONTINUOUS
10
178.6840310000000045
20
-98.8981239999999957
11
178.5688049999999976
21
-99.1541539999999912
0
LINE
8
BLACK
6
CONTINUOUS
10
178.5688049999999976
20
-99.1541539999999912
11
178.4235589999999831
21
-99.3944279999999907
0
LINE
8
BLACK
6
CONTINUOUS
10
178.4235589999999831
20
-99.3944279999999907
11
178.2504089999999906
21
-99.6154429999999991
0
LINE
8
BLACK
6
CONTINUOUS
10
178.2504089999999906
20
-99.6154429999999991
11
178.0518819999999778
21
-99.8139749999999992
0
LINE
8
BLACK
6
CONTINUOUS
10
178.0518819999999778
20
-99.8139749999999992
11
177.8308710000000019
21
-99.9871299999999934
0
LINE
8
BLACK
6
CONTINUOUS
10
177.8308710000000019
20
-99.9871299999999934
11
177.5905989999999974
21
-100.1323809999999952
0
LINE
8
BLACK
6
CONTINUOUS
10
177.5905989999999974
20
-100.1323809999999952
11
177.3345719999999801
21
-100.2476119999999895
0
LINE
8
BLACK
6
CONTINUOUS
10
177.3345719999999801
20
-100.2476119999999895
11
177.0665209999999945
21
-100.3311419999999998
0
LINE
8
BLACK
6
CONTINUOUS
10
177.0665209999999945
20
-100.3311419999999998
11
176.7903570000000002
21
-100.3817519999999917
0
LINE
8
BLACK
6
CONTINUOUS
10
176.7903570000000002
20
-100.3817519999999917
11
176.5101049999999816
21
-100.3987049999999925
0
LINE
8
BLACK
6
CONTINUOUS
10
176.5101049999999816
20
-100.3987049999999925
11
176.5101049999999816
21
-100.3986539999999934
0
LINE
8
BLACK
6
CONTINUOUS
10
176.5101049999999816
20
-100.3986539999999934
11
135.5
21
-100.3986539999999934
0
LINE
8
BLACK
6
CONTINUOUS
10
135.5
20
-100.3986539999999934
11
135.2197539999999947
21
-100.38170199999999
0
LINE
8
BLACK
6
CONTINUOUS
10
135.2197539999999947
20
-100.38170199999999
11
134.9435949999999877
21
-100.3310929999999956
0
LINE
8
BLACK
6
CONTINUOUS
10
134.9435949999999877
20
-100.3310929999999956
11
134.675549999999987
21
-100.247565999999992
0
LINE
8
BLACK
6
CONTINUOUS
10
134.675549999999987
20
-100.247565999999992
11
134.419526999999988
21
-100.1323379999999901
0
LINE
8
BLACK
6
CONTINUOUS
10
134.419526999999988
20
-100.1323379999999901
11
134.1792609999999968
21
-99.9870889999999974
0
LINE
8
BLACK
6
CONTINUOUS
10
134.1792609999999968
20
-99.9870889999999974
11
133.9582539999999824
21
-99.8139389999999906
0
LINE
8
BLACK
6
CONTINUOUS
10
133.9582539999999824
20
-99.8139389999999906
11
133.7597299999999905
21
-99.6154109999999946
0
LINE
8
BLACK
6
CONTINUOUS
10
133.7597299999999905
20
-99.6154109999999946
11
133.5865839999999878
21
-99.394401000000002
0
LINE
8
BLACK
6
CONTINUOUS
10
133.5865839999999878
20
-99.394401000000002
11
133.4413409999999942
21
-99.1541309999999925
0
LINE
8
BLACK
6
CONTINUOUS
10
133.4413409999999942
20
-99.1541309999999925
11
133.3261180000000081
21
-98.898106999999996
0
LINE
8
BLACK
6
CONTINUOUS
10
133.3261180000000081
20
-98.898106999999996
11
133.2425959999999918
21
-98.6300600000000003
0
LINE
8
BLACK
6
CONTINUOUS
10
133.2425959999999918
20
-98.6300600000000003
11
133.1919919999999991
21
-98.3538999999999959
0
LINE
8
BLACK
6
CONTINUOUS
10
133.1919919999999991
20
-98.3538999999999959
11
133.1758240000000058
21
-98.0865259999999921
0
LINE
8
BLACK
6
CONTINUOUS
10
133.1758240000000058
20
-98.0865259999999921
11
133.1725150000000042
21
-98.0832169999999905
0
LINE
8
BLACK
6
CONTINUOUS
10
133.1725150000000042
20
-98.0832169999999905
11
133.1706120000000055
21
-98.0736500000000007
0
LINE
8
BLACK
6
CONTINUOUS
10
133.1706120000000055
20
-98.0736500000000007
11
133.1706120000000055
21
-89.2586050000000029
0
LINE
8
BLACK
6
CONTINUOUS
10
133.1706120000000055
20
-89.2586050000000029
11
133.1706179999999904
21
-89.2585720000000009
0
LINE
8
BLACK
6
CONTINUOUS
10
133.1706179999999904
20
-89.2585720000000009
11
133.1594800000000021
21
-88.5586349999999953
0
LINE
8
BLACK
6
CONTINUOUS
10
133.1594800000000021
20
-88.5586349999999953
11
133.1860289999999907
21
-87.8580099999999931
0
LINE
8
BLACK
6
CONTINUOUS
10
133.1860289999999907
20
-87.8580099999999931
11
133.2502059999999915
21
-87.1598249999999979
0
LINE
8
BLACK
6
CONTINUOUS
10
133.2502059999999915
20
-87.1598249999999979
11
133.351824999999991
21
-86.4660999999999973
0
LINE
8
BLACK
6
CONTINUOUS
10
133.351824999999991
20
-86.4660999999999973
11
133.4905919999999924
21
-85.7788419999999974
0
LINE
8
BLACK
6
CONTINUOUS
10
133.4905919999999924
20
-85.7788419999999974
11
133.666105999999985
21
-85.1000370000000004
0
LINE
8
BLACK
6
CONTINUOUS
10
133.666105999999985
20
-85.1000370000000004
11
133.8778590000000008
21
-84.4316499999999905
0
LINE
8
BLACK
6
CONTINUOUS
10
133.8778590000000008
20
-84.4316499999999905
11
134.1252389999999934
21
-83.7756139999999903
0
LINE
8
BLACK
6
CONTINUOUS
10
134.1252389999999934
20
-83.7756139999999903
11
134.4075310000000059
21
-83.1338250000000016
0
LINE
8
BLACK
6
CONTINUOUS
10
134.4075310000000059
20
-83.1338250000000016
11
134.7239170000000001
21
-82.5081409999999948
0
LINE
8
BLACK
6
CONTINUOUS
10
134.7239170000000001
20
-82.5081409999999948
11
135.0734829999999818
21
-81.9003709999999927
0
LINE
8
BLACK
6
CONTINUOUS
10
135.0734829999999818
20
-81.9003709999999927
11
135.4552180000000021
21
-81.3122729999999905
0
LINE
8
BLACK
6
CONTINUOUS
10
135.4552180000000021
20
-81.3122729999999905
11
135.8680169999999805
21
-80.7455479999999994
0
LINE
8
BLACK
6
CONTINUOUS
10
135.8680169999999805
20
-80.7455479999999994
11
136.3106870000000015
21
-80.2018350000000027
0
LINE
8
BLACK
6
CONTINUOUS
10
136.3106870000000015
20
-80.2018350000000027
11
136.7819470000000024
21
-79.682705999999996
0
LINE
8
BLACK
6
CONTINUOUS
10
136.7819470000000024
20
-79.682705999999996
11
137.2804349999999829
21
-79.1896629999999959
0
LINE
8
BLACK
6
CONTINUOUS
10
137.2804349999999829
20
-79.1896629999999959
11
137.8047070000000076
21
-78.7241329999999948
0
LINE
8
BLACK
6
CONTINUOUS
10
137.8047070000000076
20
-78.7241329999999948
11
138.3532500000000027
21
-78.2874609999999933
0
LINE
8
BLACK
6
CONTINUOUS
10
138.3532500000000027
20
-78.2874609999999933
11
138.9244740000000036
21
-77.8809109999999976
0
LINE
8
BLACK
6
CONTINUOUS
10
138.9244740000000036
20
-77.8809109999999976
11
139.516728999999998
21
-77.5056579999999968
0
LINE
8
BLACK
6
CONTINUOUS
10
139.516728999999998
20
-77.5056579999999968
11
140.1283019999999908
21
-77.1627879999999919
0
LINE
8
BLACK
6
CONTINUOUS
10
140.1283019999999908
20
-77.1627879999999919
11
140.7574219999999912
21
-76.8532919999999962
0
LINE
8
BLACK
6
CONTINUOUS
10
140.7574219999999912
20
-76.8532919999999962
11
141.4022719999999822
21
-76.5780659999999926
0
LINE
8
BLACK
6
CONTINUOUS
10
141.4022719999999822
20
-76.5780659999999926
11
142.0609859999999856
21
-76.3379059999999896
0
LINE
8
BLACK
6
CONTINUOUS
10
142.0609859999999856
20
-76.3379059999999896
11
142.7316579999999817
21
-76.133505999999997
0
LINE
8
BLACK
6
CONTINUOUS
10
142.7316579999999817
20
-76.133505999999997
11
143.4123490000000061
21
-75.9654570000000007
0
LINE
8
BLACK
6
CONTINUOUS
10
143.4123490000000061
20
-75.9654570000000007
11
144.1010909999999967
21
-75.8342459999999932
0
LINE
8
BLACK
6
CONTINUOUS
10
144.1010909999999967
20
-75.8342459999999932
11
144.7958899999999858
21
-75.7402519999999981
0
LINE
8
BLACK
6
CONTINUOUS
10
144.7958899999999858
20
-75.7402519999999981
11
145.4947369999999864
21
-75.6837469999999968
0
LINE
8
BLACK
6
CONTINUOUS
10
145.4947369999999864
20
-75.6837469999999968
11
146.1955739999999935
21
-75.6648950000000013
0
LINE
8
BLACK
6
CONTINUOUS
10
146.1955739999999935
20
-75.6648950000000013
11
146.1956119999999828
21
-75.6648869999999931
0
LINE
8
BLACK
6
CONTINUOUS
10
146.1956119999999828
20
-75.6648869999999931
11
146.1956119999999828
21
-75.6648859999999956
0
LINE
8
BLACK
6
CONTINUOUS
10
146.1956119999999828
20
-75.6648859999999956
11
146.1956150000000036
21
-75.6648859999999956
0
LINE
8
BLACK
6
CONTINUOUS
10
146.1956150000000036
20
-75.6648859999999956
11
146.195619999999991
21
-75.6648859999999956
0
LINE
8
BLACK
6
CONTINUOUS
10
146.195619999999991
20
-75.6648859999999956
11
165.2414229999999975
21
-75.6706119999999913
0
LINE
8
BLACK
6
CONTINUOUS
10
165.2414229999999975
20
-75.6706119999999913
11
165.2414529999999786
21
-75.6706179999999904
0
LINE
8
BLACK
6
CONTINUOUS
10
165.2414529999999786
20
-75.6706179999999904
11
165.9408540000000016
21
-75.6594750000000005
0
LINE
8
BLACK
6
CONTINUOUS
10
165.9408540000000016
20
-75.6594750000000005
11
166.6409699999999816
21
-75.685963000000001
0
LINE
8
BLACK
6
CONTINUOUS
10
165.2424649999999815
20
-75.7205900000000014
11
165.2424649999999815
21
-75.7205889999999897
0
LINE
8
BLACK
6
CONTINUOUS
10
165.2424649999999815
20
-75.7205889999999897
11
165.242071999999979
21
-75.7204789999999974
0
LINE
8
BLACK
6
CONTINUOUS
10
165.242071999999979
20
-75.7204789999999974
11
165.2414079999999785
21
-75.7206120000000027
0
LINE
8
BLACK
6
CONTINUOUS
10
165.2414079999999785
20
-75.7206120000000027
11
146.1956119999999828
21
-75.7148859999999928
0
LINE
8
BLACK
6
CONTINUOUS
10
146.1956119999999828
20
-75.7148859999999928
11
146.1956119999999828
21
-75.714894000000001
0
LINE
8
BLACK
6
CONTINUOUS
10
146.1956119999999828
20
-75.714894000000001
11
145.8462659999999858
21
-75.7149089999999916
0
LINE
8
BLACK
6
CONTINUOUS
10
145.8462659999999858
20
-75.7149089999999916
11
145.1485859999999946
21
-75.7524700000000024
0
LINE
8
BLACK
6
CONTINUOUS
10
145.1485859999999946
20
-75.7524700000000024
11
144.4539330000000064
21
-75.8274849999999958
0
LINE
8
BLACK
6
CONTINUOUS
10
144.4539330000000064
20
-75.8274849999999958
11
143.7643190000000004
21
-75.9397369999999938
0
LINE
8
BLACK
6
CONTINUOUS
10
143.7643190000000004
20
-75.9397369999999938
11
143.0817360000000065
21
-76.0888999999999953
0
LINE
8
BLACK
6
CONTINUOUS
10
143.0817360000000065
20
-76.0888999999999953
11
142.4081589999999835
21
-76.2745450000000034
0
LINE
8
BLACK
6
CONTINUOUS
10
142.4081589999999835
20
-76.2745450000000034
11
141.7455369999999846
21
-76.4961320000000029
0
LINE
8
BLACK
6
CONTINUOUS
10
141.7455369999999846
20
-76.4961320000000029
11
141.0957860000000039
21
-76.7530229999999989
0
LINE
8
BLACK
6
CONTINUOUS
10
141.0957860000000039
20
-76.7530229999999989
11
140.4607849999999871
21
-77.0444729999999964
0
LINE
8
BLACK
6
CONTINUOUS
10
140.4607849999999871
20
-77.0444729999999964
11
139.8423709999999858
21
-77.3696389999999923
0
LINE
8
BLACK
6
CONTINUOUS
10
139.8423709999999858
20
-77.3696389999999923
11
139.2423330000000021
21
-77.7275819999999982
0
LINE
8
BLACK
6
CONTINUOUS
10
139.2423330000000021
20
-77.7275819999999982
11
138.6624050000000068
21
-78.1172660000000008
0
LINE
8
BLACK
6
CONTINUOUS
10
138.6624050000000068
20
-78.1172660000000008
11
138.1042659999999955
21
-78.5375629999999916
0
LINE
8
BLACK
6
CONTINUOUS
10
138.1042659999999955
20
-78.5375629999999916
11
137.5695299999999861
21
-78.9872589999999946
0
LINE
8
BLACK
6
CONTINUOUS
10
137.5695299999999861
20
-78.9872589999999946
11
137.0597429999999974
21
-79.465052
0
LINE
8
BLACK
6
CONTINUOUS
10
137.0597429999999974
20
-79.465052
11
136.5763800000000003
21
-79.9695609999999988
0
LINE
8
BLACK
6
CONTINUOUS
10
136.5763800000000003
20
-79.9695609999999988
11
136.1208389999999895
21
-80.4993269999999939
0
LINE
8
BLACK
6
CONTINUOUS
10
136.1208389999999895
20
-80.4993269999999939
11
135.6944369999999935
21
-81.0528159999999929
0
LINE
8
BLACK
6
CONTINUOUS
10
135.6944369999999935
20
-81.0528159999999929
11
135.2984079999999949
21
-81.628428999999997
0
LINE
8
BLACK
6
CONTINUOUS
10
135.2984079999999949
20
-81.628428999999997
11
134.9338960000000043
21
-82.2244999999999919
0
LINE
8
BLACK
6
CONTINUOUS
10
134.9338960000000043
20
-82.2244999999999919
11
134.6019579999999962
21
-82.839304999999996
0
LINE
8
BLACK
6
CONTINUOUS
10
134.6019579999999962
20
-82.839304999999996
11
134.3035509999999988
21
-83.4710669999999908
0
LINE
8
BLACK
6
CONTINUOUS
10
134.3035509999999988
20
-83.4710669999999908
11
134.0395409999999856
21
-84.1179580000000016
0
LINE
8
BLACK
6
CONTINUOUS
10
134.0395409999999856
20
-84.1179580000000016
11
133.8106889999999964
21
-84.778105999999994
0
LINE
8
BLACK
6
CONTINUOUS
10
133.8106889999999964
20
-84.778105999999994
11
133.6176590000000033
21
-85.4496029999999962
0
LINE
8
BLACK
6
CONTINUOUS
10
133.6176590000000033
20
-85.4496029999999962
11
133.4610079999999925
21
-86.1305069999999944
0
LINE
8
BLACK
6
CONTINUOUS
10
133.4610079999999925
20
-86.1305069999999944
11
133.3411889999999858
21
-86.818846999999991
0
LINE
8
BLACK
6
CONTINUOUS
10
133.3411889999999858
20
-86.818846999999991
11
133.2585499999999854
21
-87.5126339999999914
0
LINE
8
BLACK
6
CONTINUOUS
10
133.2585499999999854
20
-87.5126339999999914
11
133.21332799999999
21
-88.2098599999999919
0
LINE
8
BLACK
6
CONTINUOUS
10
133.21332799999999
20
-88.2098599999999919
11
133.2056560000000047
21
-88.9085089999999951
0
LINE
8
BLACK
6
CONTINUOUS
10
133.2056560000000047
20
-88.9085089999999951
11
133.2205899999999872
21
-89.2575349999999901
0
LINE
8
BLACK
6
CONTINUOUS
10
133.2205899999999872
20
-89.2575349999999901
11
133.2205889999999897
21
-89.2575349999999901
0
LINE
8
BLACK
6
CONTINUOUS
10
133.2205889999999897
20
-89.2575349999999901
11
133.2204779999999857
21
-89.2579319999999967
0
LINE
8
BLACK
6
CONTINUOUS
10
133.2204779999999857
20
-89.2579319999999967
11
133.2206119999999885
21
-89.2586050000000029
0
LINE
8
BLACK
6
CONTINUOUS
10
133.2206119999999885
20
-89.2586050000000029
11
133.2206119999999885
21
-98.0601479999999981
0
LINE
8
BLACK
6
CONTINUOUS
10
133.2206119999999885
20
-98.0601479999999981
11
133.2249999999999943
21
-98.0736550000000022
0
LINE
8
BLACK
6
CONTINUOUS
10
133.2249999999999943
20
-98.0736550000000022
11
133.2250459999999919
21
-98.0736550000000022
0
LINE
8
BLACK
6
CONTINUOUS
10
133.2250459999999919
20
-98.0736550000000022
11
133.2250429999999994
21
-98.2112659999999948
0
LINE
8
BLACK
6
CONTINUOUS
10
133.2250429999999994
20
-98.2112659999999948
11
133.2582129999999836
21
-98.4844819999999999
0
LINE
8
BLACK
6
CONTINUOUS
10
133.2582129999999836
20
-98.4844819999999999
11
133.3240729999999985
21
-98.7517079999999936
0
LINE
8
BLACK
6
CONTINUOUS
10
133.3240729999999985
20
-98.7517079999999936
11
133.4216639999999927
21
-99.0090459999999979
0
LINE
8
BLACK
6
CONTINUOUS
10
133.4216639999999927
20
-99.0090459999999979
11
133.5495630000000062
21
-99.2527449999999902
0
LINE
8
BLACK
6
CONTINUOUS
10
133.5495630000000062
20
-99.2527449999999902
11
133.7059040000000039
21
-99.4792509999999908
0
LINE
8
BLACK
6
CONTINUOUS
10
133.7059040000000039
20
-99.4792509999999908
11
133.8884079999999983
21
-99.6852590000000021
0
LINE
8
BLACK
6
CONTINUOUS
10
133.8884079999999983
20
-99.6852590000000021
11
134.094413000000003
21
-99.8677670000000006
0
LINE
8
BLACK
6
CONTINUOUS
10
134.094413000000003
20
-99.8677670000000006
11
134.3209159999999827
21
-100.0241129999999998
0
LINE
8
BLACK
6
CONTINUOUS
10
134.3209159999999827
20
-100.0241129999999998
11
134.5646119999999826
21
-100.1520170000000007
0
LINE
8
BLACK
6
CONTINUOUS
10
134.5646119999999826
20
-100.1520170000000007
11
134.8219489999999894
21
-100.2496129999999965
0
LINE
8
BLACK
6
CONTINUOUS
10
134.8219489999999894
20
-100.2496129999999965
11
135.0891729999999882
21
-100.3154789999999963
0
LINE
8
BLACK
6
CONTINUOUS
10
135.0891729999999882
20
-100.3154789999999963
11
135.3623890000000074
21
-100.3486539999999962
0
LINE
8
BLACK
6
CONTINUOUS
10
135.3623890000000074
20
-100.3486539999999962
11
135.5
21
-100.3486539999999962
0
LINE
8
BLACK
6
CONTINUOUS
10
135.5
20
-100.3486539999999962
11
176.5101049999999816
21
-100.3486539999999962
0
LINE
8
BLACK
6
CONTINUOUS
10
176.5101049999999816
20
-100.3486539999999962
11
176.510360999999989
21
-100.3487039999999979
0
LINE
8
BLACK
6
CONTINUOUS
10
176.510360999999989
20
-100.3487039999999979
11
176.647718999999995
21
-100.3487039999999979
0
LINE
8
BLACK
6
CONTINUOUS
10
176.647718999999995
20
-100.3487039999999979
11
176.9209400000000016
21
-100.3155280000000005
0
LINE
8
BLACK
6
CONTINUOUS
10
176.9209400000000016
20
-100.3155280000000005
11
177.1881699999999853
21
-100.249660999999989
0
LINE
8
BLACK
6
CONTINUOUS
10
177.1881699999999853
20
-100.249660999999989
11
177.4455119999999795
21
-100.1520620000000008
0
LINE
8
BLACK
6
CONTINUOUS
10
177.4455119999999795
20
-100.1520620000000008
11
177.6892129999999952
21
-100.0241549999999933
0
LINE
8
BLACK
6
CONTINUOUS
10
177.6892129999999952
20
-100.0241549999999933
11
177.9157199999999932
21
-99.8678060000000016
0
LINE
8
BLACK
6
CONTINUOUS
10
177.9157199999999932
20
-99.8678060000000016
11
178.1217289999999878
21
-99.685293999999999
0
LINE
8
BLACK
6
CONTINUOUS
10
178.1217289999999878
20
-99.685293999999999
11
178.3042370000000005
21
-99.4792799999999886
0
LINE
8
BLACK
6
CONTINUOUS
10
178.3042370000000005
20
-99.4792799999999886
11
178.4605809999999906
21
-99.2527699999999982
0
LINE
8
BLACK
6
CONTINUOUS
10
178.4605809999999906
20
-99.2527699999999982
11
178.5884829999999965
21
-99.00906599999999
0
LINE
8
BLACK
6
CONTINUOUS
10
178.5884829999999965
20
-99.00906599999999
11
178.6860759999999857
21
-98.7517220000000009
0
LINE
8
BLACK
6
CONTINUOUS
10
178.6860759999999857
20
-98.7517220000000009
11
178.7519369999999981
21
-98.4844899999999939
0
LINE
8
BLACK
6
CONTINUOUS
10
178.7519369999999981
20
-98.4844899999999939
11
178.7851069999999822
21
-98.2112679999999898
0
LINE
8
BLACK
6
CONTINUOUS
10
178.7851069999999822
20
-98.2112679999999898
11
178.7851049999999873
21
-98.0736539999999906
0
LINE
8
BLACK
6
CONTINUOUS
10
178.7851049999999873
20
-98.0736539999999906
11
178.7851049999999873
21
-88.6803379999999919
0
LINE
8
BLACK
6
CONTINUOUS
10
178.7851049999999873
20
-88.6803379999999919
11
178.7850969999999791
21
-88.6803379999999919
0
LINE
8
BLACK
6
CONTINUOUS
10
178.7850969999999791
20
-88.6803379999999919
11
178.7846789999999828
21
-88.3312480000000022
0
LINE
8
BLACK
6
CONTINUOUS
10
178.7846789999999828
20
-88.3312480000000022
11
178.7463520000000017
21
-87.6341189999999983
0
LINE
8
BLACK
6
CONTINUOUS
10
178.7463520000000017
20
-87.6341189999999983
11
178.6706299999999885
21
-86.940055000000001
0
LINE
8
BLACK
6
CONTINUOUS
10
178.6706299999999885
20
-86.940055000000001
11
178.5577299999999923
21
-86.2510619999999903
0
LINE
8
BLACK
6
CONTINUOUS
10
178.5577299999999923
20
-86.2510619999999903
11
178.4079799999999807
21
-85.5691289999999896
0
LINE
8
BLACK
6
CONTINUOUS
10
178.4079799999999807
20
-85.5691289999999896
11
178.2218119999999999
21
-84.8962250000000012
0
LINE
8
BLACK
6
CONTINUOUS
10
178.2218119999999999
20
-84.8962250000000012
11
177.9997630000000015
21
-84.2342939999999913
0
LINE
8
BLACK
6
CONTINUOUS
10
177.9997630000000015
20
-84.2342939999999913
11
177.7424739999999872
21
-83.5852479999999929
0
LINE
8
BLACK
6
CONTINUOUS
10
177.7424739999999872
20
-83.5852479999999929
11
177.4506899999999803
21
-82.9509619999999899
0
LINE
8
BLACK
6
CONTINUOUS
10
177.4506899999999803
20
-82.9509619999999899
11
177.1252509999999916
21
-82.3332659999999947
0
LINE
8
BLACK
6
CONTINUOUS
10
177.1252509999999916
20
-82.3332659999999947
11
176.7670990000000018
21
-81.7339460000000031
0
LINE
8
BLACK
6
CONTINUOUS
10
176.7670990000000018
20
-81.7339460000000031
11
176.3772679999999866
21
-81.1547309999999982
0
LINE
8
BLACK
6
CONTINUOUS
10
176.3772679999999866
20
-81.1547309999999982
11
175.9568830000000048
21
-80.5972950000000026
0
LINE
8
BLACK
6
CONTINUOUS
10
175.9568830000000048
20
-80.5972950000000026
11
175.5071590000000015
21
-80.0632480000000015
0
LINE
8
BLACK
6
CONTINUOUS
10
175.5071590000000015
20
-80.0632480000000015
11
175.0293949999999938
21
-79.5541319999999956
0
LINE
8
BLACK
6
CONTINUOUS
10
175.0293949999999938
20
-79.5541319999999956
11
174.5249689999999987
21
-79.0714179999999942
0
LINE
8
BLACK
6
CONTINUOUS
10
174.5249689999999987
20
-79.0714179999999942
11
173.9953399999999988
21
-78.6164989999999904
0
LINE
8
BLACK
6
CONTINUOUS
10
173.9953399999999988
20
-78.6164989999999904
11
173.4420369999999991
21
-78.1906899999999894
0
LINE
8
BLACK
6
CONTINUOUS
10
173.4420369999999991
20
-78.1906899999999894
11
172.866658000000001
21
-77.7952200000000005
0
LINE
8
BLACK
6
CONTINUOUS
10
172.866658000000001
20
-77.7952200000000005
11
172.2708639999999889
21
-77.4312309999999968
0
LINE
8
BLACK
6
CONTINUOUS
10
172.2708639999999889
20
-77.4312309999999968
11
171.6563759999999945
21
-77.099774999999994
0
LINE
8
BLACK
6
CONTINUOUS
10
171.6563759999999945
20
-77.099774999999994
11
171.0249699999999962
21
-76.8018089999999916
0
LINE
8
BLACK
6
CONTINUOUS
10
171.0249699999999962
20
-76.8018089999999916
11
170.378467999999998
21
-76.5381939999999901
0
LINE
8
BLACK
6
CONTINUOUS
10
170.378467999999998
20
-76.5381939999999901
11
169.7187380000000019
21
-76.3096900000000034
0
LINE
8
BLACK
6
CONTINUOUS
10
169.7187380000000019
20
-76.3096900000000034
11
169.0476850000000013
21
-76.1169579999999968
0
LINE
8
BLACK
6
CONTINUOUS
10
169.0476850000000013
20
-76.1169579999999968
11
168.3672459999999944
21
-75.9605540000000019
0
LINE
8
BLACK
6
CONTINUOUS
10
168.3672459999999944
20
-75.9605540000000019
11
167.6793889999999863
21
-75.8409309999999977
0
LINE
8
BLACK
6
CONTINUOUS
10
167.6793889999999863
20
-75.8409309999999977
11
166.9860979999999984
21
-75.7584329999999966
0
LINE
8
BLACK
6
CONTINUOUS
10
166.9860979999999984
20
-75.7584329999999966
11
166.2893760000000043
21
-75.7132989999999921
0
LINE
8
BLACK
6
CONTINUOUS
10
166.2893760000000043
20
-75.7132989999999921
11
165.5912359999999808
21
-75.7056599999999946
0
LINE
8
BLACK
6
CONTINUOUS
10
165.5912359999999808
20
-75.7056599999999946
11
165.2424649999999815
21
-75.7205900000000014
  0
ENDSEC
  0
EOF
