%TF.GenerationSoftware,KiCad,Pcbnew,9.0.0*%
%TF.CreationDate,2025-10-10T10:30:39-07:00*%
%TF.ProjectId,fj-eyespi-min,666a2d65-7965-4737-9069-2d6d696e2e6b,rev?*%
%TF.SameCoordinates,Original*%
%TF.FileFunction,Legend,Top*%
%TF.FilePolarity,Positive*%
%FSLAX46Y46*%
G04 Gerber Fmt 4.6, Leading zero omitted, Abs format (unit mm)*
G04 Created by KiCad (PCBNEW 9.0.0) date 2025-10-10 10:30:39*
%MOMM*%
%LPD*%
G01*
G04 APERTURE LIST*
%ADD10C,0.150000*%
%ADD11C,0.120000*%
G04 APERTURE END LIST*
D10*
X154366666Y-86454819D02*
X154366666Y-87169104D01*
X154366666Y-87169104D02*
X154319047Y-87311961D01*
X154319047Y-87311961D02*
X154223809Y-87407200D01*
X154223809Y-87407200D02*
X154080952Y-87454819D01*
X154080952Y-87454819D02*
X153985714Y-87454819D01*
X154795238Y-86550057D02*
X154842857Y-86502438D01*
X154842857Y-86502438D02*
X154938095Y-86454819D01*
X154938095Y-86454819D02*
X155176190Y-86454819D01*
X155176190Y-86454819D02*
X155271428Y-86502438D01*
X155271428Y-86502438D02*
X155319047Y-86550057D01*
X155319047Y-86550057D02*
X155366666Y-86645295D01*
X155366666Y-86645295D02*
X155366666Y-86740533D01*
X155366666Y-86740533D02*
X155319047Y-86883390D01*
X155319047Y-86883390D02*
X154747619Y-87454819D01*
X154747619Y-87454819D02*
X155366666Y-87454819D01*
X147041666Y-76329819D02*
X147041666Y-77044104D01*
X147041666Y-77044104D02*
X146994047Y-77186961D01*
X146994047Y-77186961D02*
X146898809Y-77282200D01*
X146898809Y-77282200D02*
X146755952Y-77329819D01*
X146755952Y-77329819D02*
X146660714Y-77329819D01*
X148041666Y-77329819D02*
X147470238Y-77329819D01*
X147755952Y-77329819D02*
X147755952Y-76329819D01*
X147755952Y-76329819D02*
X147660714Y-76472676D01*
X147660714Y-76472676D02*
X147565476Y-76567914D01*
X147565476Y-76567914D02*
X147470238Y-76615533D01*
D11*
%TO.C,J2*%
X176330000Y-96575000D02*
X175760000Y-96575000D01*
X176330000Y-91375000D02*
X176330000Y-96575000D01*
X176330000Y-91375000D02*
X175760000Y-91375000D01*
X175760000Y-89935000D02*
X175760000Y-91375000D01*
X174240000Y-96575000D02*
X173220000Y-96575000D01*
X174240000Y-91375000D02*
X173220000Y-91375000D01*
X171700000Y-96575000D02*
X170680000Y-96575000D01*
X171700000Y-91375000D02*
X170680000Y-91375000D01*
X169160000Y-96575000D02*
X168140000Y-96575000D01*
X169160000Y-91375000D02*
X168140000Y-91375000D01*
X166620000Y-96575000D02*
X165600000Y-96575000D01*
X166620000Y-91375000D02*
X165600000Y-91375000D01*
X164080000Y-96575000D02*
X163060000Y-96575000D01*
X164080000Y-91375000D02*
X163060000Y-91375000D01*
X161540000Y-96575000D02*
X160520000Y-96575000D01*
X161540000Y-91375000D02*
X160520000Y-91375000D01*
X159000000Y-96575000D02*
X157980000Y-96575000D01*
X159000000Y-91375000D02*
X157980000Y-91375000D01*
X156460000Y-96575000D02*
X155440000Y-96575000D01*
X156460000Y-91375000D02*
X155440000Y-91375000D01*
X153920000Y-96575000D02*
X152900000Y-96575000D01*
X153920000Y-91375000D02*
X152900000Y-91375000D01*
X151380000Y-96575000D02*
X150360000Y-96575000D01*
X151380000Y-91375000D02*
X150360000Y-91375000D01*
X148840000Y-96575000D02*
X147820000Y-96575000D01*
X148840000Y-91375000D02*
X147820000Y-91375000D01*
X146300000Y-96575000D02*
X145280000Y-96575000D01*
X146300000Y-91375000D02*
X145280000Y-91375000D01*
X143760000Y-96575000D02*
X142740000Y-96575000D01*
X143760000Y-91375000D02*
X142740000Y-91375000D01*
X141220000Y-96575000D02*
X140200000Y-96575000D01*
X141220000Y-91375000D02*
X140200000Y-91375000D01*
X138680000Y-96575000D02*
X137660000Y-96575000D01*
X138680000Y-91375000D02*
X137660000Y-91375000D01*
X136140000Y-96575000D02*
X135570000Y-96575000D01*
X136140000Y-91375000D02*
X135570000Y-91375000D01*
X135570000Y-91375000D02*
X135570000Y-96575000D01*
%TO.C,J1*%
X149800000Y-76950000D02*
X149800000Y-78690000D01*
X149800000Y-82750000D02*
X149800000Y-81410000D01*
X151290000Y-82750000D02*
X149800000Y-82750000D01*
X160610000Y-82750000D02*
X160610000Y-83950000D01*
X160610000Y-82750000D02*
X162100000Y-82750000D01*
X162100000Y-76950000D02*
X149800000Y-76950000D01*
X162100000Y-78690000D02*
X162100000Y-76950000D01*
X162100000Y-82750000D02*
X162100000Y-81410000D01*
%TD*%
M02*
