  0
SECTION
  2
HEADER
  9
$ANGBASE
  50
0.0
  9
$ANGDIR
  70
1
  9
$MEASUREMENT
  70
1
  0
ENDSEC
  0
SECTION
  2
TABLES
  0
TABLE
  2
LTYPE
  70
4
  0
LTYPE
  5
40F
  2
CONTINUOUS
  70
0
  3
Solid line
  72
65
  73
0
  40
0.0
  0
LTYPE
  5
410
  2
DASHDOT
 70
0
  3
Dash Dot ____ _ ____ _
 72
65
 73
4
 40
2.0
 49
1.25
 49
-0.25
 49
0.25
 49
-0.25
  0
LTYPE
  5
411
  2
DASHED
 70
0
  3
Dashed __ __ __ __ __
 72
65
 73
2
 40
0.75
 49
0.5
 49
-0.25
  0
LTYPE
  5
43B
  2
DOTTED
 70
0
  3
Dotted .  .  .  .
 72
65
 73
2
 40
0.2
 49
0.0
 49
-0.2
  0
ENDTAB
  0
TABLE
  2
STYLE
  70
4
  0
STYLE
  2
KICAD
  70
0
  40
0
  41
1
  42
1
  50
0
  71
0
  3
isocp.shx
  0
STYLE
  2
KICADB
  70
0
  40
0
  41
1
  42
1
  50
0
  71
0
  3
isocp.shx
  0
STYLE
  2
KICADI
  70
0
  40
0
  41
1
  42
1
  50
15
  71
0
  3
isocp.shx
  0
STYLE
  2
KICADBI
  70
0
  40
0
  41
1
  42
1
  50
15
  71
0
  3
isocp.shx
  0
ENDTAB
  0
TABLE
  2
LAYER
  70
1
  0
LAYER
  2
BLACK
  70
0
  62
7
  6
CONTINUOUS
  0
ENDTAB
  0
ENDSEC
  0
SECTION
  2
ENTITIES
0
LINE
8
BLACK
6
CONTINUOUS
10
150.6999999999999886
20
-97.1999999999999886
11
148.9000000000000057
21
-97.1999999999999886
0
LINE
8
BLACK
6
CONTINUOUS
10
148.9000000000000057
20
-97.1999999999999886
11
148.9000000000000057
21
-95.
0
LINE
8
BLACK
6
CONTINUOUS
10
148.9000000000000057
20
-95.
11
150.6999999999999886
21
-95.
0
LINE
8
BLACK
6
CONTINUOUS
10
150.6999999999999886
20
-95.
11
150.6999999999999886
21
-97.1999999999999886
0
LINE
8
BLACK
6
CONTINUOUS
10
163.
20
-97.1999999999999886
11
161.1999999999999886
21
-97.1999999999999886
0
LINE
8
BLACK
6
CONTINUOUS
10
161.1999999999999886
20
-97.1999999999999886
11
161.1999999999999886
21
-95.
0
LINE
8
BLACK
6
CONTINUOUS
10
161.1999999999999886
20
-95.
11
163.
21
-95.
0
LINE
8
BLACK
6
CONTINUOUS
10
163.
20
-95.
11
163.
21
-97.1999999999999886
0
LINE
8
BLACK
6
CONTINUOUS
10
151.8499999999999943
20
-93.5
11
151.5499999999999829
21
-93.5
0
LINE
8
BLACK
6
CONTINUOUS
10
151.5499999999999829
20
-93.5
11
151.5499999999999829
21
-92.2000000000000028
0
LINE
8
BLACK
6
CONTINUOUS
10
151.5499999999999829
20
-92.2000000000000028
11
151.8499999999999943
21
-92.2000000000000028
0
LINE
8
BLACK
6
CONTINUOUS
10
151.8499999999999943
20
-92.2000000000000028
11
151.8499999999999943
21
-93.5
0
LINE
8
BLACK
6
CONTINUOUS
10
152.3499999999999943
20
-93.5
11
152.0499999999999829
21
-93.5
0
LINE
8
BLACK
6
CONTINUOUS
10
152.0499999999999829
20
-93.5
11
152.0499999999999829
21
-92.2000000000000028
0
LINE
8
BLACK
6
CONTINUOUS
10
152.0499999999999829
20
-92.2000000000000028
11
152.3499999999999943
21
-92.2000000000000028
0
LINE
8
BLACK
6
CONTINUOUS
10
152.3499999999999943
20
-92.2000000000000028
11
152.3499999999999943
21
-93.5
0
LINE
8
BLACK
6
CONTINUOUS
10
152.8499999999999943
20
-93.5
11
152.5499999999999829
21
-93.5
0
LINE
8
BLACK
6
CONTINUOUS
10
152.5499999999999829
20
-93.5
11
152.5499999999999829
21
-92.2000000000000028
0
LINE
8
BLACK
6
CONTINUOUS
10
152.5499999999999829
20
-92.2000000000000028
11
152.8499999999999943
21
-92.2000000000000028
0
LINE
8
BLACK
6
CONTINUOUS
10
152.8499999999999943
20
-92.2000000000000028
11
152.8499999999999943
21
-93.5
0
LINE
8
BLACK
6
CONTINUOUS
10
153.3499999999999943
20
-93.5
11
153.0499999999999829
21
-93.5
0
LINE
8
BLACK
6
CONTINUOUS
10
153.0499999999999829
20
-93.5
11
153.0499999999999829
21
-92.2000000000000028
0
LINE
8
BLACK
6
CONTINUOUS
10
153.0499999999999829
20
-92.2000000000000028
11
153.3499999999999943
21
-92.2000000000000028
0
LINE
8
BLACK
6
CONTINUOUS
10
153.3499999999999943
20
-92.2000000000000028
11
153.3499999999999943
21
-93.5
0
LINE
8
BLACK
6
CONTINUOUS
10
153.8499999999999943
20
-93.5
11
153.5499999999999829
21
-93.5
0
LINE
8
BLACK
6
CONTINUOUS
10
153.5499999999999829
20
-93.5
11
153.5499999999999829
21
-92.2000000000000028
0
LINE
8
BLACK
6
CONTINUOUS
10
153.5499999999999829
20
-92.2000000000000028
11
153.8499999999999943
21
-92.2000000000000028
0
LINE
8
BLACK
6
CONTINUOUS
10
153.8499999999999943
20
-92.2000000000000028
11
153.8499999999999943
21
-93.5
0
LINE
8
BLACK
6
CONTINUOUS
10
154.3499999999999943
20
-93.5
11
154.0499999999999829
21
-93.5
0
LINE
8
BLACK
6
CONTINUOUS
10
154.0499999999999829
20
-93.5
11
154.0499999999999829
21
-92.2000000000000028
0
LINE
8
BLACK
6
CONTINUOUS
10
154.0499999999999829
20
-92.2000000000000028
11
154.3499999999999943
21
-92.2000000000000028
0
LINE
8
BLACK
6
CONTINUOUS
10
154.3499999999999943
20
-92.2000000000000028
11
154.3499999999999943
21
-93.5
0
LINE
8
BLACK
6
CONTINUOUS
10
154.8499999999999943
20
-93.5
11
154.5499999999999829
21
-93.5
0
LINE
8
BLACK
6
CONTINUOUS
10
154.5499999999999829
20
-93.5
11
154.5499999999999829
21
-92.2000000000000028
0
LINE
8
BLACK
6
CONTINUOUS
10
154.5499999999999829
20
-92.2000000000000028
11
154.8499999999999943
21
-92.2000000000000028
0
LINE
8
BLACK
6
CONTINUOUS
10
154.8499999999999943
20
-92.2000000000000028
11
154.8499999999999943
21
-93.5
0
LINE
8
BLACK
6
CONTINUOUS
10
155.3499999999999943
20
-93.5
11
155.0499999999999829
21
-93.5
0
LINE
8
BLACK
6
CONTINUOUS
10
155.0499999999999829
20
-93.5
11
155.0499999999999829
21
-92.2000000000000028
0
LINE
8
BLACK
6
CONTINUOUS
10
155.0499999999999829
20
-92.2000000000000028
11
155.3499999999999943
21
-92.2000000000000028
0
LINE
8
BLACK
6
CONTINUOUS
10
155.3499999999999943
20
-92.2000000000000028
11
155.3499999999999943
21
-93.5
0
LINE
8
BLACK
6
CONTINUOUS
10
155.8499999999999943
20
-93.5
11
155.5499999999999829
21
-93.5
0
LINE
8
BLACK
6
CONTINUOUS
10
155.5499999999999829
20
-93.5
11
155.5499999999999829
21
-92.2000000000000028
0
LINE
8
BLACK
6
CONTINUOUS
10
155.5499999999999829
20
-92.2000000000000028
11
155.8499999999999943
21
-92.2000000000000028
0
LINE
8
BLACK
6
CONTINUOUS
10
155.8499999999999943
20
-92.2000000000000028
11
155.8499999999999943
21
-93.5
0
LINE
8
BLACK
6
CONTINUOUS
10
156.3499999999999943
20
-93.5
11
156.0499999999999829
21
-93.5
0
LINE
8
BLACK
6
CONTINUOUS
10
156.0499999999999829
20
-93.5
11
156.0499999999999829
21
-92.2000000000000028
0
LINE
8
BLACK
6
CONTINUOUS
10
156.0499999999999829
20
-92.2000000000000028
11
156.3499999999999943
21
-92.2000000000000028
0
LINE
8
BLACK
6
CONTINUOUS
10
156.3499999999999943
20
-92.2000000000000028
11
156.3499999999999943
21
-93.5
0
LINE
8
BLACK
6
CONTINUOUS
10
156.8499999999999943
20
-93.5
11
156.5499999999999829
21
-93.5
0
LINE
8
BLACK
6
CONTINUOUS
10
156.5499999999999829
20
-93.5
11
156.5499999999999829
21
-92.2000000000000028
0
LINE
8
BLACK
6
CONTINUOUS
10
156.5499999999999829
20
-92.2000000000000028
11
156.8499999999999943
21
-92.2000000000000028
0
LINE
8
BLACK
6
CONTINUOUS
10
156.8499999999999943
20
-92.2000000000000028
11
156.8499999999999943
21
-93.5
0
LINE
8
BLACK
6
CONTINUOUS
10
157.3499999999999943
20
-93.5
11
157.0499999999999829
21
-93.5
0
LINE
8
BLACK
6
CONTINUOUS
10
157.0499999999999829
20
-93.5
11
157.0499999999999829
21
-92.2000000000000028
0
LINE
8
BLACK
6
CONTINUOUS
10
157.0499999999999829
20
-92.2000000000000028
11
157.3499999999999943
21
-92.2000000000000028
0
LINE
8
BLACK
6
CONTINUOUS
10
157.3499999999999943
20
-92.2000000000000028
11
157.3499999999999943
21
-93.5
0
LINE
8
BLACK
6
CONTINUOUS
10
157.8499999999999943
20
-93.5
11
157.5499999999999829
21
-93.5
0
LINE
8
BLACK
6
CONTINUOUS
10
157.5499999999999829
20
-93.5
11
157.5499999999999829
21
-92.2000000000000028
0
LINE
8
BLACK
6
CONTINUOUS
10
157.5499999999999829
20
-92.2000000000000028
11
157.8499999999999943
21
-92.2000000000000028
0
LINE
8
BLACK
6
CONTINUOUS
10
157.8499999999999943
20
-92.2000000000000028
11
157.8499999999999943
21
-93.5
0
LINE
8
BLACK
6
CONTINUOUS
10
158.3499999999999943
20
-93.5
11
158.0499999999999829
21
-93.5
0
LINE
8
BLACK
6
CONTINUOUS
10
158.0499999999999829
20
-93.5
11
158.0499999999999829
21
-92.2000000000000028
0
LINE
8
BLACK
6
CONTINUOUS
10
158.0499999999999829
20
-92.2000000000000028
11
158.3499999999999943
21
-92.2000000000000028
0
LINE
8
BLACK
6
CONTINUOUS
10
158.3499999999999943
20
-92.2000000000000028
11
158.3499999999999943
21
-93.5
0
LINE
8
BLACK
6
CONTINUOUS
10
158.8499999999999943
20
-93.5
11
158.5499999999999829
21
-93.5
0
LINE
8
BLACK
6
CONTINUOUS
10
158.5499999999999829
20
-93.5
11
158.5499999999999829
21
-92.2000000000000028
0
LINE
8
BLACK
6
CONTINUOUS
10
158.5499999999999829
20
-92.2000000000000028
11
158.8499999999999943
21
-92.2000000000000028
0
LINE
8
BLACK
6
CONTINUOUS
10
158.8499999999999943
20
-92.2000000000000028
11
158.8499999999999943
21
-93.5
0
LINE
8
BLACK
6
CONTINUOUS
10
159.3499999999999943
20
-93.5
11
159.0499999999999829
21
-93.5
0
LINE
8
BLACK
6
CONTINUOUS
10
159.0499999999999829
20
-93.5
11
159.0499999999999829
21
-92.2000000000000028
0
LINE
8
BLACK
6
CONTINUOUS
10
159.0499999999999829
20
-92.2000000000000028
11
159.3499999999999943
21
-92.2000000000000028
0
LINE
8
BLACK
6
CONTINUOUS
10
159.3499999999999943
20
-92.2000000000000028
11
159.3499999999999943
21
-93.5
0
LINE
8
BLACK
6
CONTINUOUS
10
159.8499999999999943
20
-93.5
11
159.5499999999999829
21
-93.5
0
LINE
8
BLACK
6
CONTINUOUS
10
159.5499999999999829
20
-93.5
11
159.5499999999999829
21
-92.2000000000000028
0
LINE
8
BLACK
6
CONTINUOUS
10
159.5499999999999829
20
-92.2000000000000028
11
159.8499999999999943
21
-92.2000000000000028
0
LINE
8
BLACK
6
CONTINUOUS
10
159.8499999999999943
20
-92.2000000000000028
11
159.8499999999999943
21
-93.5
0
LINE
8
BLACK
6
CONTINUOUS
10
160.3499999999999943
20
-93.5
11
160.0499999999999829
21
-93.5
0
LINE
8
BLACK
6
CONTINUOUS
10
160.0499999999999829
20
-93.5
11
160.0499999999999829
21
-92.2000000000000028
0
LINE
8
BLACK
6
CONTINUOUS
10
160.0499999999999829
20
-92.2000000000000028
11
160.3499999999999943
21
-92.2000000000000028
0
LINE
8
BLACK
6
CONTINUOUS
10
160.3499999999999943
20
-92.2000000000000028
11
160.3499999999999943
21
-93.5
0
LINE
8
BLACK
6
CONTINUOUS
10
137.4000000000000057
20
-86.2749999999999915
11
136.4000000000000057
21
-86.2749999999999915
0
LINE
8
BLACK
6
CONTINUOUS
10
136.4000000000000057
20
-86.2749999999999915
11
136.4000000000000057
21
-83.125
0
LINE
8
BLACK
6
CONTINUOUS
10
136.4000000000000057
20
-83.125
11
137.4000000000000057
21
-83.125
0
LINE
8
BLACK
6
CONTINUOUS
10
137.4000000000000057
20
-83.125
11
137.4000000000000057
21
-86.2749999999999915
0
LINE
8
BLACK
6
CONTINUOUS
10
139.9399999999999977
20
-86.2749999999999915
11
138.9399999999999977
21
-86.2749999999999915
0
LINE
8
BLACK
6
CONTINUOUS
10
138.9399999999999977
20
-86.2749999999999915
11
138.9399999999999977
21
-83.125
0
LINE
8
BLACK
6
CONTINUOUS
10
138.9399999999999977
20
-83.125
11
139.9399999999999977
21
-83.125
0
LINE
8
BLACK
6
CONTINUOUS
10
139.9399999999999977
20
-83.125
11
139.9399999999999977
21
-86.2749999999999915
0
LINE
8
BLACK
6
CONTINUOUS
10
142.4799999999999898
20
-86.2749999999999915
11
141.4799999999999898
21
-86.2749999999999915
0
LINE
8
BLACK
6
CONTINUOUS
10
141.4799999999999898
20
-86.2749999999999915
11
141.4799999999999898
21
-83.125
0
LINE
8
BLACK
6
CONTINUOUS
10
141.4799999999999898
20
-83.125
11
142.4799999999999898
21
-83.125
0
LINE
8
BLACK
6
CONTINUOUS
10
142.4799999999999898
20
-83.125
11
142.4799999999999898
21
-86.2749999999999915
0
LINE
8
BLACK
6
CONTINUOUS
10
145.0199999999999818
20
-86.2749999999999915
11
144.0199999999999818
21
-86.2749999999999915
0
LINE
8
BLACK
6
CONTINUOUS
10
144.0199999999999818
20
-86.2749999999999915
11
144.0199999999999818
21
-83.125
0
LINE
8
BLACK
6
CONTINUOUS
10
144.0199999999999818
20
-83.125
11
145.0199999999999818
21
-83.125
0
LINE
8
BLACK
6
CONTINUOUS
10
145.0199999999999818
20
-83.125
11
145.0199999999999818
21
-86.2749999999999915
0
LINE
8
BLACK
6
CONTINUOUS
10
147.5600000000000023
20
-86.2749999999999915
11
146.5600000000000023
21
-86.2749999999999915
0
LINE
8
BLACK
6
CONTINUOUS
10
146.5600000000000023
20
-86.2749999999999915
11
146.5600000000000023
21
-83.125
0
LINE
8
BLACK
6
CONTINUOUS
10
146.5600000000000023
20
-83.125
11
147.5600000000000023
21
-83.125
0
LINE
8
BLACK
6
CONTINUOUS
10
147.5600000000000023
20
-83.125
11
147.5600000000000023
21
-86.2749999999999915
0
LINE
8
BLACK
6
CONTINUOUS
10
150.0999999999999943
20
-86.2749999999999915
11
149.0999999999999943
21
-86.2749999999999915
0
LINE
8
BLACK
6
CONTINUOUS
10
149.0999999999999943
20
-86.2749999999999915
11
149.0999999999999943
21
-83.125
0
LINE
8
BLACK
6
CONTINUOUS
10
149.0999999999999943
20
-83.125
11
150.0999999999999943
21
-83.125
0
LINE
8
BLACK
6
CONTINUOUS
10
150.0999999999999943
20
-83.125
11
150.0999999999999943
21
-86.2749999999999915
0
LINE
8
BLACK
6
CONTINUOUS
10
152.6399999999999864
20
-86.2749999999999915
11
151.6399999999999864
21
-86.2749999999999915
0
LINE
8
BLACK
6
CONTINUOUS
10
151.6399999999999864
20
-86.2749999999999915
11
151.6399999999999864
21
-83.125
0
LINE
8
BLACK
6
CONTINUOUS
10
151.6399999999999864
20
-83.125
11
152.6399999999999864
21
-83.125
0
LINE
8
BLACK
6
CONTINUOUS
10
152.6399999999999864
20
-83.125
11
152.6399999999999864
21
-86.2749999999999915
0
LINE
8
BLACK
6
CONTINUOUS
10
155.1800000000000068
20
-86.2749999999999915
11
154.1800000000000068
21
-86.2749999999999915
0
LINE
8
BLACK
6
CONTINUOUS
10
154.1800000000000068
20
-86.2749999999999915
11
154.1800000000000068
21
-83.125
0
LINE
8
BLACK
6
CONTINUOUS
10
154.1800000000000068
20
-83.125
11
155.1800000000000068
21
-83.125
0
LINE
8
BLACK
6
CONTINUOUS
10
155.1800000000000068
20
-83.125
11
155.1800000000000068
21
-86.2749999999999915
0
LINE
8
BLACK
6
CONTINUOUS
10
157.7199999999999989
20
-86.2749999999999915
11
156.7199999999999989
21
-86.2749999999999915
0
LINE
8
BLACK
6
CONTINUOUS
10
156.7199999999999989
20
-86.2749999999999915
11
156.7199999999999989
21
-83.125
0
LINE
8
BLACK
6
CONTINUOUS
10
156.7199999999999989
20
-83.125
11
157.7199999999999989
21
-83.125
0
LINE
8
BLACK
6
CONTINUOUS
10
157.7199999999999989
20
-83.125
11
157.7199999999999989
21
-86.2749999999999915
0
LINE
8
BLACK
6
CONTINUOUS
10
160.2599999999999909
20
-86.2749999999999915
11
159.2599999999999909
21
-86.2749999999999915
0
LINE
8
BLACK
6
CONTINUOUS
10
159.2599999999999909
20
-86.2749999999999915
11
159.2599999999999909
21
-83.125
0
LINE
8
BLACK
6
CONTINUOUS
10
159.2599999999999909
20
-83.125
11
160.2599999999999909
21
-83.125
0
LINE
8
BLACK
6
CONTINUOUS
10
160.2599999999999909
20
-83.125
11
160.2599999999999909
21
-86.2749999999999915
0
LINE
8
BLACK
6
CONTINUOUS
10
162.7999999999999829
20
-86.2749999999999915
11
161.7999999999999829
21
-86.2749999999999915
0
LINE
8
BLACK
6
CONTINUOUS
10
161.7999999999999829
20
-86.2749999999999915
11
161.7999999999999829
21
-83.125
0
LINE
8
BLACK
6
CONTINUOUS
10
161.7999999999999829
20
-83.125
11
162.7999999999999829
21
-83.125
0
LINE
8
BLACK
6
CONTINUOUS
10
162.7999999999999829
20
-83.125
11
162.7999999999999829
21
-86.2749999999999915
0
LINE
8
BLACK
6
CONTINUOUS
10
165.3400000000000034
20
-86.2749999999999915
11
164.3400000000000034
21
-86.2749999999999915
0
LINE
8
BLACK
6
CONTINUOUS
10
164.3400000000000034
20
-86.2749999999999915
11
164.3400000000000034
21
-83.125
0
LINE
8
BLACK
6
CONTINUOUS
10
164.3400000000000034
20
-83.125
11
165.3400000000000034
21
-83.125
0
LINE
8
BLACK
6
CONTINUOUS
10
165.3400000000000034
20
-83.125
11
165.3400000000000034
21
-86.2749999999999915
0
LINE
8
BLACK
6
CONTINUOUS
10
167.8799999999999955
20
-86.2749999999999915
11
166.8799999999999955
21
-86.2749999999999915
0
LINE
8
BLACK
6
CONTINUOUS
10
166.8799999999999955
20
-86.2749999999999915
11
166.8799999999999955
21
-83.125
0
LINE
8
BLACK
6
CONTINUOUS
10
166.8799999999999955
20
-83.125
11
167.8799999999999955
21
-83.125
0
LINE
8
BLACK
6
CONTINUOUS
10
167.8799999999999955
20
-83.125
11
167.8799999999999955
21
-86.2749999999999915
0
LINE
8
BLACK
6
CONTINUOUS
10
170.4199999999999875
20
-86.2749999999999915
11
169.4199999999999875
21
-86.2749999999999915
0
LINE
8
BLACK
6
CONTINUOUS
10
169.4199999999999875
20
-86.2749999999999915
11
169.4199999999999875
21
-83.125
0
LINE
8
BLACK
6
CONTINUOUS
10
169.4199999999999875
20
-83.125
11
170.4199999999999875
21
-83.125
0
LINE
8
BLACK
6
CONTINUOUS
10
170.4199999999999875
20
-83.125
11
170.4199999999999875
21
-86.2749999999999915
0
LINE
8
BLACK
6
CONTINUOUS
10
172.9599999999999795
20
-86.2749999999999915
11
171.9599999999999795
21
-86.2749999999999915
0
LINE
8
BLACK
6
CONTINUOUS
10
171.9599999999999795
20
-86.2749999999999915
11
171.9599999999999795
21
-83.125
0
LINE
8
BLACK
6
CONTINUOUS
10
171.9599999999999795
20
-83.125
11
172.9599999999999795
21
-83.125
0
LINE
8
BLACK
6
CONTINUOUS
10
172.9599999999999795
20
-83.125
11
172.9599999999999795
21
-86.2749999999999915
0
LINE
8
BLACK
6
CONTINUOUS
10
175.5
20
-86.2749999999999915
11
174.5
21
-86.2749999999999915
0
LINE
8
BLACK
6
CONTINUOUS
10
174.5
20
-86.2749999999999915
11
174.5
21
-83.125
0
LINE
8
BLACK
6
CONTINUOUS
10
174.5
20
-83.125
11
175.5
21
-83.125
0
LINE
8
BLACK
6
CONTINUOUS
10
175.5
20
-83.125
11
175.5
21
-86.2749999999999915
0
LINE
8
BLACK
6
CONTINUOUS
10
137.4000000000000057
20
-81.2249999999999943
11
136.4000000000000057
21
-81.2249999999999943
0
LINE
8
BLACK
6
CONTINUOUS
10
136.4000000000000057
20
-81.2249999999999943
11
136.4000000000000057
21
-78.0750000000000028
0
LINE
8
BLACK
6
CONTINUOUS
10
136.4000000000000057
20
-78.0750000000000028
11
137.4000000000000057
21
-78.0750000000000028
0
LINE
8
BLACK
6
CONTINUOUS
10
137.4000000000000057
20
-78.0750000000000028
11
137.4000000000000057
21
-81.2249999999999943
0
LINE
8
BLACK
6
CONTINUOUS
10
139.9399999999999977
20
-81.2249999999999943
11
138.9399999999999977
21
-81.2249999999999943
0
LINE
8
BLACK
6
CONTINUOUS
10
138.9399999999999977
20
-81.2249999999999943
11
138.9399999999999977
21
-78.0750000000000028
0
LINE
8
BLACK
6
CONTINUOUS
10
138.9399999999999977
20
-78.0750000000000028
11
139.9399999999999977
21
-78.0750000000000028
0
LINE
8
BLACK
6
CONTINUOUS
10
139.9399999999999977
20
-78.0750000000000028
11
139.9399999999999977
21
-81.2249999999999943
0
LINE
8
BLACK
6
CONTINUOUS
10
142.4799999999999898
20
-81.2249999999999943
11
141.4799999999999898
21
-81.2249999999999943
0
LINE
8
BLACK
6
CONTINUOUS
10
141.4799999999999898
20
-81.2249999999999943
11
141.4799999999999898
21
-78.0750000000000028
0
LINE
8
BLACK
6
CONTINUOUS
10
141.4799999999999898
20
-78.0750000000000028
11
142.4799999999999898
21
-78.0750000000000028
0
LINE
8
BLACK
6
CONTINUOUS
10
142.4799999999999898
20
-78.0750000000000028
11
142.4799999999999898
21
-81.2249999999999943
0
LINE
8
BLACK
6
CONTINUOUS
10
145.0199999999999818
20
-81.2249999999999943
11
144.0199999999999818
21
-81.2249999999999943
0
LINE
8
BLACK
6
CONTINUOUS
10
144.0199999999999818
20
-81.2249999999999943
11
144.0199999999999818
21
-78.0750000000000028
0
LINE
8
BLACK
6
CONTINUOUS
10
144.0199999999999818
20
-78.0750000000000028
11
145.0199999999999818
21
-78.0750000000000028
0
LINE
8
BLACK
6
CONTINUOUS
10
145.0199999999999818
20
-78.0750000000000028
11
145.0199999999999818
21
-81.2249999999999943
0
LINE
8
BLACK
6
CONTINUOUS
10
147.5600000000000023
20
-81.2249999999999943
11
146.5600000000000023
21
-81.2249999999999943
0
LINE
8
BLACK
6
CONTINUOUS
10
146.5600000000000023
20
-81.2249999999999943
11
146.5600000000000023
21
-78.0750000000000028
0
LINE
8
BLACK
6
CONTINUOUS
10
146.5600000000000023
20
-78.0750000000000028
11
147.5600000000000023
21
-78.0750000000000028
0
LINE
8
BLACK
6
CONTINUOUS
10
147.5600000000000023
20
-78.0750000000000028
11
147.5600000000000023
21
-81.2249999999999943
0
LINE
8
BLACK
6
CONTINUOUS
10
150.0999999999999943
20
-81.2249999999999943
11
149.0999999999999943
21
-81.2249999999999943
0
LINE
8
BLACK
6
CONTINUOUS
10
149.0999999999999943
20
-81.2249999999999943
11
149.0999999999999943
21
-78.0750000000000028
0
LINE
8
BLACK
6
CONTINUOUS
10
149.0999999999999943
20
-78.0750000000000028
11
150.0999999999999943
21
-78.0750000000000028
0
LINE
8
BLACK
6
CONTINUOUS
10
150.0999999999999943
20
-78.0750000000000028
11
150.0999999999999943
21
-81.2249999999999943
0
LINE
8
BLACK
6
CONTINUOUS
10
152.6399999999999864
20
-81.2249999999999943
11
151.6399999999999864
21
-81.2249999999999943
0
LINE
8
BLACK
6
CONTINUOUS
10
151.6399999999999864
20
-81.2249999999999943
11
151.6399999999999864
21
-78.0750000000000028
0
LINE
8
BLACK
6
CONTINUOUS
10
151.6399999999999864
20
-78.0750000000000028
11
152.6399999999999864
21
-78.0750000000000028
0
LINE
8
BLACK
6
CONTINUOUS
10
152.6399999999999864
20
-78.0750000000000028
11
152.6399999999999864
21
-81.2249999999999943
0
LINE
8
BLACK
6
CONTINUOUS
10
155.1800000000000068
20
-81.2249999999999943
11
154.1800000000000068
21
-81.2249999999999943
0
LINE
8
BLACK
6
CONTINUOUS
10
154.1800000000000068
20
-81.2249999999999943
11
154.1800000000000068
21
-78.0750000000000028
0
LINE
8
BLACK
6
CONTINUOUS
10
154.1800000000000068
20
-78.0750000000000028
11
155.1800000000000068
21
-78.0750000000000028
0
LINE
8
BLACK
6
CONTINUOUS
10
155.1800000000000068
20
-78.0750000000000028
11
155.1800000000000068
21
-81.2249999999999943
0
LINE
8
BLACK
6
CONTINUOUS
10
157.7199999999999989
20
-81.2249999999999943
11
156.7199999999999989
21
-81.2249999999999943
0
LINE
8
BLACK
6
CONTINUOUS
10
156.7199999999999989
20
-81.2249999999999943
11
156.7199999999999989
21
-78.0750000000000028
0
LINE
8
BLACK
6
CONTINUOUS
10
156.7199999999999989
20
-78.0750000000000028
11
157.7199999999999989
21
-78.0750000000000028
0
LINE
8
BLACK
6
CONTINUOUS
10
157.7199999999999989
20
-78.0750000000000028
11
157.7199999999999989
21
-81.2249999999999943
0
LINE
8
BLACK
6
CONTINUOUS
10
160.2599999999999909
20
-81.2249999999999943
11
159.2599999999999909
21
-81.2249999999999943
0
LINE
8
BLACK
6
CONTINUOUS
10
159.2599999999999909
20
-81.2249999999999943
11
159.2599999999999909
21
-78.0750000000000028
0
LINE
8
BLACK
6
CONTINUOUS
10
159.2599999999999909
20
-78.0750000000000028
11
160.2599999999999909
21
-78.0750000000000028
0
LINE
8
BLACK
6
CONTINUOUS
10
160.2599999999999909
20
-78.0750000000000028
11
160.2599999999999909
21
-81.2249999999999943
0
LINE
8
BLACK
6
CONTINUOUS
10
162.7999999999999829
20
-81.2249999999999943
11
161.7999999999999829
21
-81.2249999999999943
0
LINE
8
BLACK
6
CONTINUOUS
10
161.7999999999999829
20
-81.2249999999999943
11
161.7999999999999829
21
-78.0750000000000028
0
LINE
8
BLACK
6
CONTINUOUS
10
161.7999999999999829
20
-78.0750000000000028
11
162.7999999999999829
21
-78.0750000000000028
0
LINE
8
BLACK
6
CONTINUOUS
10
162.7999999999999829
20
-78.0750000000000028
11
162.7999999999999829
21
-81.2249999999999943
0
LINE
8
BLACK
6
CONTINUOUS
10
165.3400000000000034
20
-81.2249999999999943
11
164.3400000000000034
21
-81.2249999999999943
0
LINE
8
BLACK
6
CONTINUOUS
10
164.3400000000000034
20
-81.2249999999999943
11
164.3400000000000034
21
-78.0750000000000028
0
LINE
8
BLACK
6
CONTINUOUS
10
164.3400000000000034
20
-78.0750000000000028
11
165.3400000000000034
21
-78.0750000000000028
0
LINE
8
BLACK
6
CONTINUOUS
10
165.3400000000000034
20
-78.0750000000000028
11
165.3400000000000034
21
-81.2249999999999943
0
LINE
8
BLACK
6
CONTINUOUS
10
167.8799999999999955
20
-81.2249999999999943
11
166.8799999999999955
21
-81.2249999999999943
0
LINE
8
BLACK
6
CONTINUOUS
10
166.8799999999999955
20
-81.2249999999999943
11
166.8799999999999955
21
-78.0750000000000028
0
LINE
8
BLACK
6
CONTINUOUS
10
166.8799999999999955
20
-78.0750000000000028
11
167.8799999999999955
21
-78.0750000000000028
0
LINE
8
BLACK
6
CONTINUOUS
10
167.8799999999999955
20
-78.0750000000000028
11
167.8799999999999955
21
-81.2249999999999943
0
LINE
8
BLACK
6
CONTINUOUS
10
170.4199999999999875
20
-81.2249999999999943
11
169.4199999999999875
21
-81.2249999999999943
0
LINE
8
BLACK
6
CONTINUOUS
10
169.4199999999999875
20
-81.2249999999999943
11
169.4199999999999875
21
-78.0750000000000028
0
LINE
8
BLACK
6
CONTINUOUS
10
169.4199999999999875
20
-78.0750000000000028
11
170.4199999999999875
21
-78.0750000000000028
0
LINE
8
BLACK
6
CONTINUOUS
10
170.4199999999999875
20
-78.0750000000000028
11
170.4199999999999875
21
-81.2249999999999943
0
LINE
8
BLACK
6
CONTINUOUS
10
172.9599999999999795
20
-81.2249999999999943
11
171.9599999999999795
21
-81.2249999999999943
0
LINE
8
BLACK
6
CONTINUOUS
10
171.9599999999999795
20
-81.2249999999999943
11
171.9599999999999795
21
-78.0750000000000028
0
LINE
8
BLACK
6
CONTINUOUS
10
171.9599999999999795
20
-78.0750000000000028
11
172.9599999999999795
21
-78.0750000000000028
0
LINE
8
BLACK
6
CONTINUOUS
10
172.9599999999999795
20
-78.0750000000000028
11
172.9599999999999795
21
-81.2249999999999943
0
LINE
8
BLACK
6
CONTINUOUS
10
175.5
20
-81.2249999999999943
11
174.5
21
-81.2249999999999943
0
LINE
8
BLACK
6
CONTINUOUS
10
174.5
20
-81.2249999999999943
11
174.5
21
-78.0750000000000028
0
LINE
8
BLACK
6
CONTINUOUS
10
174.5
20
-78.0750000000000028
11
175.5
21
-78.0750000000000028
0
LINE
8
BLACK
6
CONTINUOUS
10
175.5
20
-78.0750000000000028
11
175.5
21
-81.2249999999999943
  0
ENDSEC
  0
EOF
